<svg width="13" height="14" viewBox="0 0 13 14" fill="none" xmlns="http://www.w3.org/2000/svg">
<path fill-rule="evenodd" clip-rule="evenodd" d="M3.61111 3.38889C3.61111 2.62271 3.91548 1.88791 4.45725 1.34614C4.99902 0.804364 5.73382 0.5 6.5 0.5C7.26618 0.5 8.00098 0.804364 8.54275 1.34614C9.08453 1.88791 9.38889 2.62271 9.38889 3.38889C9.38889 4.15507 9.08453 4.88987 8.54275 5.43164C8.00098 5.97341 7.26618 6.27778 6.5 6.27778C5.73382 6.27778 4.99902 5.97341 4.45725 5.43164C3.91548 4.88987 3.61111 4.15507 3.61111 3.38889ZM3.61111 7.72222C2.65338 7.72222 1.73488 8.10268 1.05767 8.77989C0.380455 9.45711 0 10.3756 0 11.3333C0 11.908 0.228273 12.4591 0.634602 12.8654C1.04093 13.2717 1.59203 13.5 2.16667 13.5H10.8333C11.408 13.5 11.9591 13.2717 12.3654 12.8654C12.7717 12.4591 13 11.908 13 11.3333C13 10.3756 12.6195 9.45711 11.9423 8.77989C11.2651 8.10268 10.3466 7.72222 9.38889 7.72222H3.61111Z" fill="#F05A28"/>
</svg>
