<svg width="54" height="21" viewBox="0 0 54 21" fill="none" xmlns="http://www.w3.org/2000/svg">
<rect x="0.151367" width="53" height="21" rx="6" fill="#F05A28"/>
<mask id="path-2-inside-1_317_181" fill="white">
<path d="M17.3356 4.18421C17.3356 3.87014 17.2108 3.56893 16.9887 3.34685C16.7666 3.12476 16.4654 3 16.1514 3C15.8373 3 15.5361 3.12476 15.314 3.34685C15.0919 3.56893 14.9672 3.87014 14.9672 4.18421V9.31579H9.83558C9.52151 9.31579 9.2203 9.44055 8.99821 9.66264C8.77613 9.88472 8.65137 10.1859 8.65137 10.5C8.65137 10.8141 8.77613 11.1153 8.99821 11.3374C9.2203 11.5594 9.52151 11.6842 9.83558 11.6842H14.9672V16.8158C14.9672 17.1299 15.0919 17.4311 15.314 17.6532C15.5361 17.8752 15.8373 18 16.1514 18C16.4654 18 16.7666 17.8752 16.9887 17.6532C17.2108 17.4311 17.3356 17.1299 17.3356 16.8158V11.6842H22.4672C22.7812 11.6842 23.0824 11.5594 23.3045 11.3374C23.5266 11.1153 23.6514 10.8141 23.6514 10.5C23.6514 10.1859 23.5266 9.88472 23.3045 9.66264C23.0824 9.44055 22.7812 9.31579 22.4672 9.31579H17.3356V4.18421Z"/>
</mask>
<path d="M17.3356 4.18421C17.3356 3.87014 17.2108 3.56893 16.9887 3.34685C16.7666 3.12476 16.4654 3 16.1514 3C15.8373 3 15.5361 3.12476 15.314 3.34685C15.0919 3.56893 14.9672 3.87014 14.9672 4.18421V9.31579H9.83558C9.52151 9.31579 9.2203 9.44055 8.99821 9.66264C8.77613 9.88472 8.65137 10.1859 8.65137 10.5C8.65137 10.8141 8.77613 11.1153 8.99821 11.3374C9.2203 11.5594 9.52151 11.6842 9.83558 11.6842H14.9672V16.8158C14.9672 17.1299 15.0919 17.4311 15.314 17.6532C15.5361 17.8752 15.8373 18 16.1514 18C16.4654 18 16.7666 17.8752 16.9887 17.6532C17.2108 17.4311 17.3356 17.1299 17.3356 16.8158V11.6842H22.4672C22.7812 11.6842 23.0824 11.5594 23.3045 11.3374C23.5266 11.1153 23.6514 10.8141 23.6514 10.5C23.6514 10.1859 23.5266 9.88472 23.3045 9.66264C23.0824 9.44055 22.7812 9.31579 22.4672 9.31579H17.3356V4.18421Z" fill="white"/>
<path d="M17.3356 4.18421H27.3356H17.3356ZM16.1514 3V-7V3ZM14.9672 4.18421H4.96716H14.9672ZM14.9672 9.31579V19.3158H24.9672V9.31579H14.9672ZM9.83558 9.31579V-0.68421V9.31579ZM8.65137 10.5H-1.34863H8.65137ZM14.9672 11.6842H24.9672V1.68421H14.9672V11.6842ZM14.9672 16.8158H4.96716H14.9672ZM17.3356 16.8158H27.3356H17.3356ZM17.3356 11.6842V1.68421H7.33558V11.6842H17.3356ZM22.4672 11.6842V21.6842V11.6842ZM22.4672 9.31579V-0.68421V9.31579ZM17.3356 9.31579H7.33558V19.3158H17.3356V9.31579ZM27.3356 4.18421C27.3356 1.21798 26.1572 -1.62677 24.0598 -3.72422L9.91766 10.4179C8.26438 8.76463 7.33558 6.5223 7.33558 4.18421H27.3356ZM24.0598 -3.72422C21.9624 -5.82167 19.1176 -7 16.1514 -7V13C13.8133 13 11.5709 12.0712 9.91766 10.4179L24.0598 -3.72422ZM16.1514 -7C13.1851 -7 10.3404 -5.82167 8.24294 -3.72422L22.3851 10.4179C20.7318 12.0712 18.4895 13 16.1514 13V-7ZM8.24294 -3.72422C6.14549 -1.62677 4.96716 1.21798 4.96716 4.18421H24.9672C24.9672 6.5223 24.0384 8.76463 22.3851 10.4179L8.24294 -3.72422ZM4.96716 4.18421V9.31579H24.9672V4.18421H4.96716ZM14.9672 -0.68421H9.83558V19.3158H14.9672V-0.68421ZM9.83558 -0.68421C6.86934 -0.68421 4.0246 0.494121 1.92715 2.59157L16.0693 16.7337C14.416 18.387 12.1737 19.3158 9.83558 19.3158V-0.68421ZM1.92715 2.59157C-0.1703 4.68902 -1.34863 7.53376 -1.34863 10.5H18.6514C18.6514 12.8381 17.7226 15.0804 16.0693 16.7337L1.92715 2.59157ZM-1.34863 10.5C-1.34863 13.4662 -0.1703 16.311 1.92715 18.4084L16.0693 4.2663C17.7226 5.91958 18.6514 8.16191 18.6514 10.5H-1.34863ZM1.92715 18.4084C4.0246 20.5059 6.86934 21.6842 9.83558 21.6842V1.68421C12.1737 1.68421 14.416 2.61301 16.0693 4.2663L1.92715 18.4084ZM9.83558 21.6842H14.9672V1.68421H9.83558V21.6842ZM4.96716 11.6842V16.8158H24.9672V11.6842H4.96716ZM4.96716 16.8158C4.96716 19.782 6.14549 22.6268 8.24294 24.7242L22.3851 10.5821C24.0384 12.2354 24.9672 14.4777 24.9672 16.8158H4.96716ZM8.24294 24.7242C10.3404 26.8217 13.1851 28 16.1514 28V8C18.4895 8 20.7318 8.92881 22.3851 10.5821L8.24294 24.7242ZM16.1514 28C19.1176 28 21.9624 26.8217 24.0598 24.7242L9.91766 10.5821C11.5709 8.92881 13.8133 8 16.1514 8V28ZM24.0598 24.7242C26.1572 22.6268 27.3356 19.782 27.3356 16.8158H7.33558C7.33558 14.4777 8.26438 12.2354 9.91766 10.5821L24.0598 24.7242ZM27.3356 16.8158V11.6842H7.33558V16.8158H27.3356ZM17.3356 21.6842H22.4672V1.68421H17.3356V21.6842ZM22.4672 21.6842C25.4334 21.6842 28.2781 20.5059 30.3756 18.4084L16.2335 4.2663C17.8867 2.61302 20.1291 1.68421 22.4672 1.68421V21.6842ZM30.3756 18.4084C32.473 16.311 33.6514 13.4662 33.6514 10.5H13.6514C13.6514 8.1619 14.5802 5.91957 16.2335 4.2663L30.3756 18.4084ZM33.6514 10.5C33.6514 7.53375 32.473 4.68901 30.3756 2.59157L16.2335 16.7337C14.5802 15.0804 13.6514 12.8381 13.6514 10.5H33.6514ZM30.3756 2.59157C28.2781 0.494124 25.4334 -0.68421 22.4672 -0.68421V19.3158C20.1291 19.3158 17.8867 18.387 16.2335 16.7337L30.3756 2.59157ZM22.4672 -0.68421H17.3356V19.3158H22.4672V-0.68421ZM27.3356 9.31579V4.18421H7.33558V9.31579H27.3356Z" fill="white" mask="url(#path-2-inside-1_317_181)"/>
<path d="M43.8585 9.79289L44.212 9.43934L43.8585 9.79289C44.046 9.98043 44.1514 10.2348 44.1514 10.5C44.1514 10.7652 44.046 11.0196 43.8585 11.2071L44.212 11.5607L43.8585 11.2071C43.6709 11.3946 43.4166 11.5 43.1514 11.5H34.1514C33.8862 11.5 33.6318 11.3946 33.4443 11.2071C33.2567 11.0196 33.1514 10.7652 33.1514 10.5C33.1514 10.2348 33.2567 9.98043 33.4443 9.79289C33.6318 9.60536 33.8862 9.5 34.1514 9.5H43.1514C43.4166 9.5 43.6709 9.60536 43.8585 9.79289Z" fill="white" stroke="white"/>
</svg>
