<svg width="7" height="6" viewBox="0 0 7 6" fill="none" xmlns="http://www.w3.org/2000/svg">
<path d="M6.64979 0.746094L0.34961 0.746094C0.285824 0.746285 0.2233 0.763069 0.168768 0.79464C0.114237 0.826211 0.0697628 0.871373 0.0401331 0.925264C0.0105034 0.979157 -0.00315993 1.03974 0.000614237 1.10049C0.00438841 1.16124 0.025457 1.21985 0.0615521 1.27003L3.21164 5.6111C3.3422 5.79109 3.6565 5.79109 3.78741 5.6111L6.9375 1.27003C6.97396 1.21996 6.99534 1.16131 6.99932 1.10046C7.0033 1.03961 6.98972 0.978883 6.96007 0.924877C6.93041 0.870871 6.88581 0.825651 6.83111 0.794131C6.7764 0.762612 6.71369 0.745998 6.64979 0.746094Z" fill="#F05A28"/>
</svg>
