<svg width="7" height="6" viewBox="0 0 7 6" fill="none" xmlns="http://www.w3.org/2000/svg">
<path d="M0.350211 5.74609L6.65039 5.74609C6.71418 5.7459 6.7767 5.72912 6.83123 5.69755C6.88576 5.66598 6.93024 5.62082 6.95987 5.56692C6.9895 5.51303 7.00316 5.45245 6.99939 5.3917C6.99561 5.33095 6.97454 5.27233 6.93845 5.22216L3.78836 0.881084C3.6578 0.701097 3.3435 0.701097 3.21259 0.881084L0.0625026 5.22216C0.0260402 5.27223 0.00465789 5.33088 0.000678643 5.39173C-0.00330061 5.45258 0.0102755 5.5133 0.0399318 5.56731C0.0695882 5.62132 0.114191 5.66654 0.168893 5.69806C0.223595 5.72958 0.286306 5.74619 0.350211 5.74609Z" fill="#F05A28"/>
</svg>
