<svg width="362" height="228" viewBox="0 0 362 228" fill="none" xmlns="http://www.w3.org/2000/svg">
<rect x="0.5" y="0.5" width="333" height="82" rx="10.5" stroke="#F05A28"/>
<rect x="50.5" y="21.5" width="51" height="40" rx="11.5" stroke="#BCBEC0"/>
<path d="M62.324 58.1097V55.8952C62.324 55.0462 61.8072 54.4927 60.9213 54.4927C60.4784 54.4927 59.9986 54.6403 59.6663 55.1201C59.4081 54.7141 59.039 54.4927 58.4854 54.4927C58.1162 54.4927 57.7473 54.6033 57.4519 55.0093V54.5665H56.6768V58.1097H57.4519V56.1535C57.4519 55.5262 57.7841 55.2308 58.3009 55.2308C58.8174 55.2308 59.076 55.563 59.076 56.1535V58.1097H59.8511V56.1535C59.8511 55.5262 60.22 55.2308 60.6999 55.2308C61.2167 55.2308 61.475 55.563 61.475 56.1535V58.1097H62.324ZM73.8027 54.5665H72.5479V53.4961H71.7728V54.5665H71.0716V55.2676H71.7727V56.8918C71.7727 57.7038 72.1049 58.1835 72.9908 58.1835C73.323 58.1835 73.6919 58.0729 73.9505 57.9253L73.7289 57.2608C73.5075 57.4084 73.2492 57.4454 73.0646 57.4454C72.6956 57.4454 72.5479 57.224 72.5479 56.8548V55.2676H73.8027V54.5665ZM80.3727 54.4925C79.9299 54.4925 79.6346 54.7141 79.45 55.0093V54.5665H78.6749V58.1097H79.45V56.1167C79.45 55.5262 79.7083 55.1939 80.1881 55.1939C80.3357 55.1939 80.5203 55.2309 80.668 55.2678L80.8894 54.5296C80.7418 54.4927 80.5203 54.4927 80.3727 54.4927M70.4441 54.8619C70.0749 54.6035 69.5582 54.4928 69.0045 54.4928C68.1188 54.4928 67.5283 54.9357 67.5283 55.637C67.5283 56.2276 67.9712 56.5597 68.7463 56.6705L69.1153 56.7075C69.5214 56.7811 69.7428 56.8919 69.7428 57.0765C69.7428 57.3348 69.4475 57.5194 68.9307 57.5194C68.4139 57.5194 68.008 57.3348 67.7496 57.1504L67.3805 57.7408C67.7865 58.0361 68.3402 58.1837 68.8937 58.1837C69.9272 58.1837 70.5179 57.704 70.5179 57.0396C70.5179 56.4121 70.038 56.0798 69.2998 55.9692L68.9307 55.9322C68.5985 55.8952 68.3402 55.8216 68.3402 55.6002C68.3402 55.3417 68.5985 55.1941 69.0045 55.1941C69.4475 55.1941 69.8904 55.3786 70.1118 55.4894L70.4441 54.8619ZM91.0397 54.4928C90.5966 54.4928 90.3014 54.7143 90.1168 55.0095V54.5666H89.3417V58.1099H90.1168V56.1168C90.1168 55.5263 90.3752 55.1941 90.8549 55.1941C91.0027 55.1941 91.1873 55.2311 91.3349 55.2679L91.5563 54.5298C91.4087 54.4928 91.1873 54.4928 91.0397 54.4928ZM81.1478 56.3383C81.1478 57.4086 81.8859 58.1837 83.0303 58.1837C83.5469 58.1837 83.916 58.0731 84.285 57.7778L83.916 57.1504C83.6207 57.3718 83.3255 57.4824 82.9933 57.4824C82.3658 57.4824 81.9229 57.0396 81.9229 56.3383C81.9229 55.674 82.3658 55.2309 82.9933 55.1941C83.3255 55.1941 83.6207 55.3047 83.916 55.5263L84.285 54.8989C83.916 54.6035 83.5469 54.4928 83.0303 54.4928C81.8859 54.4928 81.1478 55.2679 81.1478 56.3383ZM88.3083 56.3383V54.5666H87.5332V55.0095C87.2748 54.6774 86.9057 54.4928 86.4259 54.4928C85.4294 54.4928 84.6543 55.2679 84.6543 56.3383C84.6543 57.4086 85.4294 58.1837 86.4259 58.1837C86.9426 58.1837 87.3118 57.9993 87.5332 57.667V58.1099H88.3083V56.3383ZM85.4662 56.3383C85.4662 55.7108 85.8722 55.1941 86.5365 55.1941C87.164 55.1941 87.607 55.674 87.607 56.3383C87.607 56.9657 87.164 57.4824 86.5365 57.4824C85.8722 57.4454 85.4662 56.9657 85.4662 56.3383ZM76.202 54.4928C75.1685 54.4928 74.4302 55.2309 74.4302 56.3383C74.4302 57.4456 75.1683 58.1837 76.2388 58.1837C76.7555 58.1837 77.2723 58.0361 77.6784 57.704L77.3092 57.1504C77.0139 57.3718 76.6449 57.5194 76.2758 57.5194C75.796 57.5194 75.3161 57.298 75.2053 56.6703H77.826V56.3753C77.863 55.2309 77.1987 54.4928 76.202 54.4928ZM76.2018 55.1571C76.6815 55.1571 77.0139 55.4525 77.0876 56.0062H75.2421C75.3159 55.5263 75.6482 55.1571 76.2018 55.1571ZM95.4316 56.3383V53.1641H94.6566V55.0095C94.3981 54.6774 94.0291 54.4928 93.5492 54.4928C92.5527 54.4928 91.7776 55.2679 91.7776 56.3383C91.7776 57.4086 92.5527 58.1837 93.5492 58.1837C94.0661 58.1837 94.4351 57.9993 94.6566 57.667V58.1099H95.4316V56.3383ZM92.5897 56.3383C92.5897 55.7108 92.9956 55.1941 93.66 55.1941C94.2875 55.1941 94.7304 55.674 94.7304 56.3383C94.7304 56.9657 94.2875 57.4824 93.66 57.4824C92.9956 57.4454 92.5897 56.9657 92.5897 56.3383ZM66.6791 56.3383V54.5666H65.904V55.0095C65.6455 54.6774 65.2765 54.4928 64.7966 54.4928C63.8001 54.4928 63.025 55.2679 63.025 56.3383C63.025 57.4086 63.8001 58.1837 64.7966 58.1837C65.3135 58.1837 65.6825 57.9993 65.904 57.667V58.1099H66.6791V56.3383ZM63.8001 56.3383C63.8001 55.7108 64.2061 55.1941 64.8704 55.1941C65.4979 55.1941 65.9409 55.674 65.9409 56.3383C65.9409 56.9657 65.4979 57.4824 64.8704 57.4824C64.2061 57.4454 63.8001 56.9657 63.8001 56.3383Z" fill="black"/>
<path d="M70.1851 27.6582H81.8115V48.549H70.1851V27.6582Z" fill="#FF5F00"/>
<path d="M70.9244 38.1039C70.9244 33.8593 72.9174 30.0945 75.9808 27.6584C73.7295 25.8867 70.8875 24.8164 67.7871 24.8164C60.4419 24.8164 54.4995 30.7588 54.4995 38.1039C54.4995 45.449 60.4419 51.3913 67.787 51.3913C70.8874 51.3913 73.7293 50.321 75.9808 48.5492C72.9174 46.1501 70.9244 42.3484 70.9244 38.1039Z" fill="#EB001B"/>
<path d="M97.5003 38.1039C97.5003 45.4488 91.558 51.3913 84.2129 51.3913C81.1125 51.3913 78.2705 50.321 76.019 48.5492C79.1194 46.1133 81.0757 42.3484 81.0757 38.1039C81.0757 33.8593 79.0824 30.0945 76.019 27.6584C78.2704 25.8867 81.1125 24.8164 84.2129 24.8164C91.558 24.8164 97.5003 30.7958 97.5003 38.1039Z" fill="#F79E1B"/>
<path d="M133.004 25.3182H135.261L138.284 32.696H138.403L141.426 25.3182H143.683V35.5H141.913V28.505H141.819L139.005 35.4702H137.683L134.869 28.4901H134.774V35.5H133.004V25.3182ZM147.81 35.6541C147.326 35.6541 146.89 35.5679 146.502 35.3956C146.118 35.2199 145.813 34.9614 145.587 34.62C145.365 34.2786 145.254 33.8577 145.254 33.3572C145.254 32.9264 145.334 32.5701 145.493 32.2884C145.652 32.0066 145.869 31.7812 146.144 31.6122C146.419 31.4432 146.729 31.3156 147.074 31.2294C147.422 31.1399 147.781 31.0753 148.153 31.0355C148.6 30.9891 148.963 30.9477 149.241 30.9112C149.52 30.8714 149.722 30.8118 149.848 30.7322C149.977 30.6494 150.042 30.5218 150.042 30.3494V30.3196C150.042 29.9451 149.931 29.6551 149.709 29.4496C149.487 29.2441 149.167 29.1413 148.749 29.1413C148.308 29.1413 147.959 29.2375 147.7 29.4297C147.445 29.6219 147.273 29.849 147.183 30.1108L145.503 29.8722C145.635 29.4081 145.854 29.0204 146.159 28.7088C146.464 28.3939 146.837 28.1586 147.278 28.0028C147.719 27.8438 148.206 27.7642 148.739 27.7642C149.107 27.7642 149.473 27.8073 149.838 27.8935C150.203 27.9796 150.536 28.1222 150.837 28.321C151.139 28.5166 151.381 28.7834 151.563 29.1214C151.749 29.4595 151.842 29.8821 151.842 30.3892V35.5H150.112V34.451H150.052C149.942 34.6631 149.788 34.862 149.589 35.0476C149.394 35.2299 149.147 35.3774 148.849 35.4901C148.554 35.5994 148.207 35.6541 147.81 35.6541ZM148.277 34.3317C148.638 34.3317 148.951 34.2604 149.217 34.1179C149.482 33.9721 149.686 33.7798 149.828 33.5412C149.974 33.3026 150.047 33.0424 150.047 32.7607V31.8608C149.991 31.9072 149.894 31.9503 149.759 31.9901C149.626 32.0298 149.477 32.0646 149.311 32.0945C149.145 32.1243 148.981 32.1508 148.819 32.174C148.656 32.1972 148.516 32.2171 148.396 32.2337C148.128 32.2701 147.888 32.3298 147.675 32.4126C147.463 32.4955 147.296 32.6115 147.173 32.7607C147.051 32.9065 146.989 33.0954 146.989 33.3274C146.989 33.6589 147.11 33.9091 147.352 34.0781C147.594 34.2472 147.902 34.3317 148.277 34.3317ZM159.687 29.8821L158.046 30.0611C158 29.8954 157.919 29.7396 157.803 29.5938C157.69 29.4479 157.537 29.3303 157.345 29.2408C157.153 29.1513 156.918 29.1065 156.639 29.1065C156.265 29.1065 155.95 29.1877 155.695 29.3501C155.443 29.5125 155.318 29.723 155.322 29.9815C155.318 30.2036 155.4 30.3842 155.565 30.5234C155.734 30.6626 156.013 30.777 156.401 30.8665L157.703 31.1449C158.426 31.3007 158.963 31.5476 159.314 31.8857C159.669 32.2237 159.848 32.6662 159.851 33.2131C159.848 33.6937 159.707 34.1179 159.428 34.4858C159.153 34.8504 158.77 35.1354 158.28 35.3409C157.789 35.5464 157.226 35.6491 156.589 35.6491C155.655 35.6491 154.902 35.4536 154.332 35.0625C153.762 34.6681 153.423 34.1196 153.313 33.4169L155.068 33.2479C155.148 33.5926 155.317 33.8527 155.575 34.0284C155.834 34.2041 156.17 34.2919 156.585 34.2919C157.012 34.2919 157.355 34.2041 157.614 34.0284C157.875 33.8527 158.006 33.6357 158.006 33.3771C158.006 33.1584 157.922 32.9777 157.753 32.8352C157.587 32.6927 157.329 32.5833 156.977 32.5071L155.675 32.2337C154.942 32.0812 154.4 31.8243 154.049 31.4631C153.698 31.0985 153.524 30.6378 153.527 30.081C153.524 29.6103 153.651 29.2027 153.91 28.858C154.172 28.5099 154.535 28.2415 154.999 28.0526C155.466 27.8603 156.004 27.7642 156.614 27.7642C157.509 27.7642 158.214 27.9548 158.727 28.3359C159.244 28.7171 159.564 29.2325 159.687 29.8821ZM165.148 27.8636V29.2557H160.758V27.8636H165.148ZM161.842 26.0341H163.642V33.2031C163.642 33.4451 163.678 33.6307 163.751 33.7599C163.827 33.8859 163.927 33.9721 164.049 34.0185C164.172 34.0649 164.308 34.0881 164.457 34.0881C164.57 34.0881 164.672 34.0798 164.765 34.0632C164.861 34.0466 164.934 34.0317 164.984 34.0185L165.287 35.4254C165.191 35.4586 165.054 35.495 164.875 35.5348C164.699 35.5746 164.484 35.5978 164.228 35.6044C163.778 35.6177 163.372 35.5497 163.01 35.4006C162.649 35.2481 162.362 35.0128 162.15 34.6946C161.941 34.3764 161.839 33.9787 161.842 33.5014V26.0341ZM169.952 35.6491C169.186 35.6491 168.525 35.4901 167.968 35.1719C167.415 34.8504 166.989 34.3963 166.691 33.8097C166.392 33.2197 166.243 32.5253 166.243 31.7266C166.243 30.9411 166.392 30.2517 166.691 29.6584C166.992 29.0618 167.413 28.5978 167.953 28.2663C168.494 27.9316 169.128 27.7642 169.857 27.7642C170.328 27.7642 170.772 27.8404 171.19 27.9929C171.611 28.142 171.982 28.3741 172.303 28.6889C172.628 29.0038 172.883 29.4048 173.069 29.892C173.255 30.3759 173.347 30.9527 173.347 31.6222V32.174H167.088V30.9609H171.622C171.619 30.6162 171.544 30.3097 171.399 30.0412C171.253 29.7694 171.049 29.5556 170.787 29.3999C170.529 29.2441 170.227 29.1662 169.882 29.1662C169.514 29.1662 169.191 29.2557 168.913 29.4347C168.634 29.6103 168.417 29.8423 168.262 30.1307C168.109 30.4157 168.031 30.7289 168.028 31.0703V32.1293C168.028 32.5734 168.109 32.9545 168.271 33.2727C168.434 33.5876 168.661 33.8295 168.953 33.9986C169.244 34.1643 169.586 34.2472 169.977 34.2472C170.239 34.2472 170.476 34.2107 170.688 34.1378C170.9 34.0616 171.084 33.9505 171.24 33.8047C171.395 33.6589 171.513 33.4782 171.593 33.2628L173.273 33.4517C173.167 33.8958 172.965 34.2836 172.666 34.6151C172.371 34.9432 171.994 35.1984 171.533 35.3807C171.072 35.5597 170.545 35.6491 169.952 35.6491ZM174.87 35.5V27.8636H176.615V29.1364H176.695C176.834 28.6955 177.072 28.3558 177.411 28.1172C177.752 27.8752 178.141 27.7543 178.579 27.7543C178.678 27.7543 178.789 27.7592 178.912 27.7692C179.038 27.7758 179.142 27.7874 179.225 27.804V29.4595C179.149 29.433 179.028 29.4098 178.862 29.3899C178.7 29.3667 178.542 29.3551 178.39 29.3551C178.062 29.3551 177.767 29.4264 177.505 29.5689C177.246 29.7081 177.043 29.902 176.893 30.1506C176.744 30.3991 176.67 30.6858 176.67 31.0107V35.5H174.87ZM189.216 28.7536H187.356C187.303 28.4486 187.205 28.1785 187.063 27.9432C186.92 27.7045 186.743 27.5024 186.531 27.3366C186.319 27.1709 186.077 27.0466 185.805 26.9638C185.537 26.8776 185.247 26.8345 184.935 26.8345C184.382 26.8345 183.891 26.9737 183.463 27.2521C183.036 27.5272 182.701 27.9316 182.459 28.4652C182.217 28.9955 182.096 29.6435 182.096 30.4091C182.096 31.188 182.217 31.8442 182.459 32.3778C182.704 32.9081 183.039 33.3092 183.463 33.581C183.891 33.8494 184.38 33.9837 184.93 33.9837C185.235 33.9837 185.52 33.9439 185.785 33.8643C186.054 33.7815 186.294 33.6605 186.506 33.5014C186.721 33.3423 186.902 33.1468 187.048 32.9148C187.197 32.6828 187.3 32.4176 187.356 32.1193L189.216 32.1293C189.146 32.6132 188.995 33.0672 188.763 33.4915C188.534 33.9157 188.234 34.2902 187.863 34.6151C187.492 34.9366 187.058 35.1884 186.561 35.3707C186.064 35.5497 185.512 35.6392 184.905 35.6392C184.01 35.6392 183.212 35.4321 182.509 35.0178C181.806 34.6035 181.253 34.0052 180.848 33.223C180.444 32.4408 180.242 31.5028 180.242 30.4091C180.242 29.312 180.446 28.3741 180.853 27.5952C181.261 26.813 181.816 26.2147 182.519 25.8004C183.221 25.3861 184.017 25.179 184.905 25.179C185.472 25.179 185.999 25.2585 186.486 25.4176C186.973 25.5767 187.408 25.8104 187.789 26.1186C188.17 26.4235 188.483 26.7981 188.728 27.2422C188.977 27.683 189.139 28.1868 189.216 28.7536ZM193.023 35.6541C192.539 35.6541 192.103 35.5679 191.715 35.3956C191.331 35.2199 191.026 34.9614 190.8 34.62C190.578 34.2786 190.467 33.8577 190.467 33.3572C190.467 32.9264 190.547 32.5701 190.706 32.2884C190.865 32.0066 191.082 31.7812 191.357 31.6122C191.632 31.4432 191.942 31.3156 192.287 31.2294C192.635 31.1399 192.994 31.0753 193.366 31.0355C193.813 30.9891 194.176 30.9477 194.454 30.9112C194.733 30.8714 194.935 30.8118 195.061 30.7322C195.19 30.6494 195.255 30.5218 195.255 30.3494V30.3196C195.255 29.9451 195.144 29.6551 194.922 29.4496C194.7 29.2441 194.38 29.1413 193.962 29.1413C193.521 29.1413 193.172 29.2375 192.913 29.4297C192.658 29.6219 192.486 29.849 192.396 30.1108L190.716 29.8722C190.848 29.4081 191.067 29.0204 191.372 28.7088C191.677 28.3939 192.05 28.1586 192.491 28.0028C192.931 27.8438 193.419 27.7642 193.952 27.7642C194.32 27.7642 194.686 27.8073 195.051 27.8935C195.416 27.9796 195.749 28.1222 196.05 28.321C196.352 28.5166 196.594 28.7834 196.776 29.1214C196.962 29.4595 197.055 29.8821 197.055 30.3892V35.5H195.324V34.451H195.265C195.155 34.6631 195.001 34.862 194.802 35.0476C194.607 35.2299 194.36 35.3774 194.062 35.4901C193.767 35.5994 193.42 35.6541 193.023 35.6541ZM193.49 34.3317C193.851 34.3317 194.164 34.2604 194.43 34.1179C194.695 33.9721 194.898 33.7798 195.041 33.5412C195.187 33.3026 195.26 33.0424 195.26 32.7607V31.8608C195.203 31.9072 195.107 31.9503 194.971 31.9901C194.839 32.0298 194.69 32.0646 194.524 32.0945C194.358 32.1243 194.194 32.1508 194.032 32.174C193.869 32.1972 193.729 32.2171 193.609 32.2337C193.341 32.2701 193.1 32.3298 192.888 32.4126C192.676 32.4955 192.509 32.6115 192.386 32.7607C192.264 32.9065 192.202 33.0954 192.202 33.3274C192.202 33.6589 192.323 33.9091 192.565 34.0781C192.807 34.2472 193.115 34.3317 193.49 34.3317ZM198.864 35.5V27.8636H200.609V29.1364H200.689C200.828 28.6955 201.067 28.3558 201.405 28.1172C201.746 27.8752 202.135 27.7543 202.573 27.7543C202.672 27.7543 202.783 27.7592 202.906 27.7692C203.032 27.7758 203.136 27.7874 203.219 27.804V29.4595C203.143 29.433 203.022 29.4098 202.856 29.3899C202.694 29.3667 202.537 29.3551 202.384 29.3551C202.056 29.3551 201.761 29.4264 201.499 29.5689C201.241 29.7081 201.037 29.902 200.888 30.1506C200.738 30.3991 200.664 30.6858 200.664 31.0107V35.5H198.864ZM206.934 35.6342C206.334 35.6342 205.797 35.4801 205.324 35.1719C204.85 34.8636 204.475 34.4162 204.2 33.8295C203.925 33.2429 203.787 32.5303 203.787 31.6918C203.787 30.8433 203.926 30.1274 204.205 29.544C204.487 28.9574 204.866 28.5149 205.343 28.2166C205.821 27.915 206.353 27.7642 206.939 27.7642C207.387 27.7642 207.755 27.8404 208.043 27.9929C208.331 28.142 208.56 28.3227 208.729 28.5348C208.898 28.7436 209.029 28.9408 209.122 29.1264H209.196V25.3182H211.001V35.5H209.231V34.2969H209.122C209.029 34.4825 208.895 34.6797 208.719 34.8885C208.543 35.094 208.311 35.2696 208.023 35.4155C207.735 35.5613 207.372 35.6342 206.934 35.6342ZM207.436 34.1577C207.818 34.1577 208.142 34.0549 208.411 33.8494C208.679 33.6406 208.883 33.3506 209.022 32.9794C209.162 32.6082 209.231 32.1757 209.231 31.6818C209.231 31.188 209.162 30.7588 209.022 30.3942C208.886 30.0296 208.684 29.7462 208.416 29.544C208.151 29.3419 207.824 29.2408 207.436 29.2408C207.035 29.2408 206.701 29.3452 206.432 29.554C206.164 29.7628 205.962 30.0511 205.826 30.419C205.69 30.7869 205.622 31.2079 205.622 31.6818C205.622 32.1591 205.69 32.585 205.826 32.9595C205.965 33.3307 206.169 33.6241 206.437 33.8395C206.709 34.0516 207.042 34.1577 207.436 34.1577Z" fill="black"/>
<path d="M136.375 58.5H133.233V48.3182H136.514C137.502 48.3182 138.347 48.522 139.05 48.9297C139.752 49.334 140.291 49.9157 140.665 50.6747C141.04 51.4304 141.227 52.3352 141.227 53.3892C141.227 54.4498 141.038 55.3629 140.661 56.1286C140.283 56.8909 139.732 57.4775 139.01 57.8885C138.287 58.2962 137.409 58.5 136.375 58.5ZM134.466 57.4062H136.295C137.137 57.4062 137.835 57.2438 138.388 56.919C138.942 56.5942 139.355 56.1319 139.626 55.532C139.898 54.9321 140.034 54.2178 140.034 53.3892C140.034 52.5672 139.9 51.8596 139.631 51.2663C139.363 50.6697 138.962 50.2124 138.428 49.8942C137.895 49.5727 137.23 49.4119 136.435 49.4119H134.466V57.4062ZM146.338 58.6591C145.602 58.6591 144.968 58.4967 144.434 58.1719C143.904 57.8438 143.494 57.3864 143.206 56.7997C142.921 56.2098 142.778 55.5237 142.778 54.7415C142.778 53.9593 142.921 53.2699 143.206 52.6733C143.494 52.0734 143.895 51.6061 144.409 51.2713C144.926 50.9332 145.529 50.7642 146.219 50.7642C146.616 50.7642 147.009 50.8305 147.397 50.9631C147.785 51.0956 148.138 51.3111 148.456 51.6094C148.774 51.9044 149.028 52.2955 149.217 52.7827C149.406 53.2699 149.5 53.8698 149.5 54.5824V55.0795H143.614V54.0653H148.307C148.307 53.6345 148.221 53.25 148.048 52.9119C147.879 52.5739 147.637 52.3071 147.322 52.1115C147.011 51.916 146.643 51.8182 146.219 51.8182C145.751 51.8182 145.347 51.9342 145.006 52.1662C144.668 52.3949 144.407 52.6932 144.225 53.0611C144.043 53.429 143.952 53.8234 143.952 54.2443V54.9205C143.952 55.4972 144.051 55.986 144.25 56.3871C144.452 56.7848 144.732 57.0881 145.09 57.2969C145.448 57.5024 145.864 57.6051 146.338 57.6051C146.646 57.6051 146.925 57.562 147.173 57.4759C147.425 57.3864 147.642 57.2538 147.825 57.0781C148.007 56.8991 148.148 56.6771 148.247 56.4119L149.381 56.7301C149.261 57.1146 149.061 57.4527 148.779 57.7443C148.497 58.0327 148.149 58.258 147.735 58.4205C147.321 58.5795 146.855 58.6591 146.338 58.6591ZM151.444 58.5V48.3182H152.617V52.0767H152.717C152.803 51.9441 152.922 51.7751 153.075 51.5696C153.23 51.3608 153.452 51.1752 153.741 51.0128C154.032 50.8471 154.427 50.7642 154.924 50.7642C155.567 50.7642 156.134 50.925 156.624 51.2464C157.115 51.5679 157.498 52.0237 157.773 52.6136C158.048 53.2036 158.185 53.8996 158.185 54.7017C158.185 55.5104 158.048 56.2114 157.773 56.8047C157.498 57.3946 157.116 57.852 156.629 58.1768C156.142 58.4983 155.58 58.6591 154.944 58.6591C154.453 58.6591 154.061 58.5779 153.766 58.4155C153.471 58.2498 153.244 58.0625 153.085 57.8537C152.925 57.6416 152.803 57.4659 152.717 57.3267H152.577V58.5H151.444ZM152.597 54.6818C152.597 55.2585 152.682 55.7673 152.851 56.2081C153.02 56.6456 153.267 56.9886 153.592 57.2372C153.916 57.4825 154.314 57.6051 154.785 57.6051C155.275 57.6051 155.685 57.4759 156.013 57.2173C156.344 56.9555 156.593 56.6042 156.759 56.1634C156.928 55.7192 157.012 55.2254 157.012 54.6818C157.012 54.1449 156.929 53.661 156.763 53.2301C156.601 52.7959 156.354 52.4529 156.023 52.201C155.695 51.9458 155.282 51.8182 154.785 51.8182C154.308 51.8182 153.906 51.9392 153.582 52.1811C153.257 52.4197 153.012 52.7545 152.846 53.1854C152.68 53.6129 152.597 54.1117 152.597 54.6818ZM159.98 58.5V50.8636H161.153V58.5H159.98ZM160.577 49.5909C160.348 49.5909 160.151 49.513 159.985 49.3572C159.823 49.2015 159.741 49.0142 159.741 48.7955C159.741 48.5767 159.823 48.3894 159.985 48.2337C160.151 48.0779 160.348 48 160.577 48C160.805 48 161.001 48.0779 161.163 48.2337C161.329 48.3894 161.412 48.5767 161.412 48.7955C161.412 49.0142 161.329 49.2015 161.163 49.3572C161.001 49.513 160.805 49.5909 160.577 49.5909ZM166.623 50.8636V51.858H162.666V50.8636H166.623ZM163.819 49.0341H164.993V56.3125C164.993 56.6439 165.041 56.8925 165.137 57.0582C165.236 57.2206 165.362 57.33 165.515 57.3864C165.671 57.4394 165.835 57.4659 166.007 57.4659C166.136 57.4659 166.242 57.4593 166.325 57.446C166.408 57.4295 166.474 57.4162 166.524 57.4062L166.763 58.4602C166.683 58.4901 166.572 58.5199 166.43 58.5497C166.287 58.5829 166.106 58.5994 165.888 58.5994C165.556 58.5994 165.231 58.5282 164.913 58.3857C164.598 58.2431 164.336 58.026 164.128 57.7344C163.922 57.4427 163.819 57.0748 163.819 56.6307V49.0341ZM170.337 54.0455L170.417 51.858L168.567 53.0312L168.09 52.196L170.039 51.1818L168.09 50.1676L168.567 49.3324L170.417 50.5057L170.337 48.3182H171.292L171.212 50.5057L173.062 49.3324L173.539 50.1676L171.59 51.1818L173.539 52.196L173.062 53.0312L171.212 51.858L171.292 54.0455H170.337ZM177.337 54.0455L177.417 51.858L175.567 53.0312L175.09 52.196L177.039 51.1818L175.09 50.1676L175.567 49.3324L177.417 50.5057L177.337 48.3182H178.292L178.212 50.5057L180.062 49.3324L180.539 50.1676L178.59 51.1818L180.539 52.196L180.062 53.0312L178.212 51.858L178.292 54.0455H177.337ZM184.337 54.0455L184.417 51.858L182.567 53.0312L182.09 52.196L184.039 51.1818L182.09 50.1676L182.567 49.3324L184.417 50.5057L184.337 48.3182H185.292L185.212 50.5057L187.062 49.3324L187.539 50.1676L185.59 51.1818L187.539 52.196L187.062 53.0312L185.212 51.858L185.292 54.0455H184.337ZM191.337 54.0455L191.417 51.858L189.567 53.0312L189.09 52.196L191.039 51.1818L189.09 50.1676L189.567 49.3324L191.417 50.5057L191.337 48.3182H192.292L192.212 50.5057L194.062 49.3324L194.539 50.1676L192.59 51.1818L194.539 52.196L194.062 53.0312L192.212 51.858L192.292 54.0455H191.337ZM199.55 58.6392C198.967 58.6392 198.442 58.5232 197.974 58.2912C197.507 58.0592 197.132 57.741 196.851 57.3366C196.569 56.9323 196.415 56.4716 196.388 55.9545H197.581C197.628 56.4152 197.837 56.7964 198.208 57.098C198.582 57.3963 199.03 57.5455 199.55 57.5455C199.968 57.5455 200.339 57.4477 200.664 57.2521C200.992 57.0566 201.249 56.7881 201.434 56.4467C201.623 56.102 201.718 55.7126 201.718 55.2784C201.718 54.8343 201.62 54.4382 201.425 54.0902C201.232 53.7389 200.967 53.4621 200.629 53.2599C200.291 53.0578 199.905 52.955 199.471 52.9517C199.159 52.9484 198.839 52.9964 198.511 53.0959C198.183 53.192 197.913 53.3163 197.701 53.4688L196.547 53.3295L197.164 48.3182H202.454V49.4119H198.198L197.84 52.4148H197.9C198.108 52.2491 198.37 52.1115 198.685 52.0021C199 51.8928 199.328 51.8381 199.67 51.8381C200.293 51.8381 200.848 51.9872 201.335 52.2855C201.826 52.5805 202.21 52.9848 202.488 53.4986C202.77 54.0123 202.911 54.599 202.911 55.2585C202.911 55.9081 202.765 56.4882 202.474 56.9986C202.185 57.5057 201.787 57.9067 201.28 58.2017C200.773 58.4934 200.197 58.6392 199.55 58.6392ZM208.326 58.6392C207.67 58.6392 207.085 58.5265 206.571 58.3011C206.061 58.0758 205.655 57.7625 205.353 57.3615C205.055 56.9571 204.893 56.4882 204.866 55.9545H206.119C206.145 56.2827 206.258 56.5661 206.457 56.8047C206.656 57.04 206.916 57.2223 207.238 57.3516C207.559 57.4808 207.915 57.5455 208.306 57.5455C208.744 57.5455 209.132 57.4692 209.47 57.3168C209.808 57.1643 210.073 56.9522 210.265 56.6804C210.458 56.4086 210.554 56.0938 210.554 55.7358C210.554 55.3613 210.461 55.0315 210.275 54.7464C210.09 54.4581 209.818 54.2327 209.46 54.0703C209.102 53.9079 208.664 53.8267 208.147 53.8267H207.332V52.733H208.147C208.552 52.733 208.906 52.66 209.211 52.5142C209.52 52.3684 209.76 52.1629 209.932 51.8977C210.108 51.6326 210.196 51.321 210.196 50.9631C210.196 50.6184 210.119 50.3184 209.967 50.0632C209.815 49.808 209.599 49.6091 209.321 49.4666C209.046 49.3241 208.721 49.2528 208.346 49.2528C207.995 49.2528 207.663 49.3175 207.352 49.4467C207.044 49.5727 206.792 49.7566 206.596 49.9986C206.401 50.2372 206.295 50.5256 206.278 50.8636H205.085C205.105 50.33 205.266 49.8627 205.567 49.4616C205.869 49.0573 206.263 48.7424 206.75 48.517C207.241 48.2917 207.779 48.179 208.366 48.179C208.996 48.179 209.536 48.3066 209.987 48.5618C210.438 48.8137 210.784 49.1468 211.026 49.5611C211.268 49.9754 211.389 50.4228 211.389 50.9034C211.389 51.4768 211.238 51.9657 210.936 52.37C210.638 52.7744 210.232 53.0545 209.718 53.2102V53.2898C210.361 53.3958 210.864 53.6693 211.225 54.1101C211.586 54.5476 211.767 55.0895 211.767 55.7358C211.767 56.2893 211.616 56.7865 211.314 57.2273C211.016 57.6648 210.608 58.0095 210.091 58.2614C209.574 58.5133 208.986 58.6392 208.326 58.6392ZM213.561 56.4119V55.3977L218.036 48.3182H218.772V49.8892H218.275L214.894 55.2386V55.3182H220.919V56.4119H213.561ZM218.354 58.5V56.1037V55.6314V48.3182H219.527V58.5H218.354ZM222.782 58.5V57.6051L226.143 53.9261C226.538 53.4953 226.863 53.1207 227.118 52.8026C227.373 52.4811 227.562 52.1795 227.684 51.8977C227.81 51.6127 227.873 51.3144 227.873 51.0028C227.873 50.6449 227.787 50.335 227.615 50.0732C227.446 49.8113 227.214 49.6091 226.919 49.4666C226.624 49.3241 226.292 49.2528 225.925 49.2528C225.533 49.2528 225.192 49.334 224.9 49.4964C224.612 49.6555 224.388 49.8793 224.229 50.1676C224.073 50.456 223.996 50.794 223.996 51.1818H222.822C222.822 50.5852 222.96 50.0616 223.235 49.6108C223.51 49.16 223.885 48.8087 224.358 48.5568C224.836 48.3049 225.371 48.179 225.964 48.179C226.561 48.179 227.09 48.3049 227.55 48.5568C228.011 48.8087 228.372 49.1484 228.634 49.576C228.896 50.0036 229.027 50.4792 229.027 51.0028C229.027 51.3774 228.959 51.7436 228.823 52.1016C228.69 52.4562 228.458 52.8523 228.127 53.2898C227.799 53.724 227.343 54.2543 226.76 54.8807L224.473 57.3267V57.4062H229.206V58.5H222.782Z" fill="black"/>
<rect x="0.5" y="106.5" width="333" height="82" rx="10.5" stroke="#BCBEC0"/>
<rect x="50.5" y="128.5" width="49" height="38" rx="11.5" stroke="#BCBEC0"/>
<g clip-path="url(#clip0_22_391)">
<path d="M75.7729 144.776C75.7472 146.857 77.577 148.018 78.9553 148.709C80.3713 149.417 80.847 149.871 80.8414 150.505C80.8308 151.475 79.7118 151.903 78.6647 151.919C76.8378 151.948 75.7755 151.412 74.9311 151.007L74.273 154.173C75.1202 154.574 76.6891 154.924 78.3159 154.939C82.1348 154.939 84.6332 153.001 84.6467 149.997C84.6616 146.183 79.516 145.972 79.5512 144.267C79.5633 143.75 80.043 143.199 81.0942 143.059C81.6145 142.988 83.0508 142.933 84.6792 143.704L85.3184 140.641C84.4426 140.313 83.3171 139.999 81.9158 139.999C78.3214 139.999 75.7933 141.964 75.7729 144.776ZM91.4598 140.263C90.7625 140.263 90.1748 140.682 89.9126 141.323L84.4576 154.714H88.2736L89.033 152.557H93.6961L94.1366 154.714H97.5L94.565 140.263H91.4598ZM91.9937 144.167L93.0949 149.594H90.0789L91.9937 144.167ZM71.1462 140.263L68.1382 154.714H71.7746L74.7812 140.263L71.1462 140.263ZM65.7667 140.263L61.9818 150.099L60.4508 141.736C60.2711 140.802 59.5617 140.263 58.7738 140.263H52.5867L52.5 140.683C53.7702 140.966 55.2134 141.423 56.0877 141.912C56.6228 142.211 56.7754 142.472 56.9511 143.182L59.851 154.714H63.6938L69.5852 140.263L65.7667 140.263Z" fill="url(#paint0_linear_22_391)"/>
</g>
<path d="M126.366 131.318L129.016 139.332H129.121L131.766 131.318H133.794L130.205 141.5H127.928L124.343 131.318H126.366ZM135.056 141.5V133.864H136.855V141.5H135.056ZM135.96 132.78C135.675 132.78 135.43 132.685 135.225 132.496C135.019 132.304 134.916 132.074 134.916 131.805C134.916 131.534 135.019 131.303 135.225 131.114C135.43 130.922 135.675 130.826 135.96 130.826C136.249 130.826 136.494 130.922 136.696 131.114C136.902 131.303 137.004 131.534 137.004 131.805C137.004 132.074 136.902 132.304 136.696 132.496C136.494 132.685 136.249 132.78 135.96 132.78ZM144.741 135.882L143.101 136.061C143.054 135.895 142.973 135.74 142.857 135.594C142.745 135.448 142.592 135.33 142.4 135.241C142.208 135.151 141.972 135.107 141.694 135.107C141.319 135.107 141.004 135.188 140.749 135.35C140.497 135.513 140.373 135.723 140.376 135.982C140.373 136.204 140.454 136.384 140.62 136.523C140.789 136.663 141.067 136.777 141.455 136.866L142.758 137.145C143.48 137.301 144.017 137.548 144.369 137.886C144.723 138.224 144.902 138.666 144.906 139.213C144.902 139.694 144.761 140.118 144.483 140.486C144.208 140.85 143.825 141.135 143.335 141.341C142.844 141.546 142.281 141.649 141.644 141.649C140.71 141.649 139.957 141.454 139.387 141.062C138.817 140.668 138.477 140.12 138.368 139.417L140.123 139.248C140.202 139.593 140.371 139.853 140.63 140.028C140.888 140.204 141.225 140.292 141.639 140.292C142.067 140.292 142.41 140.204 142.668 140.028C142.93 139.853 143.061 139.636 143.061 139.377C143.061 139.158 142.977 138.978 142.808 138.835C142.642 138.693 142.383 138.583 142.032 138.507L140.729 138.234C139.997 138.081 139.455 137.824 139.104 137.463C138.752 137.098 138.578 136.638 138.582 136.081C138.578 135.61 138.706 135.203 138.964 134.858C139.226 134.51 139.589 134.241 140.053 134.053C140.521 133.86 141.059 133.764 141.669 133.764C142.564 133.764 143.268 133.955 143.782 134.336C144.299 134.717 144.619 135.232 144.741 135.882ZM148.587 141.654C148.103 141.654 147.667 141.568 147.279 141.396C146.895 141.22 146.59 140.961 146.365 140.62C146.143 140.279 146.032 139.858 146.032 139.357C146.032 138.926 146.111 138.57 146.27 138.288C146.429 138.007 146.646 137.781 146.922 137.612C147.197 137.443 147.507 137.316 147.851 137.229C148.199 137.14 148.559 137.075 148.93 137.036C149.377 136.989 149.74 136.948 150.019 136.911C150.297 136.871 150.499 136.812 150.625 136.732C150.755 136.649 150.819 136.522 150.819 136.349V136.32C150.819 135.945 150.708 135.655 150.486 135.45C150.264 135.244 149.944 135.141 149.527 135.141C149.086 135.141 148.736 135.237 148.478 135.43C148.222 135.622 148.05 135.849 147.961 136.111L146.28 135.872C146.413 135.408 146.632 135.02 146.936 134.709C147.241 134.394 147.614 134.159 148.055 134.003C148.496 133.844 148.983 133.764 149.517 133.764C149.885 133.764 150.251 133.807 150.615 133.893C150.98 133.98 151.313 134.122 151.615 134.321C151.916 134.517 152.158 134.783 152.341 135.121C152.526 135.46 152.619 135.882 152.619 136.389V141.5H150.889V140.451H150.829C150.72 140.663 150.566 140.862 150.367 141.048C150.171 141.23 149.924 141.377 149.626 141.49C149.331 141.599 148.985 141.654 148.587 141.654ZM149.054 140.332C149.416 140.332 149.729 140.26 149.994 140.118C150.259 139.972 150.463 139.78 150.605 139.541C150.751 139.303 150.824 139.042 150.824 138.761V137.861C150.768 137.907 150.672 137.95 150.536 137.99C150.403 138.03 150.254 138.065 150.088 138.094C149.923 138.124 149.759 138.151 149.596 138.174C149.434 138.197 149.293 138.217 149.174 138.234C148.905 138.27 148.665 138.33 148.453 138.413C148.241 138.496 148.073 138.612 147.951 138.761C147.828 138.906 147.767 139.095 147.767 139.327C147.767 139.659 147.888 139.909 148.13 140.078C148.372 140.247 148.68 140.332 149.054 140.332Z" fill="black"/>
<path d="M133.426 157.5H132.193C132.12 157.145 131.993 156.834 131.81 156.565C131.631 156.297 131.413 156.071 131.154 155.889C130.899 155.704 130.616 155.564 130.304 155.472C129.992 155.379 129.668 155.332 129.33 155.332C128.713 155.332 128.155 155.488 127.654 155.8C127.157 156.111 126.761 156.57 126.466 157.177C126.174 157.783 126.028 158.527 126.028 159.409C126.028 160.291 126.174 161.035 126.466 161.641C126.761 162.248 127.157 162.707 127.654 163.018C128.155 163.33 128.713 163.486 129.33 163.486C129.668 163.486 129.992 163.439 130.304 163.347C130.616 163.254 130.899 163.116 131.154 162.934C131.413 162.748 131.631 162.521 131.81 162.253C131.993 161.981 132.12 161.67 132.193 161.318H133.426C133.333 161.839 133.164 162.304 132.919 162.715C132.674 163.126 132.369 163.476 132.004 163.764C131.64 164.049 131.23 164.266 130.776 164.415C130.326 164.565 129.843 164.639 129.33 164.639C128.461 164.639 127.689 164.427 127.013 164.003C126.337 163.579 125.805 162.975 125.417 162.193C125.029 161.411 124.835 160.483 124.835 159.409C124.835 158.335 125.029 157.407 125.417 156.625C125.805 155.843 126.337 155.24 127.013 154.815C127.689 154.391 128.461 154.179 129.33 154.179C129.843 154.179 130.326 154.254 130.776 154.403C131.23 154.552 131.64 154.771 132.004 155.059C132.369 155.344 132.674 155.692 132.919 156.103C133.164 156.511 133.333 156.976 133.426 157.5ZM135.259 164.5V156.864H136.393V158.017H136.472C136.612 157.639 136.864 157.333 137.228 157.097C137.593 156.862 138.004 156.744 138.461 156.744C138.547 156.744 138.655 156.746 138.784 156.749C138.914 156.753 139.011 156.758 139.078 156.764V157.957C139.038 157.947 138.947 157.933 138.804 157.913C138.665 157.889 138.517 157.878 138.362 157.878C137.99 157.878 137.659 157.956 137.367 158.112C137.079 158.264 136.85 158.476 136.681 158.748C136.516 159.016 136.433 159.323 136.433 159.668V164.5H135.259ZM143.438 164.659C142.702 164.659 142.067 164.497 141.534 164.172C141.003 163.844 140.594 163.386 140.306 162.8C140.021 162.21 139.878 161.524 139.878 160.741C139.878 159.959 140.021 159.27 140.306 158.673C140.594 158.073 140.995 157.606 141.509 157.271C142.026 156.933 142.629 156.764 143.318 156.764C143.716 156.764 144.109 156.83 144.497 156.963C144.884 157.096 145.237 157.311 145.556 157.609C145.874 157.904 146.127 158.295 146.316 158.783C146.505 159.27 146.6 159.87 146.6 160.582V161.08H140.713V160.065H145.406C145.406 159.634 145.32 159.25 145.148 158.912C144.979 158.574 144.737 158.307 144.422 158.112C144.11 157.916 143.743 157.818 143.318 157.818C142.851 157.818 142.447 157.934 142.105 158.166C141.767 158.395 141.507 158.693 141.325 159.061C141.142 159.429 141.051 159.823 141.051 160.244V160.92C141.051 161.497 141.151 161.986 141.35 162.387C141.552 162.785 141.832 163.088 142.19 163.297C142.548 163.502 142.964 163.605 143.438 163.605C143.746 163.605 144.024 163.562 144.273 163.476C144.525 163.386 144.742 163.254 144.924 163.078C145.106 162.899 145.247 162.677 145.347 162.412L146.48 162.73C146.361 163.115 146.16 163.453 145.879 163.744C145.597 164.033 145.249 164.258 144.835 164.42C144.42 164.58 143.955 164.659 143.438 164.659ZM151.268 164.659C150.632 164.659 150.07 164.498 149.583 164.177C149.095 163.852 148.714 163.395 148.439 162.805C148.164 162.211 148.026 161.51 148.026 160.702C148.026 159.9 148.164 159.204 148.439 158.614C148.714 158.024 149.097 157.568 149.588 157.246C150.078 156.925 150.645 156.764 151.288 156.764C151.785 156.764 152.178 156.847 152.466 157.013C152.758 157.175 152.98 157.361 153.132 157.57C153.288 157.775 153.409 157.944 153.495 158.077H153.595V154.318H154.768V164.5H153.634V163.327H153.495C153.409 163.466 153.286 163.642 153.127 163.854C152.968 164.062 152.741 164.25 152.446 164.415C152.151 164.578 151.758 164.659 151.268 164.659ZM151.427 163.605C151.898 163.605 152.295 163.482 152.62 163.237C152.945 162.989 153.192 162.646 153.361 162.208C153.53 161.767 153.615 161.259 153.615 160.682C153.615 160.112 153.532 159.613 153.366 159.185C153.2 158.754 152.955 158.42 152.63 158.181C152.305 157.939 151.904 157.818 151.427 157.818C150.93 157.818 150.516 157.946 150.184 158.201C149.856 158.453 149.609 158.796 149.443 159.23C149.281 159.661 149.2 160.145 149.2 160.682C149.2 161.225 149.283 161.719 149.448 162.163C149.617 162.604 149.866 162.955 150.194 163.217C150.526 163.476 150.936 163.605 151.427 163.605ZM157.08 164.5V156.864H158.253V164.5H157.08ZM157.676 155.591C157.448 155.591 157.25 155.513 157.085 155.357C156.922 155.201 156.841 155.014 156.841 154.795C156.841 154.577 156.922 154.389 157.085 154.234C157.25 154.078 157.448 154 157.676 154C157.905 154 158.101 154.078 158.263 154.234C158.429 154.389 158.512 154.577 158.512 154.795C158.512 155.014 158.429 155.201 158.263 155.357C158.101 155.513 157.905 155.591 157.676 155.591ZM163.723 156.864V157.858H159.766V156.864H163.723ZM160.919 155.034H162.092V162.312C162.092 162.644 162.14 162.893 162.237 163.058C162.336 163.221 162.462 163.33 162.614 163.386C162.77 163.439 162.934 163.466 163.107 163.466C163.236 163.466 163.342 163.459 163.425 163.446C163.508 163.429 163.574 163.416 163.624 163.406L163.862 164.46C163.783 164.49 163.672 164.52 163.529 164.55C163.387 164.583 163.206 164.599 162.987 164.599C162.656 164.599 162.331 164.528 162.013 164.386C161.698 164.243 161.436 164.026 161.227 163.734C161.022 163.443 160.919 163.075 160.919 162.631V155.034ZM167.437 160.045L167.516 157.858L165.667 159.031L165.19 158.196L167.138 157.182L165.19 156.168L165.667 155.332L167.516 156.506L167.437 154.318H168.391L168.312 156.506L170.161 155.332L170.638 156.168L168.69 157.182L170.638 158.196L170.161 159.031L168.312 157.858L168.391 160.045H167.437ZM174.437 160.045L174.516 157.858L172.667 159.031L172.19 158.196L174.138 157.182L172.19 156.168L172.667 155.332L174.516 156.506L174.437 154.318H175.391L175.312 156.506L177.161 155.332L177.638 156.168L175.69 157.182L177.638 158.196L177.161 159.031L175.312 157.858L175.391 160.045H174.437ZM181.437 160.045L181.516 157.858L179.667 159.031L179.19 158.196L181.138 157.182L179.19 156.168L179.667 155.332L181.516 156.506L181.437 154.318H182.391L182.312 156.506L184.161 155.332L184.638 156.168L182.69 157.182L184.638 158.196L184.161 159.031L182.312 157.858L182.391 160.045H181.437ZM188.437 160.045L188.516 157.858L186.667 159.031L186.19 158.196L188.138 157.182L186.19 156.168L186.667 155.332L188.516 156.506L188.437 154.318H189.391L189.312 156.506L191.161 155.332L191.638 156.168L189.69 157.182L191.638 158.196L191.161 159.031L189.312 157.858L189.391 160.045H188.437ZM196.729 164.639C196.047 164.639 195.443 164.518 194.92 164.276C194.399 164.031 193.993 163.695 193.702 163.267C193.41 162.836 193.266 162.346 193.269 161.795C193.266 161.365 193.35 160.967 193.523 160.602C193.695 160.234 193.93 159.928 194.229 159.683C194.53 159.434 194.867 159.277 195.238 159.21V159.151C194.751 159.025 194.363 158.751 194.075 158.33C193.786 157.906 193.644 157.424 193.647 156.884C193.644 156.366 193.775 155.904 194.04 155.496C194.305 155.089 194.67 154.767 195.134 154.532C195.601 154.297 196.133 154.179 196.729 154.179C197.319 154.179 197.846 154.297 198.31 154.532C198.774 154.767 199.139 155.089 199.404 155.496C199.673 155.904 199.808 156.366 199.812 156.884C199.808 157.424 199.661 157.906 199.369 158.33C199.081 158.751 198.698 159.025 198.221 159.151V159.21C198.589 159.277 198.92 159.434 199.215 159.683C199.51 159.928 199.746 160.234 199.921 160.602C200.097 160.967 200.186 161.365 200.19 161.795C200.186 162.346 200.037 162.836 199.742 163.267C199.451 163.695 199.045 164.031 198.524 164.276C198.007 164.518 197.409 164.639 196.729 164.639ZM196.729 163.545C197.19 163.545 197.588 163.471 197.923 163.322C198.257 163.173 198.516 162.962 198.698 162.69C198.88 162.419 198.973 162.1 198.977 161.736C198.973 161.351 198.874 161.012 198.678 160.717C198.483 160.422 198.216 160.19 197.878 160.021C197.543 159.852 197.16 159.767 196.729 159.767C196.295 159.767 195.907 159.852 195.566 160.021C195.228 160.19 194.961 160.422 194.766 160.717C194.573 161.012 194.479 161.351 194.482 161.736C194.479 162.1 194.567 162.419 194.746 162.69C194.928 162.962 195.188 163.173 195.526 163.322C195.864 163.471 196.265 163.545 196.729 163.545ZM196.729 158.713C197.094 158.713 197.417 158.64 197.699 158.494C197.984 158.348 198.208 158.145 198.37 157.883C198.532 157.621 198.615 157.314 198.619 156.963C198.615 156.618 198.534 156.318 198.375 156.063C198.216 155.805 197.996 155.606 197.714 155.467C197.432 155.324 197.104 155.253 196.729 155.253C196.348 155.253 196.015 155.324 195.73 155.467C195.445 155.606 195.225 155.805 195.069 156.063C194.913 156.318 194.837 156.618 194.84 156.963C194.837 157.314 194.915 157.621 195.074 157.883C195.236 158.145 195.46 158.348 195.745 158.494C196.03 158.64 196.358 158.713 196.729 158.713ZM202.413 164.5L206.967 155.491V155.412H201.717V154.318H208.24V155.472L203.706 164.5H202.413ZM213.138 164.639C212.555 164.639 212.029 164.523 211.562 164.291C211.095 164.059 210.72 163.741 210.439 163.337C210.157 162.932 210.003 162.472 209.976 161.955H211.169C211.216 162.415 211.425 162.796 211.796 163.098C212.17 163.396 212.618 163.545 213.138 163.545C213.556 163.545 213.927 163.448 214.252 163.252C214.58 163.057 214.837 162.788 215.022 162.447C215.211 162.102 215.306 161.713 215.306 161.278C215.306 160.834 215.208 160.438 215.012 160.09C214.82 159.739 214.555 159.462 214.217 159.26C213.879 159.058 213.493 158.955 213.059 158.952C212.747 158.948 212.427 158.996 212.099 159.096C211.771 159.192 211.501 159.316 211.289 159.469L210.135 159.33L210.752 154.318H216.042V155.412H211.786L211.428 158.415H211.488C211.696 158.249 211.958 158.112 212.273 158.002C212.588 157.893 212.916 157.838 213.257 157.838C213.881 157.838 214.436 157.987 214.923 158.286C215.413 158.58 215.798 158.985 216.076 159.499C216.358 160.012 216.499 160.599 216.499 161.259C216.499 161.908 216.353 162.488 216.061 162.999C215.773 163.506 215.375 163.907 214.868 164.202C214.361 164.493 213.784 164.639 213.138 164.639ZM218.235 162.412V161.398L222.71 154.318H223.445V155.889H222.948L219.568 161.239V161.318H225.593V162.412H218.235ZM223.028 164.5V162.104V161.631V154.318H224.201V164.5H223.028Z" fill="black"/>
<path d="M114.062 223.261V215.58H115.591V223.261H114.062ZM110.989 220.182V218.653H118.67V220.182H110.989Z" fill="black"/>
<path d="M129.151 225H127.858L131.597 214.818H132.869L136.608 225H135.315L132.273 216.429H132.193L129.151 225ZM129.628 221.023H134.838V222.116H129.628V221.023ZM140.918 225.159C140.282 225.159 139.72 224.998 139.233 224.677C138.746 224.352 138.365 223.895 138.089 223.305C137.814 222.711 137.677 222.01 137.677 221.202C137.677 220.4 137.814 219.704 138.089 219.114C138.365 218.524 138.747 218.068 139.238 217.746C139.728 217.425 140.295 217.264 140.938 217.264C141.435 217.264 141.828 217.347 142.116 217.513C142.408 217.675 142.63 217.861 142.783 218.07C142.938 218.275 143.059 218.444 143.146 218.577H143.245V214.818H144.418V225H143.285V223.827H143.146C143.059 223.966 142.937 224.142 142.778 224.354C142.619 224.562 142.392 224.75 142.097 224.915C141.802 225.078 141.409 225.159 140.918 225.159ZM141.077 224.105C141.548 224.105 141.946 223.982 142.271 223.737C142.595 223.489 142.842 223.146 143.011 222.708C143.18 222.267 143.265 221.759 143.265 221.182C143.265 220.612 143.182 220.113 143.016 219.685C142.851 219.254 142.605 218.92 142.281 218.681C141.956 218.439 141.555 218.318 141.077 218.318C140.58 218.318 140.166 218.446 139.835 218.701C139.506 218.953 139.259 219.296 139.094 219.73C138.931 220.161 138.85 220.645 138.85 221.182C138.85 221.725 138.933 222.219 139.099 222.663C139.268 223.104 139.516 223.455 139.844 223.717C140.176 223.976 140.587 224.105 141.077 224.105ZM149.614 225.159C148.977 225.159 148.415 224.998 147.928 224.677C147.441 224.352 147.06 223.895 146.785 223.305C146.51 222.711 146.372 222.01 146.372 221.202C146.372 220.4 146.51 219.704 146.785 219.114C147.06 218.524 147.443 218.068 147.933 217.746C148.424 217.425 148.991 217.264 149.634 217.264C150.131 217.264 150.523 217.347 150.812 217.513C151.103 217.675 151.326 217.861 151.478 218.07C151.634 218.275 151.755 218.444 151.841 218.577H151.94V214.818H153.114V225H151.98V223.827H151.841C151.755 223.966 151.632 224.142 151.473 224.354C151.314 224.562 151.087 224.75 150.792 224.915C150.497 225.078 150.104 225.159 149.614 225.159ZM149.773 224.105C150.243 224.105 150.641 223.982 150.966 223.737C151.291 223.489 151.538 223.146 151.707 222.708C151.876 222.267 151.96 221.759 151.96 221.182C151.96 220.612 151.877 220.113 151.712 219.685C151.546 219.254 151.301 218.92 150.976 218.681C150.651 218.439 150.25 218.318 149.773 218.318C149.276 218.318 148.861 218.446 148.53 218.701C148.202 218.953 147.955 219.296 147.789 219.73C147.627 220.161 147.545 220.645 147.545 221.182C147.545 221.725 147.628 222.219 147.794 222.663C147.963 223.104 148.212 223.455 148.54 223.717C148.871 223.976 149.282 224.105 149.773 224.105ZM167.596 214.818V225H166.403L160.854 217.006H160.755V225H159.522V214.818H160.715L166.283 222.832H166.383V214.818H167.596ZM173.106 225.159C172.37 225.159 171.735 224.997 171.202 224.672C170.671 224.344 170.262 223.886 169.974 223.3C169.689 222.71 169.546 222.024 169.546 221.241C169.546 220.459 169.689 219.77 169.974 219.173C170.262 218.573 170.663 218.106 171.177 217.771C171.694 217.433 172.297 217.264 172.986 217.264C173.384 217.264 173.777 217.33 174.165 217.463C174.552 217.596 174.905 217.811 175.224 218.109C175.542 218.404 175.795 218.795 175.984 219.283C176.173 219.77 176.268 220.37 176.268 221.082V221.58H170.381V220.565H175.074C175.074 220.134 174.988 219.75 174.816 219.412C174.647 219.074 174.405 218.807 174.09 218.612C173.778 218.416 173.411 218.318 172.986 218.318C172.519 218.318 172.115 218.434 171.773 218.666C171.435 218.895 171.175 219.193 170.993 219.561C170.81 219.929 170.719 220.323 170.719 220.744V221.42C170.719 221.997 170.819 222.486 171.018 222.887C171.22 223.285 171.5 223.588 171.858 223.797C172.216 224.002 172.632 224.105 173.106 224.105C173.414 224.105 173.692 224.062 173.941 223.976C174.193 223.886 174.41 223.754 174.592 223.578C174.774 223.399 174.915 223.177 175.015 222.912L176.148 223.23C176.029 223.615 175.828 223.953 175.547 224.244C175.265 224.533 174.917 224.758 174.503 224.92C174.088 225.08 173.623 225.159 173.106 225.159ZM179.782 225L177.456 217.364H178.689L180.339 223.21H180.419L182.05 217.364H183.302L184.913 223.19H184.993L186.643 217.364H187.876L185.55 225H184.396L182.726 219.134H182.606L180.936 225H179.782ZM201.717 218H200.484C200.411 217.645 200.284 217.334 200.101 217.065C199.922 216.797 199.704 216.571 199.445 216.389C199.19 216.204 198.907 216.064 198.595 215.972C198.283 215.879 197.959 215.832 197.621 215.832C197.004 215.832 196.446 215.988 195.945 216.3C195.448 216.611 195.052 217.07 194.757 217.677C194.465 218.283 194.319 219.027 194.319 219.909C194.319 220.791 194.465 221.535 194.757 222.141C195.052 222.748 195.448 223.207 195.945 223.518C196.446 223.83 197.004 223.986 197.621 223.986C197.959 223.986 198.283 223.939 198.595 223.847C198.907 223.754 199.19 223.616 199.445 223.434C199.704 223.248 199.922 223.021 200.101 222.753C200.284 222.481 200.411 222.17 200.484 221.818H201.717C201.624 222.339 201.455 222.804 201.21 223.215C200.965 223.626 200.66 223.976 200.295 224.264C199.931 224.549 199.521 224.766 199.067 224.915C198.617 225.065 198.134 225.139 197.621 225.139C196.752 225.139 195.98 224.927 195.304 224.503C194.628 224.079 194.096 223.475 193.708 222.693C193.32 221.911 193.126 220.983 193.126 219.909C193.126 218.835 193.32 217.907 193.708 217.125C194.096 216.343 194.628 215.74 195.304 215.315C195.98 214.891 196.752 214.679 197.621 214.679C198.134 214.679 198.617 214.754 199.067 214.903C199.521 215.052 199.931 215.271 200.295 215.559C200.66 215.844 200.965 216.192 201.21 216.603C201.455 217.011 201.624 217.476 201.717 218ZM205.798 225.179C205.314 225.179 204.875 225.088 204.48 224.906C204.086 224.72 203.772 224.453 203.54 224.105C203.308 223.754 203.192 223.33 203.192 222.832C203.192 222.395 203.279 222.04 203.451 221.768C203.623 221.493 203.854 221.278 204.142 221.122C204.43 220.966 204.749 220.85 205.097 220.774C205.448 220.695 205.801 220.632 206.156 220.585C206.62 220.526 206.996 220.481 207.284 220.451C207.576 220.418 207.788 220.363 207.92 220.287C208.056 220.211 208.124 220.078 208.124 219.889V219.849C208.124 219.359 207.99 218.978 207.722 218.706C207.456 218.434 207.054 218.298 206.513 218.298C205.953 218.298 205.514 218.421 205.196 218.666C204.878 218.911 204.654 219.173 204.525 219.452L203.411 219.054C203.61 218.59 203.875 218.229 204.207 217.97C204.541 217.708 204.906 217.526 205.3 217.423C205.698 217.317 206.089 217.264 206.474 217.264C206.719 217.264 207.001 217.294 207.319 217.354C207.64 217.41 207.95 217.528 208.249 217.707C208.55 217.886 208.8 218.156 208.999 218.517C209.198 218.878 209.298 219.362 209.298 219.969V225H208.124V223.966H208.065C207.985 224.132 207.853 224.309 207.667 224.498C207.481 224.687 207.234 224.848 206.926 224.98C206.618 225.113 206.242 225.179 205.798 225.179ZM205.977 224.125C206.441 224.125 206.832 224.034 207.15 223.852C207.471 223.669 207.713 223.434 207.876 223.146C208.041 222.857 208.124 222.554 208.124 222.236V221.162C208.075 221.222 207.965 221.276 207.796 221.326C207.63 221.372 207.438 221.414 207.219 221.45C207.004 221.483 206.794 221.513 206.588 221.54C206.386 221.563 206.222 221.583 206.096 221.599C205.791 221.639 205.506 221.704 205.241 221.793C204.979 221.879 204.767 222.01 204.604 222.186C204.445 222.358 204.366 222.594 204.366 222.892C204.366 223.3 204.517 223.608 204.818 223.817C205.123 224.022 205.509 224.125 205.977 224.125ZM211.439 225V217.364H212.573V218.517H212.652C212.791 218.139 213.043 217.833 213.408 217.597C213.772 217.362 214.183 217.244 214.641 217.244C214.727 217.244 214.835 217.246 214.964 217.249C215.093 217.253 215.191 217.258 215.257 217.264V218.457C215.218 218.447 215.126 218.433 214.984 218.413C214.845 218.389 214.697 218.378 214.541 218.378C214.17 218.378 213.839 218.456 213.547 218.612C213.259 218.764 213.03 218.976 212.861 219.248C212.695 219.516 212.612 219.823 212.612 220.168V225H211.439ZM219.299 225.159C218.663 225.159 218.101 224.998 217.614 224.677C217.127 224.352 216.745 223.895 216.47 223.305C216.195 222.711 216.058 222.01 216.058 221.202C216.058 220.4 216.195 219.704 216.47 219.114C216.745 218.524 217.128 218.068 217.619 217.746C218.109 217.425 218.676 217.264 219.319 217.264C219.816 217.264 220.209 217.347 220.497 217.513C220.789 217.675 221.011 217.861 221.164 218.07C221.319 218.275 221.44 218.444 221.526 218.577H221.626V214.818H222.799V225H221.666V223.827H221.526C221.44 223.966 221.318 224.142 221.159 224.354C220.999 224.562 220.772 224.75 220.477 224.915C220.182 225.078 219.79 225.159 219.299 225.159ZM219.458 224.105C219.929 224.105 220.327 223.982 220.651 223.737C220.976 223.489 221.223 223.146 221.392 222.708C221.561 222.267 221.646 221.759 221.646 221.182C221.646 220.612 221.563 220.113 221.397 219.685C221.231 219.254 220.986 218.92 220.661 218.681C220.337 218.439 219.936 218.318 219.458 218.318C218.961 218.318 218.547 218.446 218.215 218.701C217.887 218.953 217.64 219.296 217.475 219.73C217.312 220.161 217.231 220.645 217.231 221.182C217.231 221.725 217.314 222.219 217.48 222.663C217.649 223.104 217.897 223.455 218.225 223.717C218.557 223.976 218.968 224.105 219.458 224.105Z" fill="black"/>
<defs>
<linearGradient id="paint0_linear_22_391" x1="2121.33" y1="184.909" x2="2165.79" y2="-1349.38" gradientUnits="userSpaceOnUse">
<stop stop-color="#222357"/>
<stop offset="1" stop-color="#254AA5"/>
</linearGradient>
<clipPath id="clip0_22_391">
<rect width="45" height="15" fill="white" transform="translate(52.5 140)"/>
</clipPath>
</defs>
</svg>
