<svg width="16" height="14" viewBox="0 0 16 14" fill="none" xmlns="http://www.w3.org/2000/svg">
<path d="M15.0323 4.34729L3.92486 3.26261L3.24776 0.998573C3.22423 0.922638 3.17318 0.855586 3.10241 0.807654C3.03165 0.759721 2.94505 0.733542 2.85584 0.733111H1.18843C1.12817 0.661522 1.04993 0.603221 0.959865 0.562777C0.869796 0.522334 0.770337 0.500847 0.669284 0.5C0.491779 0.5 0.321544 0.562227 0.196029 0.672991C0.0705136 0.783755 0 0.933984 0 1.09063C0 1.24727 0.0705136 1.3975 0.196029 1.50827C0.321544 1.61903 0.491779 1.68126 0.669284 1.68126C0.884921 1.68126 1.06713 1.58611 1.18951 1.44719H2.54371L5.36316 10.8668C5.05561 11.1557 4.88408 11.537 4.88337 11.9334C4.88316 12.1391 4.92891 12.3429 5.01802 12.533C5.10712 12.7231 5.23783 12.8959 5.40266 13.0414C5.56749 13.1869 5.76321 13.3023 5.97863 13.381C6.19404 13.4597 6.42492 13.5001 6.65806 13.5C7.12913 13.5001 7.58097 13.3352 7.91426 13.0414C8.24756 12.7476 8.43502 12.3491 8.43545 11.9334C8.43452 11.8142 8.4177 11.6956 8.38532 11.5799H11.3681C11.3362 11.6957 11.3196 11.8143 11.3185 11.9334C11.3185 12.7992 12.1142 13.5 13.0954 13.5C14.0765 13.5 14.8706 12.7992 14.8706 11.9334C14.8707 11.5176 14.6838 11.1188 14.3507 10.8247C14.0177 10.5305 13.566 10.3651 13.0948 10.3649C12.5827 10.3649 12.1245 10.5599 11.7999 10.8658H7.95296C7.78787 10.7081 7.58763 10.5822 7.3648 10.496C7.14197 10.4098 6.90136 10.3652 6.65806 10.3649C6.45321 10.3649 6.26021 10.402 6.07746 10.4581L5.97935 10.1318H13.8409C14.1431 10.1263 14.4343 10.0314 14.668 9.86233C14.9017 9.69322 15.0642 9.45973 15.1294 9.19933L15.9784 5.48953C15.9928 5.42464 16 5.35869 16 5.29258C16.0004 5.05709 15.9016 4.82987 15.7228 4.65508C15.5439 4.48029 15.2978 4.3709 15.0323 4.34729ZM13.0959 12.0733C13.0537 12.0731 13.0132 12.0583 12.9832 12.0321C12.9533 12.0058 12.9362 11.9702 12.9358 11.9329C12.9374 11.8539 13.0086 11.7912 13.0964 11.7912C13.1843 11.7912 13.2555 11.8539 13.2566 11.9324C13.256 11.9696 13.2389 12.0051 13.2089 12.0313C13.179 12.0575 13.1386 12.0722 13.0964 12.0723L13.0959 12.0733ZM14.0555 8.50761L14.5666 8.05566L14.3951 8.80733L14.0555 8.50761ZM6.26399 4.20837L6.82195 4.70219L6.12652 5.31589L5.42947 4.70219L6.01546 4.18459L6.26399 4.20837ZM8.68883 4.44529L8.97886 4.70219L8.28343 5.31589L7.58638 4.70219L7.95728 4.37393L8.68883 4.44529ZM4.57932 5.45195L5.04833 5.03901L5.74376 5.65366L5.04833 6.26736L4.74375 5.99952L4.57986 5.45147L4.57932 5.45195ZM4.42029 4.91913L4.24347 4.32921L4.66666 4.70266L4.42029 4.91913ZM11.1347 6.60514L10.4393 7.21884L9.74221 6.60514L10.4387 5.99001L11.1347 6.60514ZM10.8204 5.65366L11.5169 5.03901L12.2123 5.65366L11.5169 6.26832L10.8204 5.65366ZM9.36107 6.26736L8.66403 5.65366L9.36053 5.03853L10.056 5.65319L9.36107 6.26736ZM8.97832 6.60514L8.28289 7.21884L7.58638 6.60514L8.28289 5.99001L8.97832 6.60514ZM7.2047 6.26736L6.50766 5.65366L7.20416 5.03853L7.89959 5.65319L7.2047 6.26736ZM6.82195 6.60514L6.12652 7.21884L5.42947 6.60514L6.12598 5.99001L6.82195 6.60514ZM5.04833 6.94148L5.74376 7.55614L5.32111 7.92864L5.03 6.95623L5.04779 6.94053L5.04833 6.94148ZM5.48068 8.46242L6.12598 7.89296L6.82141 8.50761L6.12598 9.12131L5.5168 8.58373L5.48068 8.46242ZM6.5082 7.55614L7.20363 6.94101L7.90067 7.55566L7.20524 8.16936L6.50873 7.55566L6.5082 7.55614ZM8.28289 7.89248L8.9794 8.50714L8.28289 9.12084L7.58638 8.50714L8.28289 7.89248ZM8.66457 7.55566L9.36107 6.94053L10.0565 7.55519L9.36107 8.16889L8.66457 7.55566ZM10.4382 7.89201L11.1352 8.50666L10.4398 9.12036L9.74329 8.50571L10.4382 7.89201ZM10.8209 7.55519L11.5164 6.94006L12.2134 7.55471L11.518 8.16841L10.8209 7.55519ZM11.8991 6.60371L12.5946 5.98858L13.2916 6.60324L12.5962 7.21694L11.8991 6.60371ZM12.9773 5.65224L13.6727 5.03711L14.3692 5.65366L13.6738 6.26832L12.9768 5.65319L12.9773 5.65224ZM12.5946 5.31541L11.9719 4.76546L13.0943 4.87488L12.5946 5.31541ZM11.1358 4.70219L10.4403 5.31684L9.74329 4.70219L9.89963 4.56422L11.1142 4.68316L11.1358 4.70219ZM7.20578 4.36441L7.12384 4.29305L7.27101 4.30733L7.20632 4.36441H7.20578ZM5.04941 4.36537L4.699 4.05614L5.32974 4.11798L5.04941 4.36537ZM7.20578 8.84443L7.85539 9.4177H6.55617L7.20578 8.84443ZM9.36215 8.84443L10.0118 9.41817H8.71147L9.36215 8.84443ZM11.5185 8.84443L12.1692 9.41865H10.8678L11.5185 8.84443ZM11.8997 8.50761L12.5962 7.89248L13.2916 8.50714L12.5962 9.12084L11.8997 8.50761ZM12.9778 7.55614L13.6744 6.94148L14.3698 7.55519L13.6744 8.17031L12.9773 7.55661L12.9778 7.55614ZM14.7525 7.21836L14.056 6.60466L14.7515 5.99001L14.9914 6.20124L14.7595 7.2117L14.752 7.21884L14.7525 7.21836ZM15.0221 5.07755L14.7525 5.31541L14.3967 5.00285L14.945 5.05614C14.9741 5.05994 14.9989 5.06851 15.0226 5.07707L15.0221 5.07755ZM6.65914 12.0728C6.61835 12.0707 6.58002 12.0549 6.55198 12.0287C6.52394 12.0025 6.50832 11.9678 6.50832 11.9317C6.50832 11.8957 6.52394 11.861 6.55198 11.8348C6.58002 11.8085 6.61835 11.7928 6.65914 11.7907C6.69979 11.7928 6.73799 11.8085 6.76594 11.8346C6.79388 11.8608 6.80944 11.8953 6.80944 11.9313C6.80944 11.9672 6.79388 12.0018 6.76594 12.0279C6.73799 12.054 6.69979 12.0697 6.65914 12.0718V12.0728ZM13.8415 9.41817H13.0237L13.6744 8.84396L14.1757 9.28639C14.0749 9.36727 13.9477 9.42436 13.8415 9.41817Z" fill="#F05A28"/>
</svg>
