<svg width="22" height="21" viewBox="0 0 22 21" fill="none" xmlns="http://www.w3.org/2000/svg">
<circle cx="10.6639" cy="10.4442" r="9.76637" fill="#784E0A" stroke="#FEC8A6" stroke-width="1.16036"/>
<path d="M6.91399 9.71995C6.67133 9.71995 6.455 9.67531 6.26499 9.58603C6.07613 9.49675 5.92619 9.3737 5.81516 9.21689C5.70413 9.06008 5.64633 8.88038 5.64175 8.67778H6.36286C6.37087 8.81399 6.4281 8.92444 6.53455 9.00914C6.641 9.09385 6.76748 9.1362 6.91399 9.1362C7.03074 9.1362 7.13375 9.11044 7.22303 9.05894C7.31346 9.00628 7.38385 8.9336 7.43421 8.84089C7.48572 8.74703 7.51148 8.63944 7.51148 8.51811C7.51148 8.39449 7.48515 8.28575 7.4325 8.19189C7.38099 8.09803 7.30945 8.02478 7.21788 7.97213C7.12631 7.91947 7.02158 7.89258 6.90369 7.89143C6.80067 7.89143 6.70052 7.91261 6.60323 7.95496C6.50708 7.99731 6.43211 8.05511 6.37831 8.12837L5.7173 8.0099L5.88384 6.15563H8.03342V6.76342H6.49678L6.40578 7.6442H6.42638C6.48819 7.55721 6.58148 7.48509 6.70624 7.42786C6.831 7.37063 6.97065 7.34202 7.12517 7.34202C7.33692 7.34202 7.52578 7.39181 7.69175 7.49139C7.85772 7.59097 7.98878 7.72775 8.08493 7.90173C8.18107 8.07457 8.22858 8.27373 8.22743 8.49922C8.22858 8.73616 8.17363 8.94676 8.06261 9.13105C7.95272 9.31418 7.79877 9.4584 7.60076 9.56371C7.40388 9.66787 7.17496 9.71995 6.91399 9.71995ZM10.1246 9.74914C9.82931 9.74799 9.57521 9.67531 9.36231 9.53109C9.15056 9.38687 8.98745 9.17798 8.87299 8.90441C8.75967 8.63085 8.70359 8.30178 8.70473 7.91719C8.70473 7.53374 8.76139 7.20695 8.87471 6.93683C8.98917 6.6667 9.15228 6.46124 9.36403 6.32045C9.57693 6.17852 9.83046 6.10756 10.1246 6.10756C10.4188 6.10756 10.6717 6.17852 10.8835 6.32045C11.0964 6.46238 11.2601 6.66841 11.3745 6.93854C11.489 7.20753 11.5457 7.53374 11.5445 7.91719C11.5445 8.30292 11.4873 8.63257 11.3728 8.90613C11.2595 9.17969 11.097 9.38858 10.8852 9.5328C10.6735 9.67703 10.4199 9.74914 10.1246 9.74914ZM10.1246 9.13276C10.3261 9.13276 10.4869 9.03146 10.6071 8.82887C10.7273 8.62627 10.7868 8.32238 10.7856 7.91719C10.7856 7.65049 10.7582 7.42844 10.7032 7.25102C10.6494 7.07361 10.5727 6.94026 10.4732 6.85098C10.3747 6.7617 10.2585 6.71706 10.1246 6.71706C9.92432 6.71706 9.76407 6.81721 9.64389 7.01752C9.5237 7.21783 9.46304 7.51772 9.46189 7.91719C9.46189 8.18731 9.48879 8.4128 9.54259 8.59365C9.59753 8.77336 9.67479 8.90842 9.77437 8.99884C9.87395 9.08812 9.9907 9.13276 10.1246 9.13276ZM13.9993 9.01258V8.82715C13.9993 8.68636 14.029 8.55702 14.0886 8.43913C14.1492 8.32009 14.2368 8.22509 14.3512 8.15412C14.4669 8.08201 14.6076 8.04595 14.7736 8.04595C14.9419 8.04595 15.0832 8.08144 15.1977 8.1524C15.3133 8.22337 15.4003 8.31837 15.4587 8.43741C15.5182 8.55531 15.5479 8.68522 15.5479 8.82715V9.01258C15.5479 9.15337 15.5182 9.28328 15.4587 9.40232C15.3991 9.52021 15.3116 9.61464 15.196 9.68561C15.0804 9.75772 14.9396 9.79378 14.7736 9.79378C14.6053 9.79378 14.464 9.75772 14.3495 9.68561C14.2351 9.61464 14.1481 9.52021 14.0886 9.40232C14.029 9.28328 13.9993 9.15337 13.9993 9.01258ZM14.4989 8.82715V9.01258C14.4989 9.09385 14.5184 9.17054 14.5573 9.24265C14.5973 9.31476 14.6694 9.35081 14.7736 9.35081C14.8778 9.35081 14.9487 9.31533 14.9865 9.24436C15.0254 9.1734 15.0449 9.09614 15.0449 9.01258V8.82715C15.0449 8.7436 15.0266 8.66576 14.9899 8.59365C14.9533 8.52154 14.8812 8.48549 14.7736 8.48549C14.6706 8.48549 14.5991 8.52154 14.559 8.59365C14.5189 8.66576 14.4989 8.7436 14.4989 8.82715ZM12.1948 7.00035V6.81492C12.1948 6.67299 12.2251 6.54308 12.2858 6.42518C12.3465 6.30615 12.434 6.21114 12.5485 6.14018C12.6641 6.06921 12.8037 6.03373 12.9674 6.03373C13.1368 6.03373 13.2787 6.06921 13.3932 6.14018C13.5077 6.21114 13.5947 6.30615 13.6542 6.42518C13.7137 6.54308 13.7435 6.67299 13.7435 6.81492V7.00035C13.7435 7.14228 13.7131 7.2722 13.6525 7.39009C13.5929 7.50799 13.5054 7.60242 13.3898 7.67338C13.2753 7.7432 13.1345 7.77812 12.9674 7.77812C12.8003 7.77812 12.6589 7.74263 12.5433 7.67167C12.4289 7.59956 12.3419 7.50513 12.2824 7.38838C12.224 7.27048 12.1948 7.14114 12.1948 7.00035ZM12.6979 6.81492V7.00035C12.6979 7.08391 12.7173 7.16117 12.7562 7.23214C12.7963 7.3031 12.8667 7.33858 12.9674 7.33858C13.0727 7.33858 13.1443 7.3031 13.182 7.23214C13.2209 7.16117 13.2404 7.08391 13.2404 7.00035V6.81492C13.2404 6.73137 13.2221 6.65353 13.1855 6.58142C13.1488 6.50931 13.0761 6.47326 12.9674 6.47326C12.8655 6.47326 12.7951 6.50989 12.7562 6.58314C12.7173 6.6564 12.6979 6.73366 12.6979 6.81492ZM12.4214 9.67188L14.8388 6.15563H15.2887L12.8713 9.67188H12.4214ZM8.88158 13.9138C8.88158 14.2972 8.80889 14.6234 8.66353 14.8924C8.51931 15.1614 8.32243 15.3668 8.07291 15.5088C7.82453 15.6496 7.54524 15.7199 7.23505 15.7199C6.92257 15.7199 6.64214 15.649 6.39376 15.5071C6.14538 15.3651 5.94908 15.1597 5.80486 14.8907C5.66064 14.6217 5.58853 14.2961 5.58853 13.9138C5.58853 13.5303 5.66064 13.2041 5.80486 12.9351C5.94908 12.6661 6.14538 12.4612 6.39376 12.3205C6.64214 12.1785 6.92257 12.1076 7.23505 12.1076C7.54524 12.1076 7.82453 12.1785 8.07291 12.3205C8.32243 12.4612 8.51931 12.6661 8.66353 12.9351C8.80889 13.2041 8.88158 13.5303 8.88158 13.9138ZM8.12785 13.9138C8.12785 13.6654 8.09065 13.4559 8.01625 13.2854C7.94299 13.1148 7.83941 12.9855 7.70549 12.8973C7.57157 12.8092 7.41476 12.7651 7.23505 12.7651C7.05535 12.7651 6.89854 12.8092 6.76462 12.8973C6.6307 12.9855 6.52654 13.1148 6.45214 13.2854C6.37888 13.4559 6.34226 13.6654 6.34226 13.9138C6.34226 14.1621 6.37888 14.3716 6.45214 14.5421C6.52654 14.7127 6.6307 14.842 6.76462 14.9302C6.89854 15.0183 7.05535 15.0624 7.23505 15.0624C7.41476 15.0624 7.57157 15.0183 7.70549 14.9302C7.83941 14.842 7.94299 14.7127 8.01625 14.5421C8.09065 14.3716 8.12785 14.1621 8.12785 13.9138ZM9.43228 15.6719V12.1556H11.7604V12.7686H10.1757V13.6064H11.6059V14.2194H10.1757V15.6719H9.43228ZM12.2605 15.6719V12.1556H14.5886V12.7686H13.0039V13.6064H14.4341V14.2194H13.0039V15.6719H12.2605Z" fill="white"/>
</svg>
