<svg width="334" height="15" viewBox="0 0 334 15" fill="none" xmlns="http://www.w3.org/2000/svg">
<path d="M16.5682 5.2554L8.23759 4.33759L7.72977 2.42187C7.71212 2.35762 7.67383 2.30088 7.62075 2.26032C7.56768 2.21976 7.50273 2.19761 7.43583 2.19725H6.18527C6.14007 2.13667 6.0814 2.08734 6.01384 2.05312C5.94629 2.0189 5.8717 2.00072 5.79591 2C5.66278 2 5.5351 2.05265 5.44097 2.14638C5.34683 2.2401 5.29395 2.36722 5.29395 2.49976C5.29395 2.63231 5.34683 2.75942 5.44097 2.85315C5.5351 2.94687 5.66278 2.99952 5.79591 2.99952C5.95764 2.99952 6.0943 2.91901 6.18608 2.80147H7.20173L9.31632 10.7719C9.08565 11.0164 8.95701 11.339 8.95647 11.6744C8.95631 11.8485 8.99063 12.0209 9.05746 12.1818C9.12429 12.3427 9.22232 12.4888 9.34594 12.612C9.46956 12.7351 9.61635 12.8327 9.77791 12.8993C9.93948 12.9659 10.1126 13.0001 10.2875 13C10.6408 13.0001 10.9797 12.8605 11.2296 12.612C11.4796 12.3634 11.6202 12.0262 11.6205 11.6744C11.6198 11.5736 11.6072 11.4732 11.5829 11.3753H13.82C13.7961 11.4733 13.7836 11.5736 13.7828 11.6744C13.7828 12.407 14.3796 13 15.1155 13C15.8513 13 16.4469 12.407 16.4469 11.6744C16.447 11.3226 16.3068 10.9851 16.057 10.7363C15.8072 10.4874 15.4684 10.3474 15.1151 10.3472C14.731 10.3472 14.3873 10.5123 14.1439 10.7711H11.2587C11.1348 10.6377 10.9847 10.5311 10.8175 10.4582C10.6504 10.3852 10.47 10.3475 10.2875 10.3472C10.1339 10.3472 9.9891 10.3786 9.85204 10.4261L9.77845 10.15H15.6746C15.9012 10.1454 16.1197 10.0651 16.295 9.92197C16.4702 9.77888 16.5921 9.58131 16.641 9.36097L17.2778 6.22191C17.2885 6.16701 17.2939 6.1112 17.2939 6.05526C17.2943 5.856 17.2201 5.66373 17.086 5.51584C16.9519 5.36794 16.7673 5.27537 16.5682 5.2554ZM15.1159 11.7928C15.0842 11.7927 15.0538 11.7801 15.0314 11.7579C15.0089 11.7357 14.9961 11.7055 14.9958 11.674C14.997 11.6072 15.0504 11.5541 15.1163 11.5541C15.1822 11.5541 15.2356 11.6072 15.2364 11.6736C15.2359 11.7051 15.2231 11.7351 15.2007 11.7573C15.1782 11.7794 15.1479 11.7919 15.1163 11.792L15.1159 11.7928ZM15.8356 8.77567L16.2189 8.39325L16.0903 9.02928L15.8356 8.77567ZM9.99194 5.13785L10.4104 5.5557L9.88883 6.07498L9.36605 5.5557L9.80554 5.11773L9.99194 5.13785ZM11.8106 5.33832L12.0281 5.5557L11.5065 6.07498L10.9837 5.5557L11.2619 5.27794L11.8106 5.33832ZM8.72844 6.19011L9.08019 5.8407L9.60177 6.36079L9.08019 6.88008L8.85175 6.65344L8.72884 6.18971L8.72844 6.19011ZM8.60916 5.73926L8.47655 5.2401L8.79394 5.5561L8.60916 5.73926ZM13.645 7.16589L13.1234 7.68517L12.6006 7.16589L13.123 6.64539L13.645 7.16589ZM13.4092 6.36079L13.9316 5.8407L14.4532 6.36079L13.9316 6.88088L13.4092 6.36079ZM12.3148 6.88008L11.792 6.36079L12.3143 5.8403L12.8359 6.36039L12.3148 6.88008ZM12.0277 7.16589L11.5061 7.68517L10.9837 7.16589L11.5061 6.64539L12.0277 7.16589ZM10.6975 6.88008L10.1747 6.36079L10.6971 5.8403L11.2186 6.36039L10.6975 6.88008ZM10.4104 7.16589L9.88883 7.68517L9.36605 7.16589L9.88843 6.64539L10.4104 7.16589ZM9.08019 7.45049L9.60177 7.97058L9.28478 8.28577L9.06645 7.46297L9.07979 7.44968L9.08019 7.45049ZM9.40446 8.73743L9.88843 8.25558L10.41 8.77567L9.88843 9.29496L9.43155 8.84008L9.40446 8.73743ZM10.1751 7.97058L10.6967 7.45008L11.2194 7.97017L10.6979 8.48946L10.1755 7.97017L10.1751 7.97058ZM11.5061 8.25518L12.0285 8.77527L11.5061 9.29455L10.9837 8.77527L11.5061 8.25518ZM11.7924 7.97017L12.3148 7.44968L12.8363 7.96977L12.3148 8.48906L11.7924 7.97017ZM13.1226 8.25478L13.6454 8.77487L13.1238 9.29415L12.6014 8.77406L13.1226 8.25478ZM13.4096 7.96977L13.9312 7.44928L14.454 7.96937L13.9324 8.48866L13.4096 7.96977ZM14.2183 7.16468L14.7399 6.64419L15.2626 7.16428L14.7411 7.68356L14.2183 7.16468ZM15.0269 6.35958L15.5485 5.83909L16.0709 6.36079L15.5493 6.88088L15.0265 6.36039L15.0269 6.35958ZM14.7399 6.07458L14.2729 5.60924L15.1147 5.70182L14.7399 6.07458ZM13.6458 5.5557L13.1242 6.07579L12.6014 5.5557L12.7187 5.43896L13.6296 5.5396L13.6458 5.5557ZM10.6983 5.26989L10.6368 5.20951L10.7472 5.22158L10.6987 5.26989H10.6983ZM9.081 5.27069L8.8182 5.00904L9.29125 5.06137L9.081 5.27069ZM10.6983 9.06068L11.1855 9.54574H10.2111L10.6983 9.06068ZM12.3156 9.06068L12.8028 9.54615H11.8275L12.3156 9.06068ZM13.9328 9.06068L14.4208 9.54655H13.4448L13.9328 9.06068ZM14.2187 8.77567L14.7411 8.25518L15.2626 8.77527L14.7411 9.29455L14.2187 8.77567ZM15.0273 7.97058L15.5497 7.45049L16.0713 7.96977L15.5497 8.49027L15.0269 7.97098L15.0273 7.97058ZM16.3583 7.68477L15.836 7.16548L16.3575 6.64539L16.5375 6.82412L16.3636 7.67913L16.3579 7.68517L16.3583 7.68477ZM16.5605 5.87331L16.3583 6.07458L16.0915 5.81011L16.5027 5.85519C16.5245 5.85841 16.5431 5.86566 16.5609 5.87291L16.5605 5.87331ZM10.2883 11.7924C10.2577 11.7906 10.229 11.7772 10.2079 11.7551C10.1869 11.7329 10.1752 11.7035 10.1752 11.673C10.1752 11.6425 10.1869 11.6131 10.2079 11.591C10.229 11.5688 10.2577 11.5554 10.2883 11.5536C10.3188 11.5554 10.3474 11.5687 10.3684 11.5908C10.3894 11.6129 10.401 11.6422 10.401 11.6726C10.401 11.703 10.3894 11.7323 10.3684 11.7544C10.3474 11.7765 10.3188 11.7898 10.2883 11.7916V11.7924ZM15.675 9.54615H15.0617L15.5497 9.06027L15.9257 9.43464C15.8501 9.50307 15.7547 9.55138 15.675 9.54615Z" fill="#F05A28"/>
<path d="M31.5013 6.1108H30.1718C30.1207 5.8267 30.0255 5.5767 29.8863 5.3608C29.7471 5.14489 29.5766 4.96165 29.3749 4.81108C29.1732 4.66051 28.9474 4.54687 28.6974 4.47017C28.4502 4.39347 28.1874 4.35511 27.909 4.35511C27.4062 4.35511 26.9559 4.48153 26.5582 4.73438C26.1633 4.98722 25.8508 5.35795 25.6206 5.84659C25.3934 6.33523 25.2797 6.93182 25.2797 7.63636C25.2797 8.34659 25.3934 8.94602 25.6206 9.43466C25.8508 9.9233 26.1647 10.2926 26.5624 10.5426C26.9601 10.7926 27.4076 10.9176 27.9047 10.9176C28.1803 10.9176 28.4417 10.8807 28.6888 10.8068C28.9388 10.7301 29.1647 10.6179 29.3664 10.4702C29.5681 10.3224 29.7385 10.142 29.8778 9.92898C30.0198 9.71307 30.1178 9.46591 30.1718 9.1875L31.5013 9.19176C31.4303 9.62074 31.2925 10.0156 31.088 10.3764C30.8863 10.7344 30.6263 11.044 30.3082 11.3054C29.9928 11.5639 29.632 11.7642 29.2258 11.9062C28.8195 12.0483 28.3763 12.1193 27.8962 12.1193C27.1405 12.1193 26.4672 11.9403 25.8763 11.5824C25.2854 11.2216 24.8195 10.706 24.4786 10.0355C24.1405 9.36506 23.9715 8.56534 23.9715 7.63636C23.9715 6.70455 24.142 5.90483 24.4829 5.23722C24.8238 4.56676 25.2897 4.05256 25.8806 3.6946C26.4715 3.33381 27.1434 3.15341 27.8962 3.15341C28.3593 3.15341 28.7911 3.22017 29.1917 3.35369C29.5951 3.48437 29.9573 3.67756 30.2783 3.93324C30.5993 4.18608 30.865 4.49574 31.0752 4.86222C31.2854 5.22585 31.4275 5.64205 31.5013 6.1108ZM34.8795 12.1449C34.4648 12.1449 34.0898 12.0682 33.7545 11.9148C33.4193 11.7585 33.1537 11.5327 32.9577 11.2372C32.7645 10.9418 32.6679 10.5795 32.6679 10.1506C32.6679 9.78125 32.7389 9.47727 32.8809 9.23864C33.023 9 33.2148 8.81108 33.4562 8.67188C33.6977 8.53267 33.9676 8.42756 34.2659 8.35653C34.5642 8.28551 34.8682 8.23153 35.1778 8.1946C35.5699 8.14915 35.8881 8.11222 36.1324 8.08381C36.3767 8.05256 36.5542 8.00284 36.665 7.93466C36.7758 7.86648 36.8312 7.75568 36.8312 7.60227V7.57244C36.8312 7.20028 36.7261 6.91193 36.5159 6.70739C36.3085 6.50284 35.9988 6.40057 35.5869 6.40057C35.1579 6.40057 34.8199 6.49574 34.5727 6.68608C34.3284 6.87358 34.1594 7.08239 34.0656 7.3125L32.8682 7.03977C33.0102 6.64205 33.2176 6.32102 33.4903 6.0767C33.7659 5.82955 34.0827 5.65057 34.4406 5.53977C34.7986 5.42614 35.175 5.36932 35.5699 5.36932C35.8312 5.36932 36.1082 5.40057 36.4008 5.46307C36.6963 5.52273 36.9719 5.63352 37.2275 5.79545C37.4861 5.95739 37.6977 6.18892 37.8625 6.49006C38.0273 6.78835 38.1096 7.17614 38.1096 7.65341V12H36.8653V11.1051H36.8142C36.7318 11.2699 36.6082 11.4318 36.4434 11.5909C36.2787 11.75 36.067 11.8821 35.8085 11.9872C35.55 12.0923 35.2403 12.1449 34.8795 12.1449ZM35.1565 11.1222C35.5088 11.1222 35.8099 11.0526 36.0599 10.9134C36.3128 10.7741 36.5045 10.5923 36.6352 10.3679C36.7687 10.1406 36.8355 9.89773 36.8355 9.6392V8.79545C36.79 8.84091 36.702 8.88352 36.5713 8.9233C36.4434 8.96023 36.2971 8.9929 36.1324 9.02131C35.9676 9.04687 35.8071 9.07102 35.6508 9.09375C35.4946 9.11364 35.3639 9.13068 35.2588 9.14489C35.0116 9.17614 34.7858 9.22869 34.5812 9.30256C34.3795 9.37642 34.2176 9.48295 34.0954 9.62216C33.9761 9.75852 33.9165 9.94034 33.9165 10.1676C33.9165 10.483 34.0329 10.7216 34.2659 10.8835C34.4988 11.0426 34.7957 11.1222 35.1565 11.1222ZM39.8067 12V5.45455H41.0383V6.49432H41.1064C41.2258 6.14205 41.436 5.86506 41.7371 5.66335C42.0411 5.45881 42.3849 5.35653 42.7684 5.35653C42.8479 5.35653 42.9417 5.35937 43.0496 5.36506C43.1604 5.37074 43.2471 5.37784 43.3096 5.38636V6.60511C43.2584 6.59091 43.1675 6.57528 43.0368 6.55824C42.9062 6.53835 42.7755 6.52841 42.6448 6.52841C42.3437 6.52841 42.0752 6.59233 41.8394 6.72017C41.6064 6.84517 41.4218 7.01989 41.2854 7.24432C41.1491 7.46591 41.0809 7.71875 41.0809 8.00284V12H39.8067ZM47.8543 5.45455V6.47727H44.279V5.45455H47.8543ZM45.2378 3.88636H46.512V10.0781C46.512 10.3253 46.5489 10.5114 46.6228 10.6364C46.6966 10.7585 46.7918 10.8423 46.9083 10.8878C47.0276 10.9304 47.1569 10.9517 47.2961 10.9517C47.3983 10.9517 47.4878 10.9446 47.5645 10.9304C47.6412 10.9162 47.7009 10.9048 47.7435 10.8963L47.9736 11.9489C47.8998 11.9773 47.7947 12.0057 47.6583 12.0341C47.5219 12.0653 47.3515 12.0824 47.1469 12.0852C46.8117 12.0909 46.4992 12.0312 46.2094 11.9062C45.9197 11.7812 45.6853 11.5881 45.5063 11.3267C45.3273 11.0653 45.2378 10.7372 45.2378 10.3423V3.88636Z" fill="black"/>
<rect x="53.2939" y="7" width="39" height="1" rx="0.5" fill="#F05A28"/>
<path d="M104.353 3H109.647C110.232 3 110.706 3.47405 110.706 4.05882V10.9412C110.706 11.5259 110.232 12 109.647 12H104.353C103.768 12 103.294 11.5259 103.294 10.9412V4.05882C103.294 3.47405 103.768 3 104.353 3Z" stroke="#F05A28" stroke-width="2"/>
<path d="M108.586 5.64648H105.41M108.586 7.76413H105.41M108.586 9.88178H106.469" stroke="#F05A28" stroke-width="2" stroke-linecap="round"/>
<path d="M125.245 7.63636C125.245 8.56818 125.075 9.36932 124.734 10.0398C124.393 10.7074 123.926 11.2216 123.332 11.5824C122.741 11.9403 122.069 12.1193 121.316 12.1193C120.561 12.1193 119.886 11.9403 119.292 11.5824C118.701 11.2216 118.235 10.706 117.894 10.0355C117.554 9.36506 117.383 8.56534 117.383 7.63636C117.383 6.70455 117.554 5.90483 117.894 5.23722C118.235 4.56676 118.701 4.05256 119.292 3.6946C119.886 3.33381 120.561 3.15341 121.316 3.15341C122.069 3.15341 122.741 3.33381 123.332 3.6946C123.926 4.05256 124.393 4.56676 124.734 5.23722C125.075 5.90483 125.245 6.70455 125.245 7.63636ZM123.941 7.63636C123.941 6.92614 123.826 6.32812 123.596 5.84233C123.369 5.35369 123.056 4.98438 122.659 4.73438C122.264 4.48153 121.816 4.35511 121.316 4.35511C120.814 4.35511 120.365 4.48153 119.97 4.73438C119.575 4.98438 119.262 5.35369 119.032 5.84233C118.805 6.32812 118.691 6.92614 118.691 7.63636C118.691 8.34659 118.805 8.94602 119.032 9.43466C119.262 9.92045 119.575 10.2898 119.97 10.5426C120.365 10.7926 120.814 10.9176 121.316 10.9176C121.816 10.9176 122.264 10.7926 122.659 10.5426C123.056 10.2898 123.369 9.92045 123.596 9.43466C123.826 8.94602 123.941 8.34659 123.941 7.63636ZM126.785 12V5.45455H128.016V6.49432H128.084C128.204 6.14205 128.414 5.86506 128.715 5.66335C129.019 5.45881 129.363 5.35653 129.746 5.35653C129.826 5.35653 129.92 5.35937 130.028 5.36506C130.138 5.37074 130.225 5.37784 130.288 5.38636V6.60511C130.236 6.59091 130.146 6.57528 130.015 6.55824C129.884 6.53835 129.754 6.52841 129.623 6.52841C129.322 6.52841 129.053 6.59233 128.817 6.72017C128.584 6.84517 128.4 7.01989 128.263 7.24432C128.127 7.46591 128.059 7.71875 128.059 8.00284V12H126.785ZM133.606 12.1278C133.078 12.1278 132.606 11.9929 132.191 11.723C131.779 11.4503 131.456 11.0625 131.22 10.5597C130.987 10.054 130.87 9.44744 130.87 8.74006C130.87 8.03267 130.988 7.42756 131.224 6.92472C131.463 6.42187 131.789 6.03693 132.204 5.76989C132.619 5.50284 133.089 5.36932 133.615 5.36932C134.021 5.36932 134.348 5.4375 134.595 5.57386C134.845 5.70739 135.038 5.86364 135.174 6.04261C135.314 6.22159 135.421 6.37926 135.498 6.51562H135.575V3.27273H136.849V12H135.605V10.9815H135.498C135.421 11.1207 135.311 11.2798 135.166 11.4588C135.024 11.6378 134.828 11.794 134.578 11.9276C134.328 12.0611 134.004 12.1278 133.606 12.1278ZM133.887 11.0412C134.254 11.0412 134.564 10.9446 134.816 10.7514C135.072 10.5554 135.265 10.2841 135.396 9.9375C135.529 9.59091 135.596 9.1875 135.596 8.72727C135.596 8.27273 135.531 7.875 135.4 7.53409C135.269 7.19318 135.078 6.92756 134.825 6.73722C134.572 6.54687 134.26 6.4517 133.887 6.4517C133.504 6.4517 133.184 6.55114 132.929 6.75C132.673 6.94886 132.48 7.22017 132.349 7.56392C132.221 7.90767 132.157 8.29545 132.157 8.72727C132.157 9.16477 132.223 9.55824 132.353 9.90767C132.484 10.2571 132.677 10.5341 132.933 10.7386C133.191 10.9403 133.51 11.0412 133.887 11.0412ZM141.489 12.1321C140.844 12.1321 140.288 11.9943 139.822 11.7188C139.359 11.4403 139.001 11.0497 138.749 10.5469C138.499 10.0412 138.374 9.44886 138.374 8.76989C138.374 8.09943 138.499 7.50852 138.749 6.99716C139.001 6.4858 139.354 6.08665 139.805 5.79972C140.26 5.51278 140.791 5.36932 141.399 5.36932C141.768 5.36932 142.126 5.4304 142.473 5.55256C142.82 5.67472 143.131 5.86648 143.406 6.12784C143.682 6.3892 143.899 6.72869 144.058 7.14631C144.217 7.56108 144.297 8.06534 144.297 8.65909V9.1108H139.094V8.15625H143.048C143.048 7.82102 142.98 7.52415 142.844 7.26562C142.707 7.00426 142.516 6.7983 142.268 6.64773C142.024 6.49716 141.737 6.42188 141.408 6.42188C141.05 6.42188 140.737 6.50994 140.47 6.68608C140.206 6.85937 140.001 7.08665 139.856 7.3679C139.714 7.64631 139.643 7.94886 139.643 8.27557V9.02131C139.643 9.45881 139.72 9.83097 139.874 10.1378C140.03 10.4446 140.247 10.679 140.526 10.8409C140.804 11 141.129 11.0795 141.501 11.0795C141.743 11.0795 141.963 11.0455 142.162 10.9773C142.361 10.9062 142.533 10.8011 142.678 10.6619C142.822 10.5227 142.933 10.3509 143.01 10.1463L144.216 10.3636C144.119 10.7187 143.946 11.0298 143.696 11.2969C143.449 11.5611 143.138 11.767 142.763 11.9148C142.391 12.0597 141.966 12.1321 141.489 12.1321ZM145.711 12V5.45455H146.942V6.49432H147.01C147.13 6.14205 147.34 5.86506 147.641 5.66335C147.945 5.45881 148.289 5.35653 148.672 5.35653C148.752 5.35653 148.845 5.35937 148.953 5.36506C149.064 5.37074 149.151 5.37784 149.213 5.38636V6.60511C149.162 6.59091 149.071 6.57528 148.941 6.55824C148.81 6.53835 148.679 6.52841 148.549 6.52841C148.247 6.52841 147.979 6.59233 147.743 6.72017C147.51 6.84517 147.326 7.01989 147.189 7.24432C147.053 7.46591 146.985 7.71875 146.985 8.00284V12H145.711ZM158.354 5.56534C158.309 5.16193 158.121 4.84943 157.792 4.62784C157.462 4.40341 157.047 4.29119 156.547 4.29119C156.189 4.29119 155.88 4.34801 155.618 4.46165C155.357 4.57244 155.154 4.72585 155.009 4.92188C154.867 5.11506 154.796 5.33523 154.796 5.58239C154.796 5.78977 154.844 5.96875 154.941 6.11932C155.04 6.26989 155.169 6.39631 155.328 6.49858C155.49 6.59801 155.664 6.68182 155.848 6.75C156.033 6.81534 156.211 6.86932 156.381 6.91193L157.233 7.13352C157.512 7.2017 157.797 7.29403 158.09 7.41051C158.382 7.52699 158.654 7.6804 158.904 7.87074C159.154 8.06108 159.355 8.29688 159.509 8.57812C159.665 8.85938 159.743 9.19602 159.743 9.58807C159.743 10.0824 159.615 10.5213 159.36 10.9048C159.107 11.2884 158.739 11.5909 158.256 11.8125C157.776 12.0341 157.195 12.1449 156.513 12.1449C155.86 12.1449 155.294 12.0412 154.817 11.8338C154.34 11.6264 153.966 11.3324 153.696 10.9517C153.426 10.5682 153.277 10.1136 153.249 9.58807H154.57C154.595 9.90341 154.698 10.1662 154.877 10.3764C155.059 10.5838 155.29 10.7386 155.571 10.8409C155.855 10.9403 156.167 10.9901 156.505 10.9901C156.877 10.9901 157.208 10.9318 157.497 10.8153C157.79 10.696 158.02 10.5312 158.188 10.321C158.355 10.108 158.439 9.85937 158.439 9.57528C158.439 9.31676 158.365 9.10511 158.218 8.94034C158.073 8.77557 157.875 8.6392 157.625 8.53125C157.378 8.4233 157.098 8.32812 156.786 8.24574L155.755 7.96449C155.056 7.77415 154.502 7.49432 154.093 7.125C153.686 6.75568 153.483 6.26705 153.483 5.65909C153.483 5.15625 153.62 4.71733 153.892 4.34233C154.165 3.96733 154.534 3.67614 155 3.46875C155.466 3.25852 155.992 3.15341 156.577 3.15341C157.168 3.15341 157.689 3.2571 158.141 3.46449C158.595 3.67188 158.953 3.95739 159.215 4.32102C159.476 4.68182 159.613 5.09659 159.624 5.56534H158.354ZM165.361 9.28551V5.45455H166.639V12H165.386V10.8665H165.318C165.168 11.2159 164.926 11.5071 164.594 11.7401C164.264 11.9702 163.854 12.0852 163.362 12.0852C162.942 12.0852 162.57 11.9929 162.246 11.8082C161.925 11.6207 161.672 11.3438 161.487 10.9773C161.305 10.6108 161.214 10.1577 161.214 9.6179V5.45455H162.489V9.46449C162.489 9.91051 162.612 10.2656 162.859 10.5298C163.106 10.794 163.428 10.9261 163.822 10.9261C164.061 10.9261 164.298 10.8665 164.534 10.7472C164.773 10.6278 164.97 10.4474 165.126 10.206C165.285 9.96449 165.364 9.65767 165.361 9.28551ZM168.351 12V5.45455H169.574V6.51989H169.655C169.792 6.15909 170.015 5.87784 170.324 5.67614C170.634 5.47159 171.005 5.36932 171.436 5.36932C171.874 5.36932 172.24 5.47159 172.536 5.67614C172.834 5.88068 173.054 6.16193 173.196 6.51989H173.265C173.421 6.17045 173.669 5.89205 174.01 5.68466C174.351 5.47443 174.757 5.36932 175.229 5.36932C175.823 5.36932 176.307 5.5554 176.682 5.92756C177.06 6.29972 177.249 6.8608 177.249 7.6108V12H175.975V7.73011C175.975 7.28693 175.854 6.96591 175.613 6.76705C175.371 6.56818 175.083 6.46875 174.747 6.46875C174.333 6.46875 174.01 6.59659 173.78 6.85227C173.55 7.10511 173.435 7.4304 173.435 7.82812V12H172.165V7.64915C172.165 7.29403 172.054 7.00852 171.833 6.79261C171.611 6.5767 171.323 6.46875 170.968 6.46875C170.726 6.46875 170.503 6.53267 170.299 6.66051C170.097 6.78551 169.934 6.96023 169.809 7.18466C169.686 7.40909 169.625 7.66903 169.625 7.96449V12H168.351ZM178.957 12V5.45455H180.18V6.51989H180.261C180.397 6.15909 180.62 5.87784 180.93 5.67614C181.239 5.47159 181.61 5.36932 182.042 5.36932C182.479 5.36932 182.846 5.47159 183.141 5.67614C183.44 5.88068 183.66 6.16193 183.802 6.51989H183.87C184.026 6.17045 184.275 5.89205 184.616 5.68466C184.957 5.47443 185.363 5.36932 185.834 5.36932C186.428 5.36932 186.913 5.5554 187.288 5.92756C187.665 6.29972 187.854 6.8608 187.854 7.6108V12H186.58V7.73011C186.58 7.28693 186.459 6.96591 186.218 6.76705C185.977 6.56818 185.688 6.46875 185.353 6.46875C184.938 6.46875 184.616 6.59659 184.386 6.85227C184.155 7.10511 184.04 7.4304 184.04 7.82812V12H182.771V7.64915C182.771 7.29403 182.66 7.00852 182.438 6.79261C182.217 6.5767 181.928 6.46875 181.573 6.46875C181.332 6.46875 181.109 6.53267 180.904 6.66051C180.702 6.78551 180.539 6.96023 180.414 7.18466C180.292 7.40909 180.231 7.66903 180.231 7.96449V12H178.957ZM191.467 12.1449C191.052 12.1449 190.677 12.0682 190.342 11.9148C190.007 11.7585 189.741 11.5327 189.545 11.2372C189.352 10.9418 189.255 10.5795 189.255 10.1506C189.255 9.78125 189.326 9.47727 189.468 9.23864C189.61 9 189.802 8.81108 190.044 8.67188C190.285 8.53267 190.555 8.42756 190.853 8.35653C191.152 8.28551 191.456 8.23153 191.765 8.1946C192.157 8.14915 192.475 8.11222 192.72 8.08381C192.964 8.05256 193.142 8.00284 193.252 7.93466C193.363 7.86648 193.419 7.75568 193.419 7.60227V7.57244C193.419 7.20028 193.314 6.91193 193.103 6.70739C192.896 6.50284 192.586 6.40057 192.174 6.40057C191.745 6.40057 191.407 6.49574 191.16 6.68608C190.916 6.87358 190.747 7.08239 190.653 7.3125L189.456 7.03977C189.598 6.64205 189.805 6.32102 190.078 6.0767C190.353 5.82955 190.67 5.65057 191.028 5.53977C191.386 5.42614 191.762 5.36932 192.157 5.36932C192.419 5.36932 192.696 5.40057 192.988 5.46307C193.284 5.52273 193.559 5.63352 193.815 5.79545C194.073 5.95739 194.285 6.18892 194.45 6.49006C194.615 6.78835 194.697 7.17614 194.697 7.65341V12H193.453V11.1051H193.402C193.319 11.2699 193.196 11.4318 193.031 11.5909C192.866 11.75 192.654 11.8821 192.396 11.9872C192.137 12.0923 191.828 12.1449 191.467 12.1449ZM191.744 11.1222C192.096 11.1222 192.397 11.0526 192.647 10.9134C192.9 10.7741 193.092 10.5923 193.223 10.3679C193.356 10.1406 193.423 9.89773 193.423 9.6392V8.79545C193.377 8.84091 193.289 8.88352 193.159 8.9233C193.031 8.96023 192.885 8.9929 192.72 9.02131C192.555 9.04687 192.394 9.07102 192.238 9.09375C192.082 9.11364 191.951 9.13068 191.846 9.14489C191.599 9.17614 191.373 9.22869 191.169 9.30256C190.967 9.37642 190.805 9.48295 190.683 9.62216C190.564 9.75852 190.504 9.94034 190.504 10.1676C190.504 10.483 190.62 10.7216 190.853 10.8835C191.086 11.0426 191.383 11.1222 191.744 11.1222ZM196.394 12V5.45455H197.626V6.49432H197.694C197.813 6.14205 198.023 5.86506 198.325 5.66335C198.629 5.45881 198.972 5.35653 199.356 5.35653C199.435 5.35653 199.529 5.35937 199.637 5.36506C199.748 5.37074 199.834 5.37784 199.897 5.38636V6.60511C199.846 6.59091 199.755 6.57528 199.624 6.55824C199.494 6.53835 199.363 6.52841 199.232 6.52841C198.931 6.52841 198.663 6.59233 198.427 6.72017C198.194 6.84517 198.009 7.01989 197.873 7.24432C197.736 7.46591 197.668 7.71875 197.668 8.00284V12H196.394ZM202.004 14.4545C201.814 14.4545 201.641 14.4389 201.484 14.4077C201.328 14.3793 201.212 14.348 201.135 14.3139L201.442 13.2699C201.675 13.3324 201.882 13.3594 202.064 13.3509C202.246 13.3423 202.406 13.2741 202.545 13.1463C202.687 13.0185 202.812 12.8097 202.92 12.5199L203.078 12.0852L200.683 5.45455H202.047L203.705 10.5341H203.773L205.43 5.45455H206.798L204.101 12.8736C203.976 13.2145 203.817 13.5028 203.624 13.7386C203.43 13.9773 203.2 14.1563 202.933 14.2756C202.666 14.3949 202.356 14.4545 202.004 14.4545Z" fill="black"/>
<rect x="218.706" y="7" width="39" height="1" rx="0.5" fill="url(#paint0_linear_22_362)"/>
<path d="M270.606 5.25H261.806V4.125H270.606M270.606 10.875H261.806V7.5H270.606M270.606 3H261.806C261.195 3 260.706 3.50063 260.706 4.125V10.875C260.706 11.1734 260.822 11.4595 261.028 11.6705C261.234 11.8815 261.514 12 261.806 12H270.606C270.898 12 271.177 11.8815 271.384 11.6705C271.59 11.4595 271.706 11.1734 271.706 10.875V4.125C271.706 3.82663 271.59 3.54048 271.384 3.3295C271.177 3.11853 270.898 3 270.606 3Z" fill="#F05A28"/>
<path d="M278.665 12V3.27273H281.775C282.454 3.27273 283.017 3.39631 283.463 3.64347C283.909 3.89062 284.243 4.22869 284.464 4.65767C284.686 5.08381 284.797 5.56392 284.797 6.09801C284.797 6.63494 284.685 7.1179 284.46 7.54688C284.238 7.97301 283.903 8.31108 283.454 8.56108C283.008 8.80824 282.447 8.93182 281.771 8.93182H279.632V7.81534H281.652C282.081 7.81534 282.429 7.74148 282.696 7.59375C282.963 7.44318 283.159 7.23864 283.284 6.98011C283.409 6.72159 283.471 6.42756 283.471 6.09801C283.471 5.76847 283.409 5.47585 283.284 5.22017C283.159 4.96449 282.961 4.7642 282.692 4.61932C282.425 4.47443 282.072 4.40199 281.635 4.40199H279.981V12H278.665ZM288.084 12.1449C287.67 12.1449 287.295 12.0682 286.959 11.9148C286.624 11.7585 286.359 11.5327 286.162 11.2372C285.969 10.9418 285.873 10.5795 285.873 10.1506C285.873 9.78125 285.944 9.47727 286.086 9.23864C286.228 9 286.42 8.81108 286.661 8.67188C286.903 8.53267 287.172 8.42756 287.471 8.35653C287.769 8.28551 288.073 8.23153 288.383 8.1946C288.775 8.14915 289.093 8.11222 289.337 8.08381C289.582 8.05256 289.759 8.00284 289.87 7.93466C289.981 7.86648 290.036 7.75568 290.036 7.60227V7.57244C290.036 7.20028 289.931 6.91193 289.721 6.70739C289.513 6.50284 289.204 6.40057 288.792 6.40057C288.363 6.40057 288.025 6.49574 287.778 6.68608C287.533 6.87358 287.364 7.08239 287.27 7.3125L286.073 7.03977C286.215 6.64205 286.422 6.32102 286.695 6.0767C286.971 5.82955 287.287 5.65057 287.645 5.53977C288.003 5.42614 288.38 5.36932 288.775 5.36932C289.036 5.36932 289.313 5.40057 289.606 5.46307C289.901 5.52273 290.177 5.63352 290.432 5.79545C290.691 5.95739 290.903 6.18892 291.067 6.49006C291.232 6.78835 291.314 7.17614 291.314 7.65341V12H290.07V11.1051H290.019C289.937 11.2699 289.813 11.4318 289.648 11.5909C289.484 11.75 289.272 11.8821 289.013 11.9872C288.755 12.0923 288.445 12.1449 288.084 12.1449ZM288.361 11.1222C288.714 11.1222 289.015 11.0526 289.265 10.9134C289.518 10.7741 289.709 10.5923 289.84 10.3679C289.974 10.1406 290.04 9.89773 290.04 9.6392V8.79545C289.995 8.84091 289.907 8.88352 289.776 8.9233C289.648 8.96023 289.502 8.9929 289.337 9.02131C289.172 9.04687 289.012 9.07102 288.856 9.09375C288.699 9.11364 288.569 9.13068 288.464 9.14489C288.216 9.17614 287.991 9.22869 287.786 9.30256C287.584 9.37642 287.422 9.48295 287.3 9.62216C287.181 9.75852 287.121 9.94034 287.121 10.1676C287.121 10.483 287.238 10.7216 287.471 10.8835C287.704 11.0426 288.001 11.1222 288.361 11.1222ZM293.583 14.4545C293.392 14.4545 293.219 14.4389 293.063 14.4077C292.906 14.3793 292.79 14.348 292.713 14.3139L293.02 13.2699C293.253 13.3324 293.46 13.3594 293.642 13.3509C293.824 13.3423 293.985 13.2741 294.124 13.1463C294.266 13.0185 294.391 12.8097 294.499 12.5199L294.656 12.0852L292.262 5.45455H293.625L295.283 10.5341H295.351L297.009 5.45455H298.377L295.679 12.8736C295.554 13.2145 295.395 13.5028 295.202 13.7386C295.009 13.9773 294.779 14.1563 294.512 14.2756C294.245 14.3949 293.935 14.4545 293.583 14.4545ZM299.574 12V5.45455H300.797V6.51989H300.878C301.014 6.15909 301.237 5.87784 301.547 5.67614C301.857 5.47159 302.227 5.36932 302.659 5.36932C303.097 5.36932 303.463 5.47159 303.759 5.67614C304.057 5.88068 304.277 6.16193 304.419 6.51989H304.487C304.644 6.17045 304.892 5.89205 305.233 5.68466C305.574 5.47443 305.98 5.36932 306.452 5.36932C307.046 5.36932 307.53 5.5554 307.905 5.92756C308.283 6.29972 308.472 6.8608 308.472 7.6108V12H307.198V7.73011C307.198 7.28693 307.077 6.96591 306.835 6.76705C306.594 6.56818 306.306 6.46875 305.97 6.46875C305.556 6.46875 305.233 6.59659 305.003 6.85227C304.773 7.10511 304.658 7.4304 304.658 7.82812V12H303.388V7.64915C303.388 7.29403 303.277 7.00852 303.056 6.79261C302.834 6.5767 302.546 6.46875 302.191 6.46875C301.949 6.46875 301.726 6.53267 301.522 6.66051C301.32 6.78551 301.156 6.96023 301.031 7.18466C300.909 7.40909 300.848 7.66903 300.848 7.96449V12H299.574ZM313.001 12.1321C312.356 12.1321 311.8 11.9943 311.334 11.7188C310.871 11.4403 310.513 11.0497 310.26 10.5469C310.01 10.0412 309.885 9.44886 309.885 8.76989C309.885 8.09943 310.01 7.50852 310.26 6.99716C310.513 6.4858 310.866 6.08665 311.317 5.79972C311.772 5.51278 312.303 5.36932 312.911 5.36932C313.28 5.36932 313.638 5.4304 313.985 5.55256C314.332 5.67472 314.643 5.86648 314.918 6.12784C315.194 6.3892 315.411 6.72869 315.57 7.14631C315.729 7.56108 315.809 8.06534 315.809 8.65909V9.1108H310.606V8.15625H314.56C314.56 7.82102 314.492 7.52415 314.356 7.26562C314.219 7.00426 314.028 6.7983 313.78 6.64773C313.536 6.49716 313.249 6.42188 312.92 6.42188C312.562 6.42188 312.249 6.50994 311.982 6.68608C311.718 6.85937 311.513 7.08665 311.368 7.3679C311.226 7.64631 311.155 7.94886 311.155 8.27557V9.02131C311.155 9.45881 311.232 9.83097 311.385 10.1378C311.542 10.4446 311.759 10.679 312.037 10.8409C312.316 11 312.641 11.0795 313.013 11.0795C313.255 11.0795 313.475 11.0455 313.674 10.9773C313.873 10.9062 314.045 10.8011 314.189 10.6619C314.334 10.5227 314.445 10.3509 314.522 10.1463L315.728 10.3636C315.631 10.7187 315.458 11.0298 315.208 11.2969C314.961 11.5611 314.65 11.767 314.275 11.9148C313.903 12.0597 313.478 12.1321 313.001 12.1321ZM318.497 8.11364V12H317.223V5.45455H318.446V6.51989H318.526C318.677 6.1733 318.913 5.89489 319.234 5.68466C319.558 5.47443 319.965 5.36932 320.457 5.36932C320.903 5.36932 321.294 5.46307 321.629 5.65057C321.964 5.83523 322.224 6.1108 322.409 6.47727C322.593 6.84375 322.686 7.29687 322.686 7.83665V12H321.411V7.99006C321.411 7.51562 321.288 7.14489 321.041 6.87784C320.794 6.60795 320.454 6.47301 320.022 6.47301C319.727 6.47301 319.464 6.53693 319.234 6.66477C319.007 6.79261 318.826 6.98011 318.693 7.22727C318.562 7.47159 318.497 7.76705 318.497 8.11364ZM327.45 5.45455V6.47727H323.874V5.45455H327.45ZM324.833 3.88636H326.107V10.0781C326.107 10.3253 326.144 10.5114 326.218 10.6364C326.292 10.7585 326.387 10.8423 326.504 10.8878C326.623 10.9304 326.752 10.9517 326.892 10.9517C326.994 10.9517 327.083 10.9446 327.16 10.9304C327.237 10.9162 327.296 10.9048 327.339 10.8963L327.569 11.9489C327.495 11.9773 327.39 12.0057 327.254 12.0341C327.117 12.0653 326.947 12.0824 326.742 12.0852C326.407 12.0909 326.095 12.0312 325.805 11.9062C325.515 11.7812 325.281 11.5881 325.102 11.3267C324.923 11.0653 324.833 10.7372 324.833 10.3423V3.88636Z" fill="black"/>
<defs>
<linearGradient id="paint0_linear_22_362" x1="218.706" y1="7.5" x2="257.706" y2="7.5" gradientUnits="userSpaceOnUse">
<stop offset="0.5599" stop-color="#F05A28"/>
<stop offset="0.56" stop-color="#9197B3"/>
</linearGradient>
</defs>
</svg>
