<svg width="61" height="61" viewBox="0 0 61 61" fill="none" xmlns="http://www.w3.org/2000/svg">
<rect x="0.5" y="1" width="60" height="59" rx="13.5" stroke="#F05A28"/>
<path d="M20.5341 24.3636V36H18.7727V26.125H18.7045L15.9205 27.9432V26.2614L18.8239 24.3636H20.5341Z" fill="#F05A28"/>
<path d="M37.6498 21L31.3496 21C31.2858 21.0002 31.2233 21.017 31.1688 21.0485C31.1142 21.0801 31.0698 21.1253 31.0401 21.1792C31.0105 21.2331 30.9968 21.2936 31.0006 21.3544C31.0044 21.4151 31.0255 21.4738 31.0616 21.5239L34.2116 25.865C34.3422 26.045 34.6565 26.045 34.7874 25.865L37.9375 21.5239C37.974 21.4739 37.9953 21.4152 37.9993 21.3544C38.0033 21.2935 37.9897 21.2328 37.9601 21.1788C37.9304 21.1248 37.8858 21.0796 37.8311 21.048C37.7764 21.0165 37.7137 20.9999 37.6498 21Z" fill="#F05A28"/>
<path d="M31.3502 40H37.6504C37.7142 39.9998 37.7767 39.983 37.8312 39.9515C37.8858 39.9199 37.9302 39.8747 37.9599 39.8208C37.9895 39.7669 38.0032 39.7064 37.9994 39.6456C37.9956 39.5849 37.9745 39.5262 37.9384 39.4761L34.7884 35.135C34.6578 34.955 34.3435 34.955 34.2126 35.135L31.0625 39.4761C31.026 39.5261 31.0047 39.5848 31.0007 39.6456C30.9967 39.7065 31.0103 39.7672 31.0399 39.8212C31.0696 39.8752 31.1142 39.9204 31.1689 39.952C31.2236 39.9835 31.2863 40.0001 31.3502 40Z" fill="#F05A28"/>
</svg>
