<svg width="334" height="72" viewBox="0 0 334 72" fill="none" xmlns="http://www.w3.org/2000/svg">
<path d="M1.00426 14V3.81818H4.82244C5.60464 3.81818 6.26089 3.96401 6.79119 4.25568C7.32481 4.54735 7.72751 4.94839 7.99929 5.45881C8.27438 5.96591 8.41193 6.54261 8.41193 7.18892C8.41193 7.84186 8.27438 8.42187 7.99929 8.92898C7.7242 9.43608 7.31818 9.83546 6.78125 10.1271C6.24432 10.4155 5.5831 10.5597 4.79759 10.5597H2.26705V9.04332H4.54901C5.00639 9.04332 5.38092 8.96378 5.67259 8.80469C5.96425 8.6456 6.17969 8.42685 6.31889 8.14844C6.46141 7.87003 6.53267 7.55019 6.53267 7.18892C6.53267 6.82765 6.46141 6.50947 6.31889 6.23438C6.17969 5.95928 5.9626 5.7455 5.66761 5.59304C5.37595 5.43726 4.99976 5.35938 4.53906 5.35938H2.84872V14H1.00426ZM11.9952 14.1541C11.5113 14.1541 11.0755 14.0679 10.6877 13.8956C10.3032 13.7199 9.99828 13.4614 9.7729 13.12C9.55084 12.7786 9.43981 12.3577 9.43981 11.8572C9.43981 11.4264 9.51935 11.0701 9.67844 10.7884C9.83754 10.5066 10.0546 10.2812 10.3297 10.1122C10.6048 9.94318 10.9147 9.81558 11.2594 9.7294C11.6074 9.63991 11.967 9.57528 12.3382 9.53551C12.7857 9.48911 13.1486 9.44768 13.427 9.41122C13.7054 9.37145 13.9076 9.31179 14.0336 9.23224C14.1628 9.14938 14.2275 9.02178 14.2275 8.84943V8.8196C14.2275 8.44508 14.1164 8.15507 13.8944 7.94957C13.6723 7.74408 13.3525 7.64134 12.9348 7.64134C12.494 7.64134 12.1444 7.73745 11.8858 7.92969C11.6306 8.12192 11.4583 8.34896 11.3688 8.6108L9.68839 8.37216C9.82096 7.90814 10.0397 7.52036 10.3446 7.20881C10.6496 6.89394 11.0224 6.65862 11.4632 6.50284C11.9041 6.34375 12.3913 6.2642 12.9249 6.2642C13.2928 6.2642 13.659 6.30729 14.0236 6.39347C14.3882 6.47964 14.7213 6.62216 15.0229 6.82102C15.3245 7.01657 15.5665 7.28338 15.7488 7.62145C15.9344 7.95952 16.0272 8.3821 16.0272 8.8892V14H14.2971V12.951H14.2374C14.128 13.1631 13.9739 13.362 13.775 13.5476C13.5795 13.7299 13.3326 13.8774 13.0343 13.9901C12.7393 14.0994 12.3929 14.1541 11.9952 14.1541ZM12.4625 12.8317C12.8238 12.8317 13.137 12.7604 13.4022 12.6179C13.6673 12.4721 13.8712 12.2798 14.0137 12.0412C14.1595 11.8026 14.2324 11.5424 14.2324 11.2607V10.3608C14.1761 10.4072 14.08 10.4503 13.9441 10.4901C13.8115 10.5298 13.6623 10.5646 13.4966 10.5945C13.3309 10.6243 13.1668 10.6508 13.0044 10.674C12.842 10.6972 12.7012 10.7171 12.5819 10.7337C12.3134 10.7701 12.0731 10.8298 11.861 10.9126C11.6489 10.9955 11.4815 11.1115 11.3588 11.2607C11.2362 11.4065 11.1749 11.5954 11.1749 11.8274C11.1749 12.1589 11.2959 12.4091 11.5378 12.5781C11.7798 12.7472 12.088 12.8317 12.4625 12.8317ZM18.682 16.8636C18.4367 16.8636 18.2097 16.8438 18.0009 16.804C17.7954 16.7675 17.6313 16.7244 17.5087 16.6747L17.9263 15.2727C18.1882 15.349 18.4218 15.3854 18.6273 15.3821C18.8328 15.3788 19.0134 15.3142 19.1692 15.1882C19.3283 15.0656 19.4625 14.8601 19.5719 14.5717L19.726 14.1591L16.9569 6.36364H18.8659L20.6259 12.1307H20.7054L22.4703 6.36364H24.3844L21.3269 14.9247C21.1844 15.3291 20.9954 15.6754 20.7601 15.9638C20.5248 16.2554 20.2364 16.4775 19.8951 16.63C19.557 16.7857 19.1526 16.8636 18.682 16.8636ZM25.6298 14V6.36364H27.35V7.66122H27.4395C27.5985 7.22372 27.862 6.88234 28.2299 6.63707C28.5978 6.38849 29.037 6.2642 29.5474 6.2642C30.0645 6.2642 30.5003 6.39015 30.8549 6.64205C31.2129 6.89062 31.4648 7.23035 31.6106 7.66122H31.6902C31.8592 7.23698 32.1442 6.89891 32.5453 6.64702C32.9496 6.39181 33.4286 6.2642 33.9821 6.2642C34.6847 6.2642 35.2581 6.48627 35.7022 6.9304C36.1464 7.37453 36.3684 8.02249 36.3684 8.87429V14H34.5637V9.1527C34.5637 8.67874 34.4378 8.33239 34.1859 8.11364C33.934 7.89157 33.6258 7.78054 33.2612 7.78054C32.827 7.78054 32.4873 7.91643 32.242 8.18821C32.0001 8.45668 31.8791 8.80634 31.8791 9.23722V14H30.1142V9.07812C30.1142 8.68371 29.9949 8.36884 29.7562 8.13352C29.5209 7.8982 29.2127 7.78054 28.8315 7.78054C28.573 7.78054 28.3377 7.84683 28.1255 7.9794C27.9134 8.10866 27.7444 8.29261 27.6184 8.53125C27.4925 8.76657 27.4295 9.04167 27.4295 9.35653V14H25.6298ZM41.5749 14.1491C40.8093 14.1491 40.1481 13.9901 39.5913 13.6719C39.0378 13.3504 38.6119 12.8963 38.3136 12.3097C38.0153 11.7197 37.8661 11.0253 37.8661 10.2266C37.8661 9.44105 38.0153 8.75166 38.3136 8.15838C38.6152 7.56179 39.0361 7.09777 39.5763 6.76633C40.1166 6.43158 40.7513 6.2642 41.4805 6.2642C41.9511 6.2642 42.3952 6.34044 42.8129 6.4929C43.2338 6.64205 43.605 6.87405 43.9265 7.18892C44.2513 7.50379 44.5065 7.90483 44.6921 8.39205C44.8777 8.87595 44.9705 9.45265 44.9705 10.1222V10.674H38.7113V9.46094H43.2454C43.2421 9.11624 43.1675 8.80966 43.0217 8.54119C42.8758 8.26941 42.672 8.05563 42.4102 7.89986C42.1516 7.74408 41.85 7.66619 41.5053 7.66619C41.1374 7.66619 40.8143 7.75568 40.5359 7.93466C40.2575 8.11032 40.0404 8.34233 39.8846 8.63068C39.7321 8.91572 39.6542 9.22893 39.6509 9.57031V10.6293C39.6509 11.0734 39.7321 11.4545 39.8945 11.7727C40.0569 12.0876 40.284 12.3295 40.5756 12.4986C40.8673 12.6643 41.2087 12.7472 41.5998 12.7472C41.8616 12.7472 42.0986 12.7107 42.3107 12.6378C42.5228 12.5616 42.7068 12.4505 42.8626 12.3047C43.0183 12.1589 43.136 11.9782 43.2156 11.7628L44.896 11.9517C44.7899 12.3958 44.5877 12.7836 44.2894 13.1151C43.9944 13.4432 43.6166 13.6984 43.1559 13.8807C42.6952 14.0597 42.1682 14.1491 41.5749 14.1491ZM48.2928 9.52557V14H46.4931V6.36364H48.2132V7.66122H48.3027C48.4784 7.23366 48.7585 6.89394 49.1429 6.64205C49.5307 6.39015 50.0096 6.2642 50.5797 6.2642C51.1067 6.2642 51.5658 6.37689 51.9569 6.60227C52.3513 6.82765 52.6562 7.15412 52.8716 7.58168C53.0904 8.00923 53.1981 8.52794 53.1948 9.13778V14H51.3951V9.41619C51.3951 8.90578 51.2625 8.50639 50.9973 8.21804C50.7355 7.92969 50.3726 7.78551 49.9086 7.78551C49.5937 7.78551 49.3136 7.85511 49.0684 7.99432C48.8264 8.13021 48.6358 8.32741 48.4966 8.58594C48.3607 8.84446 48.2928 9.15767 48.2928 9.52557ZM58.8375 6.36364V7.75568H54.4476V6.36364H58.8375ZM55.5314 4.53409H57.3311V11.7031C57.3311 11.9451 57.3676 12.1307 57.4405 12.2599C57.5167 12.3859 57.6162 12.4721 57.7388 12.5185C57.8614 12.5649 57.9973 12.5881 58.1465 12.5881C58.2592 12.5881 58.3619 12.5798 58.4547 12.5632C58.5508 12.5466 58.6238 12.5317 58.6735 12.5185L58.9767 13.9254C58.8806 13.9586 58.7431 13.995 58.5641 14.0348C58.3884 14.0746 58.173 14.0978 57.9178 14.1044C57.467 14.1177 57.061 14.0497 56.6998 13.9006C56.3385 13.7481 56.0518 13.5128 55.8397 13.1946C55.6309 12.8764 55.5281 12.4787 55.5314 12.0014V4.53409ZM63.8949 3.81818H66.152L69.1747 11.196H69.294L72.3168 3.81818H74.5739V14H72.804V7.00497H72.7095L69.8956 13.9702H68.5732L65.7592 6.99006H65.6648V14H63.8949V3.81818ZM79.8835 14.1491C79.1179 14.1491 78.4567 13.9901 77.8999 13.6719C77.3464 13.3504 76.9205 12.8963 76.6222 12.3097C76.3239 11.7197 76.1747 11.0253 76.1747 10.2266C76.1747 9.44105 76.3239 8.75166 76.6222 8.15838C76.9238 7.56179 77.3447 7.09777 77.8849 6.76633C78.4252 6.43158 79.0599 6.2642 79.7891 6.2642C80.2597 6.2642 80.7038 6.34044 81.1214 6.4929C81.5424 6.64205 81.9136 6.87405 82.2351 7.18892C82.5599 7.50379 82.8151 7.90483 83.0007 8.39205C83.1863 8.87595 83.2791 9.45265 83.2791 10.1222V10.674H77.0199V9.46094H81.554C81.5507 9.11624 81.4761 8.80966 81.3303 8.54119C81.1844 8.26941 80.9806 8.05563 80.7188 7.89986C80.4602 7.74408 80.1586 7.66619 79.8139 7.66619C79.446 7.66619 79.1229 7.75568 78.8445 7.93466C78.5661 8.11032 78.349 8.34233 78.1932 8.63068C78.0407 8.91572 77.9628 9.22893 77.9595 9.57031V10.6293C77.9595 11.0734 78.0407 11.4545 78.2031 11.7727C78.3655 12.0876 78.5926 12.3295 78.8842 12.4986C79.1759 12.6643 79.5173 12.7472 79.9084 12.7472C80.1702 12.7472 80.4072 12.7107 80.6193 12.6378C80.8314 12.5616 81.0154 12.4505 81.1712 12.3047C81.3269 12.1589 81.4446 11.9782 81.5241 11.7628L83.2045 11.9517C83.0985 12.3958 82.8963 12.7836 82.598 13.1151C82.303 13.4432 81.9252 13.6984 81.4645 13.8807C81.0038 14.0597 80.4768 14.1491 79.8835 14.1491ZM88.6149 6.36364V7.75568H84.225V6.36364H88.6149ZM85.3088 4.53409H87.1085V11.7031C87.1085 11.9451 87.1449 12.1307 87.2179 12.2599C87.2941 12.3859 87.3935 12.4721 87.5162 12.5185C87.6388 12.5649 87.7747 12.5881 87.9238 12.5881C88.0365 12.5881 88.1393 12.5798 88.2321 12.5632C88.3282 12.5466 88.4011 12.5317 88.4508 12.5185L88.7541 13.9254C88.658 13.9586 88.5204 13.995 88.3414 14.0348C88.1658 14.0746 87.9503 14.0978 87.6951 14.1044C87.2444 14.1177 86.8384 14.0497 86.4771 13.9006C86.1158 13.7481 85.8291 13.5128 85.617 13.1946C85.4082 12.8764 85.3055 12.4787 85.3088 12.0014V4.53409ZM92.0838 9.52557V14H90.2841V3.81818H92.044V7.66122H92.1335C92.3125 7.23035 92.5893 6.89062 92.9638 6.64205C93.3416 6.39015 93.8222 6.2642 94.4055 6.2642C94.9358 6.2642 95.3982 6.37524 95.7926 6.5973C96.187 6.81937 96.492 7.14418 96.7074 7.57173C96.9261 7.99929 97.0355 8.52131 97.0355 9.13778V14H95.2358V9.41619C95.2358 8.90246 95.1032 8.50308 94.8381 8.21804C94.5762 7.92969 94.2083 7.78551 93.7344 7.78551C93.4162 7.78551 93.1312 7.85511 92.8793 7.99432C92.6307 8.13021 92.4351 8.32741 92.2926 8.58594C92.1534 8.84446 92.0838 9.15767 92.0838 9.52557ZM102.201 14.1491C101.455 14.1491 100.809 13.9851 100.262 13.657C99.7152 13.3288 99.291 12.8698 98.9893 12.2798C98.6911 11.6899 98.5419 11.0005 98.5419 10.2116C98.5419 9.42282 98.6911 8.73177 98.9893 8.13849C99.291 7.54522 99.7152 7.08452 100.262 6.75639C100.809 6.42827 101.455 6.2642 102.201 6.2642C102.947 6.2642 103.593 6.42827 104.14 6.75639C104.687 7.08452 105.109 7.54522 105.408 8.13849C105.709 8.73177 105.86 9.42282 105.86 10.2116C105.86 11.0005 105.709 11.6899 105.408 12.2798C105.109 12.8698 104.687 13.3288 104.14 13.657C103.593 13.9851 102.947 14.1491 102.201 14.1491ZM102.211 12.7074C102.615 12.7074 102.953 12.5964 103.225 12.3743C103.497 12.1489 103.699 11.8473 103.832 11.4695C103.968 11.0916 104.036 10.6707 104.036 10.2067C104.036 9.73935 103.968 9.31676 103.832 8.93892C103.699 8.55777 103.497 8.2545 103.225 8.02912C102.953 7.80374 102.615 7.69105 102.211 7.69105C101.797 7.69105 101.452 7.80374 101.177 8.02912C100.905 8.2545 100.701 8.55777 100.565 8.93892C100.433 9.31676 100.366 9.73935 100.366 10.2067C100.366 10.6707 100.433 11.0916 100.565 11.4695C100.701 11.8473 100.905 12.1489 101.177 12.3743C101.452 12.5964 101.797 12.7074 102.211 12.7074ZM110.221 14.1342C109.622 14.1342 109.085 13.9801 108.611 13.6719C108.137 13.3636 107.762 12.9162 107.487 12.3295C107.212 11.7429 107.074 11.0303 107.074 10.1918C107.074 9.34328 107.214 8.62737 107.492 8.04403C107.774 7.45739 108.153 7.01491 108.631 6.71662C109.108 6.41501 109.64 6.2642 110.226 6.2642C110.674 6.2642 111.042 6.34044 111.33 6.4929C111.618 6.64205 111.847 6.82268 112.016 7.0348C112.185 7.24361 112.316 7.44081 112.409 7.62642H112.483V3.81818H114.288V14H112.518V12.7969H112.409C112.316 12.9825 112.182 13.1797 112.006 13.3885C111.831 13.594 111.599 13.7696 111.31 13.9155C111.022 14.0613 110.659 14.1342 110.221 14.1342ZM110.724 12.6577C111.105 12.6577 111.43 12.5549 111.698 12.3494C111.966 12.1406 112.17 11.8506 112.309 11.4794C112.449 11.1082 112.518 10.6757 112.518 10.1818C112.518 9.68797 112.449 9.25876 112.309 8.89418C112.174 8.52959 111.971 8.24621 111.703 8.04403C111.438 7.84186 111.111 7.74077 110.724 7.74077C110.323 7.74077 109.988 7.84517 109.719 8.05398C109.451 8.26278 109.249 8.55114 109.113 8.91903C108.977 9.28693 108.909 9.70786 108.909 10.1818C108.909 10.6591 108.977 11.085 109.113 11.4595C109.252 11.8307 109.456 12.1241 109.724 12.3395C109.996 12.5516 110.329 12.6577 110.724 12.6577ZM122.241 8.3821L120.601 8.56108C120.554 8.39536 120.473 8.23958 120.357 8.09375C120.245 7.94792 120.092 7.83026 119.9 7.74077C119.708 7.65128 119.472 7.60653 119.194 7.60653C118.819 7.60653 118.504 7.68774 118.249 7.85014C117.997 8.01255 117.873 8.22301 117.876 8.48153C117.873 8.7036 117.954 8.88423 118.12 9.02344C118.289 9.16264 118.567 9.27699 118.955 9.36648L120.258 9.64489C120.98 9.80066 121.517 10.0476 121.869 10.3857C122.223 10.7237 122.402 11.1662 122.406 11.7131C122.402 12.1937 122.261 12.6179 121.983 12.9858C121.708 13.3504 121.325 13.6354 120.835 13.8409C120.344 14.0464 119.781 14.1491 119.144 14.1491C118.21 14.1491 117.457 13.9536 116.887 13.5625C116.317 13.1681 115.977 12.6196 115.868 11.9169L117.623 11.7479C117.702 12.0926 117.871 12.3527 118.13 12.5284C118.388 12.7041 118.725 12.7919 119.139 12.7919C119.567 12.7919 119.91 12.7041 120.168 12.5284C120.43 12.3527 120.561 12.1357 120.561 11.8771C120.561 11.6584 120.477 11.4777 120.308 11.3352C120.142 11.1927 119.883 11.0833 119.532 11.0071L118.229 10.7337C117.497 10.5812 116.955 10.3243 116.604 9.96307C116.252 9.59848 116.078 9.13778 116.082 8.58097C116.078 8.11032 116.206 7.70265 116.464 7.35795C116.726 7.00994 117.089 6.74148 117.553 6.55256C118.021 6.36032 118.559 6.2642 119.169 6.2642C120.064 6.2642 120.768 6.45478 121.282 6.83594C121.799 7.21709 122.119 7.73248 122.241 8.3821Z" fill="black"/>
<rect x="0.5" y="31.5" width="156" height="40" rx="10.5" stroke="#F05A28"/>
<rect x="6.5" y="45.5" width="12" height="12" rx="6" stroke="#D9D9D9"/>
<circle cx="12.5" cy="51.5" r="2.5" fill="#F05A28"/>
<path d="M36.4261 50H35.1932C35.1203 49.6454 34.9927 49.3338 34.8104 49.0653C34.6314 48.7969 34.4126 48.5715 34.1541 48.3892C33.8989 48.2036 33.6155 48.0644 33.304 47.9716C32.9924 47.8788 32.6676 47.8324 32.3295 47.8324C31.7131 47.8324 31.1546 47.9882 30.6541 48.2997C30.157 48.6113 29.7609 49.0703 29.4659 49.6768C29.1742 50.2834 29.0284 51.0275 29.0284 51.9091C29.0284 52.7907 29.1742 53.5348 29.4659 54.1413C29.7609 54.7479 30.157 55.2069 30.6541 55.5185C31.1546 55.83 31.7131 55.9858 32.3295 55.9858C32.6676 55.9858 32.9924 55.9394 33.304 55.8466C33.6155 55.7538 33.8989 55.6162 34.1541 55.4339C34.4126 55.2483 34.6314 55.0213 34.8104 54.7528C34.9927 54.4811 35.1203 54.1695 35.1932 53.8182H36.4261C36.3333 54.3385 36.1643 54.8042 35.919 55.2152C35.6738 55.6262 35.3688 55.9759 35.0043 56.2642C34.6397 56.5492 34.2304 56.7663 33.7763 56.9155C33.3255 57.0646 32.8433 57.1392 32.3295 57.1392C31.4612 57.1392 30.6889 56.9271 30.0128 56.5028C29.3366 56.0786 28.8047 55.4754 28.4169 54.6932C28.0291 53.911 27.8352 52.983 27.8352 51.9091C27.8352 50.8352 28.0291 49.9072 28.4169 49.125C28.8047 48.3428 29.3366 47.7396 30.0128 47.3153C30.6889 46.8911 31.4612 46.679 32.3295 46.679C32.8433 46.679 33.3255 46.7536 33.7763 46.9027C34.2304 47.0518 34.6397 47.2706 35.0043 47.5589C35.3688 47.844 35.6738 48.192 35.919 48.603C36.1643 49.0107 36.3333 49.4763 36.4261 50ZM38.2594 57V49.3636H39.3929V50.517H39.4725C39.6117 50.1392 39.8636 49.8326 40.2282 49.5973C40.5927 49.362 41.0037 49.2443 41.4611 49.2443C41.5473 49.2443 41.655 49.246 41.7843 49.2493C41.9135 49.2526 42.0113 49.2576 42.0776 49.2642V50.4574C42.0378 50.4474 41.9467 50.4325 41.8042 50.4126C41.665 50.3894 41.5175 50.3778 41.3617 50.3778C40.9905 50.3778 40.659 50.4557 40.3674 50.6115C40.079 50.764 39.8503 50.9761 39.6813 51.2479C39.5156 51.5163 39.4327 51.8229 39.4327 52.1676V57H38.2594ZM46.4377 57.1591C45.7019 57.1591 45.0672 56.9967 44.5336 56.6719C44.0033 56.3438 43.5939 55.8864 43.3056 55.2997C43.0205 54.7098 42.878 54.0237 42.878 53.2415C42.878 52.4593 43.0205 51.7699 43.3056 51.1733C43.5939 50.5734 43.995 50.1061 44.5087 49.7713C45.0257 49.4332 45.629 49.2642 46.3184 49.2642C46.7161 49.2642 47.1088 49.3305 47.4966 49.4631C47.8844 49.5956 48.2374 49.8111 48.5556 50.1094C48.8738 50.4044 49.1273 50.7955 49.3162 51.2827C49.5051 51.7699 49.5996 52.3698 49.5996 53.0824V53.5795H43.7132V52.5653H48.4064C48.4064 52.1345 48.3203 51.75 48.1479 51.4119C47.9789 51.0739 47.7369 50.8071 47.4221 50.6115C47.1105 50.416 46.7426 50.3182 46.3184 50.3182C45.851 50.3182 45.4467 50.4342 45.1053 50.6662C44.7672 50.8949 44.507 51.1932 44.3248 51.5611C44.1425 51.929 44.0513 52.3234 44.0513 52.7443V53.4205C44.0513 53.9972 44.1507 54.486 44.3496 54.8871C44.5518 55.2848 44.8319 55.5881 45.1898 55.7969C45.5478 56.0024 45.9637 56.1051 46.4377 56.1051C46.7459 56.1051 47.0243 56.062 47.2729 55.9759C47.5248 55.8864 47.7419 55.7538 47.9242 55.5781C48.1065 55.3991 48.2473 55.1771 48.3468 54.9119L49.4803 55.2301C49.361 55.6146 49.1605 55.9527 48.8787 56.2443C48.597 56.5327 48.249 56.758 47.8347 56.9205C47.4204 57.0795 46.9547 57.1591 46.4377 57.1591ZM54.2679 57.1591C53.6316 57.1591 53.0698 56.9983 52.5826 56.6768C52.0953 56.352 51.7142 55.8946 51.4391 55.3047C51.164 54.7114 51.0265 54.0104 51.0265 53.2017C51.0265 52.3996 51.164 51.7036 51.4391 51.1136C51.7142 50.5237 52.097 50.0679 52.5875 49.7464C53.0781 49.425 53.6448 49.2642 54.2878 49.2642C54.785 49.2642 55.1777 49.3471 55.4661 49.5128C55.7578 49.6752 55.9798 49.8608 56.1323 50.0696C56.2881 50.2751 56.409 50.4441 56.4952 50.5767H56.5946V46.8182H57.7679V57H56.6344V55.8267H56.4952C56.409 55.9659 56.2864 56.1416 56.1273 56.3537C55.9682 56.5625 55.7412 56.7498 55.4462 56.9155C55.1512 57.0779 54.7585 57.1591 54.2679 57.1591ZM54.427 56.1051C54.8977 56.1051 55.2954 55.9825 55.6202 55.7372C55.945 55.4886 56.1919 55.1456 56.361 54.7081C56.53 54.2673 56.6145 53.7585 56.6145 53.1818C56.6145 52.6117 56.5317 52.1129 56.3659 51.6854C56.2002 51.2545 55.955 50.9197 55.6301 50.6811C55.3053 50.4392 54.9043 50.3182 54.427 50.3182C53.9299 50.3182 53.5156 50.4458 53.1841 50.701C52.856 50.9529 52.6091 51.2959 52.4434 51.7301C52.281 52.161 52.1998 52.6449 52.1998 53.1818C52.1998 53.7254 52.2826 54.2192 52.4483 54.6634C52.6174 55.1042 52.8659 55.4555 53.1941 55.7173C53.5255 55.9759 53.9365 56.1051 54.427 56.1051ZM60.0797 57V49.3636H61.253V57H60.0797ZM60.6763 48.0909C60.4476 48.0909 60.2504 48.013 60.0847 47.8572C59.9223 47.7015 59.8411 47.5142 59.8411 47.2955C59.8411 47.0767 59.9223 46.8894 60.0847 46.7337C60.2504 46.5779 60.4476 46.5 60.6763 46.5C60.905 46.5 61.1006 46.5779 61.263 46.7337C61.4287 46.8894 61.5115 47.0767 61.5115 47.2955C61.5115 47.5142 61.4287 47.7015 61.263 47.8572C61.1006 48.013 60.905 48.0909 60.6763 48.0909ZM66.723 49.3636V50.358H62.7656V49.3636H66.723ZM63.919 47.5341H65.0923V54.8125C65.0923 55.1439 65.1404 55.3925 65.2365 55.5582C65.3359 55.7206 65.4619 55.83 65.6143 55.8864C65.7701 55.9394 65.9342 55.9659 66.1065 55.9659C66.2358 55.9659 66.3419 55.9593 66.4247 55.946C66.5076 55.9295 66.5739 55.9162 66.6236 55.9062L66.8622 56.9602C66.7827 56.9901 66.6716 57.0199 66.5291 57.0497C66.3866 57.0829 66.206 57.0994 65.9872 57.0994C65.6558 57.0994 65.331 57.0282 65.0128 56.8857C64.6979 56.7431 64.4361 56.526 64.2273 56.2344C64.0218 55.9427 63.919 55.5748 63.919 55.1307V47.5341ZM72.0874 46.3409L68.8061 58.5312H67.7322L71.0135 46.3409H72.0874ZM76.7793 57H73.6373V46.8182H76.9185C77.9062 46.8182 78.7514 47.022 79.454 47.4297C80.1567 47.834 80.6953 48.4157 81.0698 49.1747C81.4443 49.9304 81.6316 50.8352 81.6316 51.8892C81.6316 52.9498 81.4426 53.8629 81.0648 54.6286C80.687 55.3909 80.1368 55.9775 79.4142 56.3885C78.6917 56.7962 77.8134 57 76.7793 57ZM74.8702 55.9062H76.6998C77.5416 55.9062 78.2393 55.7438 78.7928 55.419C79.3463 55.0942 79.7589 54.6319 80.0307 54.032C80.3025 53.4321 80.4384 52.7178 80.4384 51.8892C80.4384 51.0672 80.3042 50.3596 80.0357 49.7663C79.7672 49.1697 79.3662 48.7124 78.8326 48.3942C78.2989 48.0727 77.6344 47.9119 76.839 47.9119H74.8702V55.9062ZM86.7424 57.1591C86.0066 57.1591 85.3719 56.9967 84.8382 56.6719C84.3079 56.3438 83.8986 55.8864 83.6103 55.2997C83.3252 54.7098 83.1827 54.0237 83.1827 53.2415C83.1827 52.4593 83.3252 51.7699 83.6103 51.1733C83.8986 50.5734 84.2997 50.1061 84.8134 49.7713C85.3304 49.4332 85.9337 49.2642 86.623 49.2642C87.0208 49.2642 87.4135 49.3305 87.8013 49.4631C88.1891 49.5956 88.5421 49.8111 88.8603 50.1094C89.1784 50.4044 89.432 50.7955 89.6209 51.2827C89.8098 51.7699 89.9043 52.3698 89.9043 53.0824V53.5795H84.0179V52.5653H88.7111C88.7111 52.1345 88.6249 51.75 88.4526 51.4119C88.2836 51.0739 88.0416 50.8071 87.7267 50.6115C87.4152 50.416 87.0473 50.3182 86.623 50.3182C86.1557 50.3182 85.7514 50.4342 85.41 50.6662C85.0719 50.8949 84.8117 51.1932 84.6294 51.5611C84.4471 51.929 84.356 52.3234 84.356 52.7443V53.4205C84.356 53.9972 84.4554 54.486 84.6543 54.8871C84.8565 55.2848 85.1365 55.5881 85.4945 55.7969C85.8525 56.0024 86.2684 56.1051 86.7424 56.1051C87.0506 56.1051 87.329 56.062 87.5776 55.9759C87.8295 55.8864 88.0466 55.7538 88.2289 55.5781C88.4112 55.3991 88.552 55.1771 88.6515 54.9119L89.785 55.2301C89.6657 55.6146 89.4651 55.9527 89.1834 56.2443C88.9017 56.5327 88.5537 56.758 88.1394 56.9205C87.7251 57.0795 87.2594 57.1591 86.7424 57.1591ZM91.8482 57V46.8182H93.0215V50.5767H93.1209C93.2071 50.4441 93.3264 50.2751 93.4789 50.0696C93.6346 49.8608 93.8567 49.6752 94.1451 49.5128C94.4367 49.3471 94.8311 49.2642 95.3283 49.2642C95.9713 49.2642 96.5381 49.425 97.0286 49.7464C97.5191 50.0679 97.9019 50.5237 98.177 51.1136C98.4521 51.7036 98.5897 52.3996 98.5897 53.2017C98.5897 54.0104 98.4521 54.7114 98.177 55.3047C97.9019 55.8946 97.5208 56.352 97.0336 56.6768C96.5463 56.9983 95.9846 57.1591 95.3482 57.1591C94.8577 57.1591 94.4649 57.0779 94.1699 56.9155C93.8749 56.7498 93.6479 56.5625 93.4888 56.3537C93.3297 56.1416 93.2071 55.9659 93.1209 55.8267H92.9817V57H91.8482ZM93.0016 53.1818C93.0016 53.7585 93.0861 54.2673 93.2551 54.7081C93.4242 55.1456 93.6711 55.4886 93.9959 55.7372C94.3207 55.9825 94.7185 56.1051 95.1891 56.1051C95.6796 56.1051 96.089 55.9759 96.4171 55.7173C96.7485 55.4555 96.9971 55.1042 97.1628 54.6634C97.3319 54.2192 97.4164 53.7254 97.4164 53.1818C97.4164 52.6449 97.3335 52.161 97.1678 51.7301C97.0054 51.2959 96.7585 50.9529 96.427 50.701C96.0989 50.4458 95.6863 50.3182 95.1891 50.3182C94.7118 50.3182 94.3108 50.4392 93.986 50.6811C93.6612 50.9197 93.4159 51.2545 93.2502 51.6854C93.0845 52.1129 93.0016 52.6117 93.0016 53.1818ZM100.384 57V49.3636H101.558V57H100.384ZM100.981 48.0909C100.752 48.0909 100.555 48.013 100.389 47.8572C100.227 47.7015 100.146 47.5142 100.146 47.2955C100.146 47.0767 100.227 46.8894 100.389 46.7337C100.555 46.5779 100.752 46.5 100.981 46.5C101.21 46.5 101.405 46.5779 101.568 46.7337C101.733 46.8894 101.816 47.0767 101.816 47.2955C101.816 47.5142 101.733 47.7015 101.568 47.8572C101.405 48.013 101.21 48.0909 100.981 48.0909ZM107.028 49.3636V50.358H103.07V49.3636H107.028ZM104.224 47.5341H105.397V54.8125C105.397 55.1439 105.445 55.3925 105.541 55.5582C105.641 55.7206 105.767 55.83 105.919 55.8864C106.075 55.9394 106.239 55.9659 106.411 55.9659C106.54 55.9659 106.647 55.9593 106.729 55.946C106.812 55.9295 106.879 55.9162 106.928 55.9062L107.167 56.9602C107.087 56.9901 106.976 57.0199 106.834 57.0497C106.691 57.0829 106.511 57.0994 106.292 57.0994C105.96 57.0994 105.636 57.0282 105.317 56.8857C105.003 56.7431 104.741 56.526 104.532 56.2344C104.326 55.9427 104.224 55.5748 104.224 55.1307V47.5341ZM121.082 50H119.849C119.777 49.6454 119.649 49.3338 119.467 49.0653C119.288 48.7969 119.069 48.5715 118.81 48.3892C118.555 48.2036 118.272 48.0644 117.96 47.9716C117.649 47.8788 117.324 47.8324 116.986 47.8324C116.369 47.8324 115.811 47.9882 115.31 48.2997C114.813 48.6113 114.417 49.0703 114.122 49.6768C113.83 50.2834 113.685 51.0275 113.685 51.9091C113.685 52.7907 113.83 53.5348 114.122 54.1413C114.417 54.7479 114.813 55.2069 115.31 55.5185C115.811 55.83 116.369 55.9858 116.986 55.9858C117.324 55.9858 117.649 55.9394 117.96 55.8466C118.272 55.7538 118.555 55.6162 118.81 55.4339C119.069 55.2483 119.288 55.0213 119.467 54.7528C119.649 54.4811 119.777 54.1695 119.849 53.8182H121.082C120.99 54.3385 120.821 54.8042 120.575 55.2152C120.33 55.6262 120.025 55.9759 119.661 56.2642C119.296 56.5492 118.887 56.7663 118.433 56.9155C117.982 57.0646 117.5 57.1392 116.986 57.1392C116.117 57.1392 115.345 56.9271 114.669 56.5028C113.993 56.0786 113.461 55.4754 113.073 54.6932C112.685 53.911 112.491 52.983 112.491 51.9091C112.491 50.8352 112.685 49.9072 113.073 49.125C113.461 48.3428 113.993 47.7396 114.669 47.3153C115.345 46.8911 116.117 46.679 116.986 46.679C117.5 46.679 117.982 46.7536 118.433 46.9027C118.887 47.0518 119.296 47.2706 119.661 47.5589C120.025 47.844 120.33 48.192 120.575 48.603C120.821 49.0107 120.99 49.4763 121.082 50ZM125.163 57.179C124.679 57.179 124.24 57.0878 123.845 56.9055C123.451 56.7199 123.138 56.4531 122.906 56.1051C122.674 55.7538 122.558 55.3295 122.558 54.8324C122.558 54.3949 122.644 54.0402 122.816 53.7685C122.989 53.4934 123.219 53.2779 123.507 53.1222C123.796 52.9664 124.114 52.8504 124.462 52.7741C124.813 52.6946 125.166 52.6316 125.521 52.5852C125.985 52.5256 126.361 52.4808 126.649 52.451C126.941 52.4179 127.153 52.3632 127.286 52.2869C127.422 52.2107 127.49 52.0781 127.49 51.8892V51.8494C127.49 51.3589 127.355 50.9777 127.087 50.706C126.822 50.4342 126.419 50.2983 125.879 50.2983C125.319 50.2983 124.879 50.4209 124.561 50.6662C124.243 50.9115 124.019 51.1733 123.89 51.4517L122.776 51.054C122.975 50.59 123.24 50.2287 123.572 49.9702C123.907 49.7083 124.271 49.526 124.666 49.4233C125.063 49.3172 125.454 49.2642 125.839 49.2642C126.084 49.2642 126.366 49.294 126.684 49.3537C127.006 49.41 127.316 49.5277 127.614 49.7067C127.915 49.8857 128.166 50.1558 128.365 50.517C128.563 50.8783 128.663 51.3622 128.663 51.9688V57H127.49V55.9659H127.43C127.35 56.1316 127.218 56.3089 127.032 56.4979C126.847 56.6868 126.6 56.8475 126.291 56.9801C125.983 57.1127 125.607 57.179 125.163 57.179ZM125.342 56.125C125.806 56.125 126.197 56.0339 126.515 55.8516C126.837 55.6693 127.079 55.4339 127.241 55.1456C127.407 54.8572 127.49 54.554 127.49 54.2358V53.1619C127.44 53.2216 127.33 53.2763 127.161 53.326C126.996 53.3724 126.803 53.4138 126.585 53.4503C126.369 53.4834 126.159 53.5133 125.953 53.5398C125.751 53.563 125.587 53.5829 125.461 53.5994C125.156 53.6392 124.871 53.7038 124.606 53.7933C124.344 53.8795 124.132 54.0104 123.97 54.1861C123.811 54.3584 123.731 54.5937 123.731 54.892C123.731 55.2997 123.882 55.608 124.183 55.8168C124.488 56.0223 124.874 56.125 125.342 56.125ZM130.804 57V49.3636H131.938V50.517H132.017C132.157 50.1392 132.408 49.8326 132.773 49.5973C133.138 49.362 133.549 49.2443 134.006 49.2443C134.092 49.2443 134.2 49.246 134.329 49.2493C134.458 49.2526 134.556 49.2576 134.623 49.2642V50.4574C134.583 50.4474 134.492 50.4325 134.349 50.4126C134.21 50.3894 134.062 50.3778 133.907 50.3778C133.535 50.3778 133.204 50.4557 132.912 50.6115C132.624 50.764 132.395 50.9761 132.226 51.2479C132.06 51.5163 131.978 51.8229 131.978 52.1676V57H130.804ZM138.664 57.1591C138.028 57.1591 137.466 56.9983 136.979 56.6768C136.492 56.352 136.111 55.8946 135.836 55.3047C135.56 54.7114 135.423 54.0104 135.423 53.2017C135.423 52.3996 135.56 51.7036 135.836 51.1136C136.111 50.5237 136.493 50.0679 136.984 49.7464C137.475 49.425 138.041 49.2642 138.684 49.2642C139.181 49.2642 139.574 49.3471 139.863 49.5128C140.154 49.6752 140.376 49.8608 140.529 50.0696C140.685 50.2751 140.806 50.4441 140.892 50.5767H140.991V46.8182H142.164V57H141.031V55.8267H140.892C140.806 55.9659 140.683 56.1416 140.524 56.3537C140.365 56.5625 140.138 56.7498 139.843 56.9155C139.548 57.0779 139.155 57.1591 138.664 57.1591ZM138.824 56.1051C139.294 56.1051 139.692 55.9825 140.017 55.7372C140.342 55.4886 140.588 55.1456 140.757 54.7081C140.926 54.2673 141.011 53.7585 141.011 53.1818C141.011 52.6117 140.928 52.1129 140.762 51.6854C140.597 51.2545 140.351 50.9197 140.027 50.6811C139.702 50.4392 139.301 50.3182 138.824 50.3182C138.326 50.3182 137.912 50.4458 137.581 50.701C137.252 50.9529 137.006 51.2959 136.84 51.7301C136.677 52.161 136.596 52.6449 136.596 53.1818C136.596 53.7254 136.679 54.2192 136.845 54.6634C137.014 55.1042 137.262 55.4555 137.591 55.7173C137.922 55.9759 138.333 56.1051 138.824 56.1051Z" fill="black"/>
<rect x="171.5" y="31.5" width="162" height="40" rx="10.5" stroke="#BCBEC0"/>
<rect x="177.5" y="45.5" width="12" height="12" rx="6" stroke="#BCBEC0"/>
<path d="M207.824 51.9091C207.824 52.983 207.63 53.911 207.242 54.6932C206.854 55.4754 206.322 56.0786 205.646 56.5028C204.97 56.9271 204.198 57.1392 203.33 57.1392C202.461 57.1392 201.689 56.9271 201.013 56.5028C200.337 56.0786 199.805 55.4754 199.417 54.6932C199.029 53.911 198.835 52.983 198.835 51.9091C198.835 50.8352 199.029 49.9072 199.417 49.125C199.805 48.3428 200.337 47.7396 201.013 47.3153C201.689 46.8911 202.461 46.679 203.33 46.679C204.198 46.679 204.97 46.8911 205.646 47.3153C206.322 47.7396 206.854 48.3428 207.242 49.125C207.63 49.9072 207.824 50.8352 207.824 51.9091ZM206.631 51.9091C206.631 51.0275 206.483 50.2834 206.188 49.6768C205.897 49.0703 205.5 48.6113 205 48.2997C204.503 47.9882 203.946 47.8324 203.33 47.8324C202.713 47.8324 202.155 47.9882 201.654 48.2997C201.157 48.6113 200.761 49.0703 200.466 49.6768C200.174 50.2834 200.028 51.0275 200.028 51.9091C200.028 52.7907 200.174 53.5348 200.466 54.1413C200.761 54.7479 201.157 55.2069 201.654 55.5185C202.155 55.83 202.713 55.9858 203.33 55.9858C203.946 55.9858 204.503 55.83 205 55.5185C205.5 55.2069 205.897 54.7479 206.188 54.1413C206.483 53.5348 206.631 52.7907 206.631 51.9091ZM213.059 49.3636V50.358H209.102V49.3636H213.059ZM210.255 47.5341H211.428V54.8125C211.428 55.1439 211.476 55.3925 211.572 55.5582C211.672 55.7206 211.798 55.83 211.95 55.8864C212.106 55.9394 212.27 55.9659 212.442 55.9659C212.572 55.9659 212.678 55.9593 212.761 55.946C212.844 55.9295 212.91 55.9162 212.96 55.9062L213.198 56.9602C213.119 56.9901 213.008 57.0199 212.865 57.0497C212.723 57.0829 212.542 57.0994 212.323 57.0994C211.992 57.0994 211.667 57.0282 211.349 56.8857C211.034 56.7431 210.772 56.526 210.563 56.2344C210.358 55.9427 210.255 55.5748 210.255 55.1307V47.5341ZM216.161 52.4062V57H214.988V46.8182H216.161V50.5568H216.261C216.44 50.1624 216.708 49.8492 217.066 49.6172C217.427 49.3819 217.908 49.2642 218.508 49.2642C219.028 49.2642 219.484 49.3686 219.875 49.5774C220.266 49.7829 220.569 50.0994 220.785 50.527C221.004 50.9512 221.113 51.4915 221.113 52.1477V57H219.94V52.2273C219.94 51.6207 219.782 51.1518 219.467 50.8203C219.156 50.4856 218.723 50.3182 218.17 50.3182C217.785 50.3182 217.441 50.3994 217.136 50.5618C216.834 50.7242 216.595 50.9612 216.42 51.2727C216.247 51.5843 216.161 51.9621 216.161 52.4062ZM226.461 57.1591C225.725 57.1591 225.091 56.9967 224.557 56.6719C224.027 56.3438 223.617 55.8864 223.329 55.2997C223.044 54.7098 222.901 54.0237 222.901 53.2415C222.901 52.4593 223.044 51.7699 223.329 51.1733C223.617 50.5734 224.018 50.1061 224.532 49.7713C225.049 49.4332 225.652 49.2642 226.342 49.2642C226.74 49.2642 227.132 49.3305 227.52 49.4631C227.908 49.5956 228.261 49.8111 228.579 50.1094C228.897 50.4044 229.151 50.7955 229.34 51.2827C229.529 51.7699 229.623 52.3698 229.623 53.0824V53.5795H223.737V52.5653H228.43C228.43 52.1345 228.344 51.75 228.171 51.4119C228.002 51.0739 227.76 50.8071 227.445 50.6115C227.134 50.416 226.766 50.3182 226.342 50.3182C225.874 50.3182 225.47 50.4342 225.129 50.6662C224.791 50.8949 224.53 51.1932 224.348 51.5611C224.166 51.929 224.075 52.3234 224.075 52.7443V53.4205C224.075 53.9972 224.174 54.486 224.373 54.8871C224.575 55.2848 224.855 55.5881 225.213 55.7969C225.571 56.0024 225.987 56.1051 226.461 56.1051C226.769 56.1051 227.048 56.062 227.296 55.9759C227.548 55.8864 227.765 55.7538 227.948 55.5781C228.13 55.3991 228.271 55.1771 228.37 54.9119L229.504 55.2301C229.384 55.6146 229.184 55.9527 228.902 56.2443C228.62 56.5327 228.272 56.758 227.858 56.9205C227.444 57.0795 226.978 57.1591 226.461 57.1591ZM231.408 57V49.3636H232.541V50.517H232.621C232.76 50.1392 233.012 49.8326 233.377 49.5973C233.741 49.362 234.152 49.2443 234.61 49.2443C234.696 49.2443 234.803 49.246 234.933 49.2493C235.062 49.2526 235.16 49.2576 235.226 49.2642V50.4574C235.186 50.4474 235.095 50.4325 234.953 50.4126C234.813 50.3894 234.666 50.3778 234.51 50.3778C234.139 50.3778 233.807 50.4557 233.516 50.6115C233.227 50.764 232.999 50.9761 232.83 51.2479C232.664 51.5163 232.581 51.8229 232.581 52.1676V57H231.408ZM240.713 46.8182H242.185L245.645 55.2699H245.765L249.225 46.8182H250.696V57H249.543V49.2642H249.444L246.262 57H245.148L241.966 49.2642H241.867V57H240.713V46.8182ZM256.211 57.1591C255.475 57.1591 254.841 56.9967 254.307 56.6719C253.777 56.3438 253.367 55.8864 253.079 55.2997C252.794 54.7098 252.651 54.0237 252.651 53.2415C252.651 52.4593 252.794 51.7699 253.079 51.1733C253.367 50.5734 253.768 50.1061 254.282 49.7713C254.799 49.4332 255.402 49.2642 256.092 49.2642C256.49 49.2642 256.882 49.3305 257.27 49.4631C257.658 49.5956 258.011 49.8111 258.329 50.1094C258.647 50.4044 258.901 50.7955 259.09 51.2827C259.279 51.7699 259.373 52.3698 259.373 53.0824V53.5795H253.487V52.5653H258.18C258.18 52.1345 258.094 51.75 257.921 51.4119C257.752 51.0739 257.51 50.8071 257.195 50.6115C256.884 50.416 256.516 50.3182 256.092 50.3182C255.624 50.3182 255.22 50.4342 254.879 50.6662C254.541 50.8949 254.28 51.1932 254.098 51.5611C253.916 51.929 253.825 52.3234 253.825 52.7443V53.4205C253.825 53.9972 253.924 54.486 254.123 54.8871C254.325 55.2848 254.605 55.5881 254.963 55.7969C255.321 56.0024 255.737 56.1051 256.211 56.1051C256.519 56.1051 256.798 56.062 257.046 55.9759C257.298 55.8864 257.515 55.7538 257.698 55.5781C257.88 55.3991 258.021 55.1771 258.12 54.9119L259.254 55.2301C259.134 55.6146 258.934 55.9527 258.652 56.2443C258.37 56.5327 258.022 56.758 257.608 56.9205C257.194 57.0795 256.728 57.1591 256.211 57.1591ZM264.479 49.3636V50.358H260.521V49.3636H264.479ZM261.675 47.5341H262.848V54.8125C262.848 55.1439 262.896 55.3925 262.992 55.5582C263.092 55.7206 263.218 55.83 263.37 55.8864C263.526 55.9394 263.69 55.9659 263.862 55.9659C263.992 55.9659 264.098 55.9593 264.181 55.946C264.263 55.9295 264.33 55.9162 264.379 55.9062L264.618 56.9602C264.539 56.9901 264.427 57.0199 264.285 57.0497C264.142 57.0829 263.962 57.0994 263.743 57.0994C263.412 57.0994 263.087 57.0282 262.769 56.8857C262.454 56.7431 262.192 56.526 261.983 56.2344C261.778 55.9427 261.675 55.5748 261.675 55.1307V47.5341ZM267.581 52.4062V57H266.408V46.8182H267.581V50.5568H267.681C267.86 50.1624 268.128 49.8492 268.486 49.6172C268.847 49.3819 269.328 49.2642 269.928 49.2642C270.448 49.2642 270.904 49.3686 271.295 49.5774C271.686 49.7829 271.989 50.0994 272.205 50.527C272.423 50.9512 272.533 51.4915 272.533 52.1477V57H271.36V52.2273C271.36 51.6207 271.202 51.1518 270.887 50.8203C270.576 50.4856 270.143 50.3182 269.59 50.3182C269.205 50.3182 268.86 50.3994 268.556 50.5618C268.254 50.7242 268.015 50.9612 267.84 51.2727C267.667 51.5843 267.581 51.9621 267.581 52.4062ZM277.782 57.1591C277.092 57.1591 276.487 56.995 275.967 56.6669C275.45 56.3388 275.046 55.8797 274.754 55.2898C274.466 54.6998 274.321 54.0104 274.321 53.2216C274.321 52.4261 274.466 51.7318 274.754 51.1385C275.046 50.5452 275.45 50.0845 275.967 49.7564C276.487 49.4283 277.092 49.2642 277.782 49.2642C278.471 49.2642 279.074 49.4283 279.591 49.7564C280.112 50.0845 280.516 50.5452 280.804 51.1385C281.096 51.7318 281.242 52.4261 281.242 53.2216C281.242 54.0104 281.096 54.6998 280.804 55.2898C280.516 55.8797 280.112 56.3388 279.591 56.6669C279.074 56.995 278.471 57.1591 277.782 57.1591ZM277.782 56.1051C278.305 56.1051 278.736 55.9709 279.074 55.7024C279.412 55.4339 279.663 55.081 279.825 54.6435C279.987 54.206 280.069 53.732 280.069 53.2216C280.069 52.7112 279.987 52.2356 279.825 51.7947C279.663 51.3539 279.412 50.9976 279.074 50.7259C278.736 50.4541 278.305 50.3182 277.782 50.3182C277.258 50.3182 276.827 50.4541 276.489 50.7259C276.151 50.9976 275.901 51.3539 275.738 51.7947C275.576 52.2356 275.495 52.7112 275.495 53.2216C275.495 53.732 275.576 54.206 275.738 54.6435C275.901 55.081 276.151 55.4339 276.489 55.7024C276.827 55.9709 277.258 56.1051 277.782 56.1051ZM285.916 57.1591C285.28 57.1591 284.718 56.9983 284.231 56.6768C283.744 56.352 283.363 55.8946 283.088 55.3047C282.812 54.7114 282.675 54.0104 282.675 53.2017C282.675 52.3996 282.812 51.7036 283.088 51.1136C283.363 50.5237 283.745 50.0679 284.236 49.7464C284.727 49.425 285.293 49.2642 285.936 49.2642C286.433 49.2642 286.826 49.3471 287.115 49.5128C287.406 49.6752 287.628 49.8608 287.781 50.0696C287.936 50.2751 288.057 50.4441 288.144 50.5767H288.243V46.8182H289.416V57H288.283V55.8267H288.144C288.057 55.9659 287.935 56.1416 287.776 56.3537C287.617 56.5625 287.39 56.7498 287.095 56.9155C286.8 57.0779 286.407 57.1591 285.916 57.1591ZM286.075 56.1051C286.546 56.1051 286.944 55.9825 287.269 55.7372C287.593 55.4886 287.84 55.1456 288.009 54.7081C288.178 54.2673 288.263 53.7585 288.263 53.1818C288.263 52.6117 288.18 52.1129 288.014 51.6854C287.849 51.2545 287.603 50.9197 287.279 50.6811C286.954 50.4392 286.553 50.3182 286.075 50.3182C285.578 50.3182 285.164 50.4458 284.833 50.701C284.504 50.9529 284.258 51.2959 284.092 51.7301C283.929 52.161 283.848 52.6449 283.848 53.1818C283.848 53.7254 283.931 54.2192 284.097 54.6634C284.266 55.1042 284.514 55.4555 284.843 55.7173C285.174 55.9759 285.585 56.1051 286.075 56.1051ZM297.137 51.0739L296.083 51.3722C296.017 51.1965 295.919 51.0258 295.79 50.8601C295.664 50.6911 295.492 50.5518 295.273 50.4425C295.054 50.3331 294.774 50.2784 294.433 50.2784C293.965 50.2784 293.576 50.3861 293.264 50.6016C292.956 50.8137 292.802 51.0838 292.802 51.4119C292.802 51.7036 292.908 51.9339 293.12 52.103C293.332 52.272 293.664 52.4129 294.115 52.5256L295.248 52.804C295.931 52.9697 296.44 53.2232 296.774 53.5646C297.109 53.9027 297.276 54.3385 297.276 54.8722C297.276 55.3097 297.151 55.7008 296.899 56.0455C296.65 56.3902 296.302 56.6619 295.855 56.8608C295.407 57.0597 294.887 57.1591 294.294 57.1591C293.515 57.1591 292.87 56.9901 292.36 56.652C291.849 56.3139 291.526 55.8201 291.39 55.1705L292.504 54.892C292.61 55.303 292.81 55.6113 293.105 55.8168C293.404 56.0223 293.793 56.125 294.274 56.125C294.82 56.125 295.255 56.009 295.576 55.777C295.901 55.5417 296.063 55.2599 296.063 54.9318C296.063 54.6667 295.971 54.4446 295.785 54.2656C295.599 54.0833 295.314 53.9474 294.93 53.858L293.657 53.5597C292.958 53.3939 292.444 53.1371 292.116 52.7891C291.791 52.4377 291.629 51.9986 291.629 51.4716C291.629 51.0407 291.75 50.6596 291.992 50.3281C292.237 49.9967 292.57 49.7365 292.991 49.5476C293.415 49.3587 293.896 49.2642 294.433 49.2642C295.188 49.2642 295.782 49.4299 296.213 49.7614C296.647 50.0928 296.955 50.5303 297.137 51.0739Z" fill="#BCBEC0"/>
</svg>
