<svg width="291" height="331" viewBox="0 0 291 331" fill="none" xmlns="http://www.w3.org/2000/svg">
<rect x="99.5" width="92" height="92" rx="46" fill="#F05A28"/>
<path d="M157.539 31L141.961 51.7121L132.75 42.4308L128.5 46.7165L142.664 61L162.5 35.2857L157.539 31Z" fill="white"/>
<path d="M58.2238 141V127.909H63.1329C64.1386 127.909 64.9823 128.097 65.6642 128.472C66.3502 128.847 66.868 129.362 67.2174 130.018C67.5711 130.67 67.748 131.412 67.748 132.243C67.748 133.082 67.5711 133.828 67.2174 134.48C66.8637 135.132 66.3417 135.646 65.6514 136.021C64.961 136.391 64.1109 136.577 63.1009 136.577H59.8474V134.627H62.7813C63.3694 134.627 63.8509 134.525 64.2259 134.32C64.6009 134.116 64.8779 133.835 65.0569 133.477C65.2401 133.119 65.3318 132.707 65.3318 132.243C65.3318 131.778 65.2401 131.369 65.0569 131.016C64.8779 130.662 64.5988 130.387 64.2195 130.191C63.8445 129.991 63.3609 129.891 62.7686 129.891H60.5953V141H58.2238ZM72.355 141.198C71.7329 141.198 71.1725 141.087 70.6739 140.866C70.1796 140.64 69.7876 140.308 69.4978 139.869C69.2123 139.43 69.0695 138.888 69.0695 138.245C69.0695 137.691 69.1718 137.233 69.3763 136.871C69.5809 136.509 69.86 136.219 70.2137 136.001C70.5674 135.784 70.9658 135.62 71.409 135.509C71.8564 135.394 72.3188 135.311 72.7961 135.26C73.3714 135.2 73.838 135.147 74.1959 135.1C74.5539 135.049 74.8138 134.972 74.9758 134.87C75.142 134.763 75.2251 134.599 75.2251 134.378V134.339C75.2251 133.858 75.0823 133.485 74.7968 133.221C74.5113 132.957 74.1001 132.825 73.5631 132.825C72.9964 132.825 72.5468 132.948 72.2144 133.195C71.8863 133.442 71.6647 133.734 71.5496 134.071L69.3891 133.764C69.5596 133.168 69.8408 132.669 70.2329 132.268C70.6249 131.864 71.1043 131.561 71.6711 131.361C72.2378 131.156 72.8643 131.054 73.5503 131.054C74.0233 131.054 74.4942 131.109 74.963 131.22C75.4317 131.331 75.86 131.514 76.2478 131.77C76.6356 132.021 76.9466 132.364 77.181 132.799C77.4197 133.234 77.539 133.777 77.539 134.429V141H75.3145V139.651H75.2378C75.0972 139.924 74.8991 140.18 74.6434 140.418C74.392 140.653 74.0745 140.842 73.691 140.987C73.3117 141.128 72.8664 141.198 72.355 141.198ZM72.9559 139.498C73.4204 139.498 73.8231 139.406 74.164 139.223C74.5049 139.036 74.767 138.788 74.9502 138.482C75.1377 138.175 75.2314 137.84 75.2314 137.478V136.321C75.159 136.381 75.0354 136.436 74.8607 136.487C74.6903 136.538 74.4985 136.583 74.2854 136.621C74.0724 136.66 73.8614 136.694 73.6526 136.724C73.4438 136.754 73.2627 136.779 73.1093 136.8C72.7641 136.847 72.4552 136.924 72.1824 137.031C71.9097 137.137 71.6945 137.286 71.5368 137.478C71.3792 137.665 71.3003 137.908 71.3003 138.207C71.3003 138.633 71.4559 138.955 71.767 139.172C72.078 139.389 72.4743 139.498 72.9559 139.498ZM80.9523 144.682C80.637 144.682 80.3451 144.656 80.0766 144.605C79.8124 144.558 79.6015 144.503 79.4438 144.439L79.9807 142.636C80.3174 142.734 80.6178 142.781 80.882 142.777C81.1462 142.773 81.3785 142.69 81.5787 142.528C81.7833 142.37 81.9559 142.106 82.0965 141.735L82.2947 141.205L78.7343 131.182H81.1888L83.4516 138.597H83.5539L85.8231 131.182H88.284L84.3529 142.189C84.1697 142.709 83.9268 143.154 83.6242 143.525C83.3216 143.9 82.9509 144.185 82.512 144.381C82.0773 144.582 81.5574 144.682 80.9523 144.682ZM89.8852 141V131.182H92.0969V132.85H92.2119C92.4165 132.288 92.7552 131.849 93.2282 131.533C93.7013 131.214 94.2659 131.054 94.9221 131.054C95.5869 131.054 96.1473 131.216 96.6032 131.54C97.0635 131.859 97.3873 132.296 97.5748 132.85H97.6771C97.8944 132.305 98.2609 131.87 98.7765 131.546C99.2964 131.218 99.9122 131.054 100.624 131.054C101.527 131.054 102.264 131.339 102.835 131.911C103.407 132.482 103.692 133.315 103.692 134.41V141H101.372V134.768C101.372 134.158 101.21 133.713 100.886 133.432C100.562 133.146 100.166 133.004 99.697 133.004C99.1388 133.004 98.702 133.178 98.3866 133.528C98.0756 133.873 97.92 134.322 97.92 134.876V141H95.6508V134.672C95.6508 134.165 95.4974 133.76 95.1906 133.457C94.8881 133.155 94.4917 133.004 94.0017 133.004C93.6693 133.004 93.3667 133.089 93.094 133.259C92.8213 133.425 92.604 133.662 92.442 133.969C92.2801 134.271 92.1991 134.625 92.1991 135.03V141H89.8852ZM110.386 141.192C109.402 141.192 108.552 140.987 107.836 140.578C107.124 140.165 106.576 139.581 106.193 138.827C105.809 138.068 105.618 137.175 105.618 136.148C105.618 135.138 105.809 134.252 106.193 133.489C106.581 132.722 107.122 132.126 107.816 131.7C108.511 131.269 109.327 131.054 110.265 131.054C110.87 131.054 111.441 131.152 111.978 131.348C112.519 131.54 112.996 131.838 113.41 132.243C113.827 132.648 114.155 133.163 114.394 133.79C114.633 134.412 114.752 135.153 114.752 136.014V136.724H106.704V135.164H112.534C112.53 134.721 112.434 134.327 112.246 133.982C112.059 133.632 111.797 133.357 111.46 133.157C111.128 132.957 110.74 132.857 110.297 132.857C109.824 132.857 109.408 132.972 109.05 133.202C108.692 133.428 108.413 133.726 108.213 134.097C108.017 134.463 107.917 134.866 107.912 135.305V136.666C107.912 137.237 108.017 137.727 108.226 138.136C108.434 138.541 108.726 138.852 109.101 139.07C109.476 139.283 109.915 139.389 110.418 139.389C110.755 139.389 111.059 139.342 111.332 139.249C111.605 139.151 111.841 139.008 112.042 138.82C112.242 138.633 112.393 138.401 112.495 138.124L114.656 138.366C114.52 138.937 114.26 139.436 113.876 139.862C113.497 140.284 113.011 140.612 112.419 140.847C111.826 141.077 111.149 141.192 110.386 141.192ZM119.023 135.247V141H116.709V131.182H118.921V132.85H119.036C119.262 132.3 119.622 131.864 120.116 131.54C120.615 131.216 121.231 131.054 121.964 131.054C122.641 131.054 123.231 131.199 123.734 131.489C124.241 131.778 124.633 132.198 124.91 132.748C125.192 133.298 125.33 133.964 125.326 134.749V141H123.012V135.107C123.012 134.45 122.842 133.937 122.501 133.566C122.164 133.195 121.697 133.01 121.101 133.01C120.696 133.01 120.336 133.099 120.021 133.278C119.709 133.453 119.464 133.707 119.285 134.039C119.111 134.371 119.023 134.774 119.023 135.247ZM132.581 131.182V132.972H126.937V131.182H132.581ZM128.33 128.83H130.644V138.047C130.644 138.358 130.691 138.597 130.785 138.763C130.883 138.925 131.011 139.036 131.168 139.095C131.326 139.155 131.501 139.185 131.692 139.185C131.837 139.185 131.969 139.174 132.089 139.153C132.212 139.131 132.306 139.112 132.37 139.095L132.76 140.904C132.636 140.947 132.459 140.994 132.229 141.045C132.003 141.096 131.726 141.126 131.398 141.134C130.819 141.151 130.297 141.064 129.832 140.872C129.368 140.676 128.999 140.374 128.726 139.964C128.458 139.555 128.326 139.044 128.33 138.43V128.83ZM146.198 131.508C146.138 130.95 145.886 130.515 145.443 130.204C145.004 129.893 144.433 129.737 143.73 129.737C143.236 129.737 142.812 129.812 142.458 129.961C142.104 130.11 141.834 130.312 141.646 130.568C141.459 130.824 141.363 131.116 141.359 131.444C141.359 131.717 141.421 131.953 141.544 132.153C141.672 132.354 141.845 132.524 142.062 132.665C142.279 132.801 142.52 132.916 142.784 133.01C143.048 133.104 143.315 133.183 143.583 133.246L144.81 133.553C145.305 133.668 145.78 133.824 146.236 134.02C146.696 134.216 147.107 134.463 147.47 134.761C147.836 135.06 148.126 135.42 148.339 135.842C148.552 136.263 148.658 136.758 148.658 137.325C148.658 138.092 148.462 138.767 148.07 139.351C147.678 139.93 147.112 140.384 146.37 140.712C145.633 141.036 144.74 141.198 143.692 141.198C142.673 141.198 141.789 141.04 141.039 140.725C140.293 140.41 139.71 139.95 139.288 139.344C138.87 138.739 138.644 138.002 138.61 137.133H140.943C140.977 137.589 141.118 137.968 141.365 138.271C141.612 138.573 141.934 138.799 142.33 138.948C142.731 139.097 143.178 139.172 143.673 139.172C144.188 139.172 144.64 139.095 145.028 138.942C145.42 138.784 145.727 138.567 145.948 138.29C146.17 138.009 146.283 137.68 146.287 137.305C146.283 136.964 146.183 136.683 145.987 136.462C145.791 136.236 145.516 136.048 145.162 135.899C144.813 135.746 144.403 135.609 143.935 135.49L142.445 135.107C141.367 134.83 140.515 134.41 139.889 133.847C139.266 133.281 138.955 132.528 138.955 131.591C138.955 130.82 139.164 130.144 139.582 129.565C140.004 128.985 140.577 128.536 141.301 128.216C142.026 127.892 142.846 127.73 143.762 127.73C144.691 127.73 145.505 127.892 146.204 128.216C146.907 128.536 147.459 128.981 147.859 129.552C148.26 130.119 148.467 130.771 148.479 131.508H146.198ZM156.928 136.871V131.182H159.242V141H156.998V139.255H156.896C156.675 139.805 156.31 140.254 155.803 140.604C155.3 140.953 154.68 141.128 153.943 141.128C153.3 141.128 152.731 140.985 152.236 140.7C151.746 140.41 151.363 139.99 151.086 139.44C150.809 138.886 150.67 138.217 150.67 137.433V131.182H152.984V137.075C152.984 137.697 153.155 138.192 153.496 138.558C153.837 138.925 154.284 139.108 154.838 139.108C155.179 139.108 155.509 139.025 155.829 138.859C156.148 138.692 156.41 138.445 156.615 138.117C156.824 137.785 156.928 137.369 156.928 136.871ZM165.904 141.192C164.924 141.192 164.082 140.977 163.379 140.546C162.68 140.116 162.141 139.521 161.762 138.763C161.387 138 161.2 137.122 161.2 136.129C161.2 135.132 161.391 134.252 161.775 133.489C162.158 132.722 162.7 132.126 163.399 131.7C164.102 131.269 164.933 131.054 165.891 131.054C166.688 131.054 167.394 131.201 168.007 131.495C168.625 131.785 169.117 132.196 169.484 132.729C169.85 133.257 170.059 133.875 170.11 134.582H167.899C167.809 134.109 167.596 133.715 167.259 133.4C166.927 133.08 166.482 132.92 165.923 132.92C165.45 132.92 165.035 133.048 164.677 133.304C164.319 133.555 164.04 133.918 163.84 134.391C163.644 134.864 163.546 135.43 163.546 136.091C163.546 136.76 163.644 137.335 163.84 137.817C164.036 138.294 164.31 138.663 164.664 138.923C165.022 139.178 165.442 139.306 165.923 139.306C166.264 139.306 166.569 139.242 166.837 139.114C167.11 138.982 167.338 138.793 167.521 138.545C167.705 138.298 167.83 137.998 167.899 137.644H170.11C170.055 138.339 169.85 138.955 169.497 139.491C169.143 140.024 168.661 140.442 168.052 140.744C167.443 141.043 166.727 141.192 165.904 141.192ZM176.293 141.192C175.313 141.192 174.471 140.977 173.768 140.546C173.069 140.116 172.53 139.521 172.151 138.763C171.776 138 171.588 137.122 171.588 136.129C171.588 135.132 171.78 134.252 172.164 133.489C172.547 132.722 173.088 132.126 173.787 131.7C174.49 131.269 175.321 131.054 176.28 131.054C177.077 131.054 177.782 131.201 178.396 131.495C179.014 131.785 179.506 132.196 179.872 132.729C180.239 133.257 180.448 133.875 180.499 134.582H178.287C178.198 134.109 177.985 133.715 177.648 133.4C177.316 133.08 176.87 132.92 176.312 132.92C175.839 132.92 175.424 133.048 175.066 133.304C174.708 133.555 174.429 133.918 174.228 134.391C174.032 134.864 173.934 135.43 173.934 136.091C173.934 136.76 174.032 137.335 174.228 137.817C174.424 138.294 174.699 138.663 175.053 138.923C175.411 139.178 175.831 139.306 176.312 139.306C176.653 139.306 176.958 139.242 177.226 139.114C177.499 138.982 177.727 138.793 177.91 138.545C178.093 138.298 178.219 137.998 178.287 137.644H180.499C180.443 138.339 180.239 138.955 179.885 139.491C179.532 140.024 179.05 140.442 178.441 140.744C177.831 141.043 177.115 141.192 176.293 141.192ZM186.745 141.192C185.761 141.192 184.911 140.987 184.195 140.578C183.483 140.165 182.936 139.581 182.552 138.827C182.169 138.068 181.977 137.175 181.977 136.148C181.977 135.138 182.169 134.252 182.552 133.489C182.94 132.722 183.481 132.126 184.176 131.7C184.87 131.269 185.687 131.054 186.624 131.054C187.229 131.054 187.8 131.152 188.337 131.348C188.878 131.54 189.356 131.838 189.769 132.243C190.187 132.648 190.515 133.163 190.753 133.79C190.992 134.412 191.111 135.153 191.111 136.014V136.724H183.064V135.164H188.893C188.889 134.721 188.793 134.327 188.606 133.982C188.418 133.632 188.156 133.357 187.819 133.157C187.487 132.957 187.099 132.857 186.656 132.857C186.183 132.857 185.767 132.972 185.41 133.202C185.052 133.428 184.772 133.726 184.572 134.097C184.376 134.463 184.276 134.866 184.272 135.305V136.666C184.272 137.237 184.376 137.727 184.585 138.136C184.794 138.541 185.086 138.852 185.461 139.07C185.836 139.283 186.275 139.389 186.777 139.389C187.114 139.389 187.419 139.342 187.691 139.249C187.964 139.151 188.201 139.008 188.401 138.82C188.601 138.633 188.753 138.401 188.855 138.124L191.015 138.366C190.879 138.937 190.619 139.436 190.236 139.862C189.856 140.284 189.37 140.612 188.778 140.847C188.186 141.077 187.508 141.192 186.745 141.192ZM200.829 133.777L198.719 134.007C198.66 133.794 198.555 133.594 198.406 133.406C198.261 133.219 198.065 133.067 197.818 132.952C197.571 132.837 197.268 132.78 196.91 132.78C196.429 132.78 196.024 132.884 195.696 133.093C195.372 133.302 195.212 133.572 195.217 133.905C195.212 134.19 195.317 134.423 195.53 134.602C195.747 134.781 196.105 134.928 196.604 135.043L198.278 135.401C199.207 135.601 199.898 135.918 200.349 136.353C200.805 136.788 201.035 137.357 201.04 138.06C201.035 138.678 200.854 139.223 200.496 139.696C200.143 140.165 199.65 140.531 199.02 140.795C198.389 141.06 197.665 141.192 196.847 141.192C195.645 141.192 194.677 140.94 193.945 140.438C193.212 139.93 192.775 139.225 192.634 138.322L194.891 138.104C194.993 138.548 195.21 138.882 195.543 139.108C195.875 139.334 196.307 139.447 196.84 139.447C197.39 139.447 197.831 139.334 198.163 139.108C198.5 138.882 198.668 138.603 198.668 138.271C198.668 137.989 198.56 137.757 198.342 137.574C198.129 137.391 197.797 137.25 197.345 137.152L195.67 136.8C194.729 136.604 194.032 136.274 193.58 135.81C193.128 135.341 192.905 134.749 192.909 134.033C192.905 133.428 193.069 132.903 193.401 132.46C193.738 132.013 194.204 131.668 194.801 131.425C195.402 131.178 196.094 131.054 196.878 131.054C198.029 131.054 198.935 131.299 199.595 131.789C200.26 132.279 200.671 132.942 200.829 133.777ZM210.708 133.777L208.598 134.007C208.539 133.794 208.434 133.594 208.285 133.406C208.14 133.219 207.944 133.067 207.697 132.952C207.45 132.837 207.147 132.78 206.789 132.78C206.308 132.78 205.903 132.884 205.575 133.093C205.251 133.302 205.091 133.572 205.095 133.905C205.091 134.19 205.196 134.423 205.409 134.602C205.626 134.781 205.984 134.928 206.483 135.043L208.157 135.401C209.086 135.601 209.777 135.918 210.228 136.353C210.684 136.788 210.914 137.357 210.919 138.06C210.914 138.678 210.733 139.223 210.375 139.696C210.022 140.165 209.529 140.531 208.899 140.795C208.268 141.06 207.544 141.192 206.725 141.192C205.524 141.192 204.556 140.94 203.823 140.438C203.09 139.93 202.654 139.225 202.513 138.322L204.769 138.104C204.872 138.548 205.089 138.882 205.421 139.108C205.754 139.334 206.186 139.447 206.719 139.447C207.269 139.447 207.71 139.334 208.042 139.108C208.379 138.882 208.547 138.603 208.547 138.271C208.547 137.989 208.438 137.757 208.221 137.574C208.008 137.391 207.676 137.25 207.224 137.152L205.549 136.8C204.608 136.604 203.911 136.274 203.459 135.81C203.007 135.341 202.784 134.749 202.788 134.033C202.784 133.428 202.948 132.903 203.28 132.46C203.617 132.013 204.083 131.668 204.68 131.425C205.281 131.178 205.973 131.054 206.757 131.054C207.908 131.054 208.813 131.299 209.474 131.789C210.139 132.279 210.55 132.942 210.708 133.777ZM217.8 131.182V132.972H211.996V131.182H217.8ZM213.447 141V130.255C213.447 129.594 213.583 129.045 213.856 128.606C214.133 128.167 214.503 127.839 214.968 127.621C215.432 127.404 215.948 127.295 216.515 127.295C216.915 127.295 217.271 127.327 217.582 127.391C217.893 127.455 218.123 127.513 218.273 127.564L217.812 129.354C217.714 129.324 217.591 129.294 217.442 129.264C217.293 129.23 217.126 129.213 216.943 129.213C216.513 129.213 216.208 129.317 216.029 129.526C215.854 129.731 215.767 130.025 215.767 130.408V141H213.447ZM225.87 136.871V131.182H228.184V141H225.94V139.255H225.838C225.616 139.805 225.252 140.254 224.745 140.604C224.242 140.953 223.622 141.128 222.884 141.128C222.241 141.128 221.672 140.985 221.178 140.7C220.688 140.41 220.304 139.99 220.027 139.44C219.75 138.886 219.612 138.217 219.612 137.433V131.182H221.926V137.075C221.926 137.697 222.096 138.192 222.437 138.558C222.778 138.925 223.225 139.108 223.779 139.108C224.12 139.108 224.451 139.025 224.77 138.859C225.09 138.692 225.352 138.445 225.556 138.117C225.765 137.785 225.87 137.369 225.87 136.871ZM232.877 127.909V141H230.563V127.909H232.877Z" fill="black"/>
<path d="M5.35795 172.818H6.76989L9.59375 177.571H9.71307L12.5369 172.818H13.9489L10.2699 178.804V183H9.03693V178.804L5.35795 172.818ZM17.4066 183.159C16.7172 183.159 16.1123 182.995 15.592 182.667C15.0749 182.339 14.6706 181.88 14.3789 181.29C14.0906 180.7 13.9464 180.01 13.9464 179.222C13.9464 178.426 14.0906 177.732 14.3789 177.138C14.6706 176.545 15.0749 176.085 15.592 175.756C16.1123 175.428 16.7172 175.264 17.4066 175.264C18.096 175.264 18.6992 175.428 19.2163 175.756C19.7366 176.085 20.141 176.545 20.4293 177.138C20.721 177.732 20.8668 178.426 20.8668 179.222C20.8668 180.01 20.721 180.7 20.4293 181.29C20.141 181.88 19.7366 182.339 19.2163 182.667C18.6992 182.995 18.096 183.159 17.4066 183.159ZM17.4066 182.105C17.9303 182.105 18.3612 181.971 18.6992 181.702C19.0373 181.434 19.2875 181.081 19.4499 180.643C19.6123 180.206 19.6935 179.732 19.6935 179.222C19.6935 178.711 19.6123 178.236 19.4499 177.795C19.2875 177.354 19.0373 176.998 18.6992 176.726C18.3612 176.454 17.9303 176.318 17.4066 176.318C16.8829 176.318 16.4521 176.454 16.114 176.726C15.7759 176.998 15.5257 177.354 15.3633 177.795C15.2009 178.236 15.1197 178.711 15.1197 179.222C15.1197 179.732 15.2009 180.206 15.3633 180.643C15.5257 181.081 15.7759 181.434 16.114 181.702C16.4521 181.971 16.8829 182.105 17.4066 182.105ZM27.4703 179.878V175.364H28.6436V183H27.4703V181.707H27.3908C27.2118 182.095 26.9334 182.425 26.5556 182.697C26.1777 182.965 25.7005 183.099 25.1238 183.099C24.6465 183.099 24.2222 182.995 23.851 182.786C23.4798 182.574 23.1882 182.256 22.976 181.832C22.7639 181.404 22.6578 180.866 22.6578 180.216V175.364H23.8311V180.136C23.8311 180.693 23.9869 181.137 24.2985 181.469C24.6133 181.8 25.0144 181.966 25.5016 181.966C25.7933 181.966 26.0899 181.891 26.3915 181.742C26.6964 181.593 26.9516 181.364 27.1571 181.056C27.3659 180.748 27.4703 180.355 27.4703 179.878ZM30.7926 183V175.364H31.9261V176.517H32.0057C32.1449 176.139 32.3968 175.833 32.7614 175.597C33.1259 175.362 33.5369 175.244 33.9943 175.244C34.0805 175.244 34.1882 175.246 34.3175 175.249C34.4467 175.253 34.5445 175.258 34.6108 175.264V176.457C34.571 176.447 34.4799 176.433 34.3374 176.413C34.1982 176.389 34.0507 176.378 33.8949 176.378C33.5237 176.378 33.1922 176.456 32.9006 176.612C32.6122 176.764 32.3835 176.976 32.2145 177.248C32.0488 177.516 31.9659 177.823 31.9659 178.168V183H30.7926ZM43.0414 183.159C42.352 183.159 41.7471 182.995 41.2267 182.667C40.7097 182.339 40.3053 181.88 40.0137 181.29C39.7253 180.7 39.5811 180.01 39.5811 179.222C39.5811 178.426 39.7253 177.732 40.0137 177.138C40.3053 176.545 40.7097 176.085 41.2267 175.756C41.7471 175.428 42.352 175.264 43.0414 175.264C43.7308 175.264 44.334 175.428 44.851 175.756C45.3714 176.085 45.7757 176.545 46.0641 177.138C46.3558 177.732 46.5016 178.426 46.5016 179.222C46.5016 180.01 46.3558 180.7 46.0641 181.29C45.7757 181.88 45.3714 182.339 44.851 182.667C44.334 182.995 43.7308 183.159 43.0414 183.159ZM43.0414 182.105C43.565 182.105 43.9959 181.971 44.334 181.702C44.6721 181.434 44.9223 181.081 45.0847 180.643C45.2471 180.206 45.3283 179.732 45.3283 179.222C45.3283 178.711 45.2471 178.236 45.0847 177.795C44.9223 177.354 44.6721 176.998 44.334 176.726C43.9959 176.454 43.565 176.318 43.0414 176.318C42.5177 176.318 42.0868 176.454 41.7488 176.726C41.4107 176.998 41.1605 177.354 40.998 177.795C40.8356 178.236 40.7544 178.711 40.7544 179.222C40.7544 179.732 40.8356 180.206 40.998 180.643C41.1605 181.081 41.4107 181.434 41.7488 181.702C42.0868 181.971 42.5177 182.105 43.0414 182.105ZM48.2926 183V175.364H49.4261V176.517H49.5057C49.6449 176.139 49.8968 175.833 50.2614 175.597C50.6259 175.362 51.0369 175.244 51.4943 175.244C51.5805 175.244 51.6882 175.246 51.8175 175.249C51.9467 175.253 52.0445 175.258 52.1108 175.264V176.457C52.071 176.447 51.9799 176.433 51.8374 176.413C51.6982 176.389 51.5507 176.378 51.3949 176.378C51.0237 176.378 50.6922 176.456 50.4006 176.612C50.1122 176.764 49.8835 176.976 49.7145 177.248C49.5488 177.516 49.4659 177.823 49.4659 178.168V183H48.2926ZM56.1527 183.159C55.5163 183.159 54.9545 182.998 54.4673 182.677C53.9801 182.352 53.599 181.895 53.3239 181.305C53.0488 180.711 52.9112 180.01 52.9112 179.202C52.9112 178.4 53.0488 177.704 53.3239 177.114C53.599 176.524 53.9818 176.068 54.4723 175.746C54.9628 175.425 55.5296 175.264 56.1726 175.264C56.6697 175.264 57.0625 175.347 57.3509 175.513C57.6425 175.675 57.8646 175.861 58.017 176.07C58.1728 176.275 58.2938 176.444 58.38 176.577H58.4794V172.818H59.6527V183H58.5192V181.827H58.38C58.2938 181.966 58.1712 182.142 58.0121 182.354C57.853 182.562 57.6259 182.75 57.331 182.915C57.036 183.078 56.6432 183.159 56.1527 183.159ZM56.3118 182.105C56.7824 182.105 57.1802 181.982 57.505 181.737C57.8298 181.489 58.0767 181.146 58.2457 180.708C58.4148 180.267 58.4993 179.759 58.4993 179.182C58.4993 178.612 58.4164 178.113 58.2507 177.685C58.085 177.254 57.8397 176.92 57.5149 176.681C57.1901 176.439 56.7891 176.318 56.3118 176.318C55.8146 176.318 55.4003 176.446 55.0689 176.701C54.7408 176.953 54.4938 177.296 54.3281 177.73C54.1657 178.161 54.0845 178.645 54.0845 179.182C54.0845 179.725 54.1674 180.219 54.3331 180.663C54.5021 181.104 54.7507 181.455 55.0788 181.717C55.4103 181.976 55.8213 182.105 56.3118 182.105ZM65.1662 183.159C64.4304 183.159 63.7957 182.997 63.2621 182.672C62.7318 182.344 62.3224 181.886 62.0341 181.3C61.7491 180.71 61.6065 180.024 61.6065 179.241C61.6065 178.459 61.7491 177.77 62.0341 177.173C62.3224 176.573 62.7235 176.106 63.2372 175.771C63.7543 175.433 64.3575 175.264 65.0469 175.264C65.4446 175.264 65.8374 175.33 66.2251 175.463C66.6129 175.596 66.9659 175.811 67.2841 176.109C67.6023 176.404 67.8558 176.795 68.0447 177.283C68.2337 177.77 68.3281 178.37 68.3281 179.082V179.58H62.4418V178.565H67.1349C67.1349 178.134 67.0488 177.75 66.8764 177.412C66.7074 177.074 66.4654 176.807 66.1506 176.612C65.839 176.416 65.4711 176.318 65.0469 176.318C64.5795 176.318 64.1752 176.434 63.8338 176.666C63.4957 176.895 63.2356 177.193 63.0533 177.561C62.871 177.929 62.7798 178.323 62.7798 178.744V179.42C62.7798 179.997 62.8793 180.486 63.0781 180.887C63.2803 181.285 63.5604 181.588 63.9183 181.797C64.2763 182.002 64.6922 182.105 65.1662 182.105C65.4744 182.105 65.7528 182.062 66.0014 181.976C66.2533 181.886 66.4704 181.754 66.6527 181.578C66.835 181.399 66.9759 181.177 67.0753 180.912L68.2088 181.23C68.0895 181.615 67.889 181.953 67.6072 182.244C67.3255 182.533 66.9775 182.758 66.5632 182.92C66.1489 183.08 65.6832 183.159 65.1662 183.159ZM70.1129 183V175.364H71.2464V176.517H71.326C71.4652 176.139 71.7171 175.833 72.0817 175.597C72.4463 175.362 72.8572 175.244 73.3146 175.244C73.4008 175.244 73.5085 175.246 73.6378 175.249C73.767 175.253 73.8648 175.258 73.9311 175.264V176.457C73.8913 176.447 73.8002 176.433 73.6577 176.413C73.5185 176.389 73.371 176.378 73.2152 176.378C72.844 176.378 72.5125 176.456 72.2209 176.612C71.9325 176.764 71.7038 176.976 71.5348 177.248C71.3691 177.516 71.2862 177.823 71.2862 178.168V183H70.1129ZM80.9895 183L78.6628 175.364H79.8958L81.5463 181.21H81.6259L83.2566 175.364H84.5094L86.1202 181.19H86.1998L87.8503 175.364H89.0833L86.7566 183H85.6032L83.9327 177.134H83.8134L82.1429 183H80.9895ZM90.6344 183V175.364H91.8077V183H90.6344ZM91.231 174.091C91.0023 174.091 90.8051 174.013 90.6394 173.857C90.477 173.701 90.3958 173.514 90.3958 173.295C90.3958 173.077 90.477 172.889 90.6394 172.734C90.8051 172.578 91.0023 172.5 91.231 172.5C91.4597 172.5 91.6552 172.578 91.8176 172.734C91.9834 172.889 92.0662 173.077 92.0662 173.295C92.0662 173.514 91.9834 173.701 91.8176 173.857C91.6552 174.013 91.4597 174.091 91.231 174.091ZM95.13 172.818V183H93.9567V172.818H95.13ZM98.4522 172.818V183H97.2789V172.818H98.4522ZM104.698 183V172.818H105.871V176.577H105.971C106.057 176.444 106.176 176.275 106.328 176.07C106.484 175.861 106.706 175.675 106.995 175.513C107.286 175.347 107.681 175.264 108.178 175.264C108.821 175.264 109.388 175.425 109.878 175.746C110.369 176.068 110.752 176.524 111.027 177.114C111.302 177.704 111.439 178.4 111.439 179.202C111.439 180.01 111.302 180.711 111.027 181.305C110.752 181.895 110.37 182.352 109.883 182.677C109.396 182.998 108.834 183.159 108.198 183.159C107.707 183.159 107.315 183.078 107.02 182.915C106.725 182.75 106.498 182.562 106.338 182.354C106.179 182.142 106.057 181.966 105.971 181.827H105.831V183H104.698ZM105.851 179.182C105.851 179.759 105.936 180.267 106.105 180.708C106.274 181.146 106.521 181.489 106.846 181.737C107.17 181.982 107.568 182.105 108.039 182.105C108.529 182.105 108.939 181.976 109.267 181.717C109.598 181.455 109.847 181.104 110.012 180.663C110.181 180.219 110.266 179.725 110.266 179.182C110.266 178.645 110.183 178.161 110.017 177.73C109.855 177.296 109.608 176.953 109.277 176.701C108.949 176.446 108.536 176.318 108.039 176.318C107.561 176.318 107.16 176.439 106.836 176.681C106.511 176.92 106.266 177.254 106.1 177.685C105.934 178.113 105.851 178.612 105.851 179.182ZM116.436 183.159C115.7 183.159 115.065 182.997 114.532 182.672C114.001 182.344 113.592 181.886 113.304 181.3C113.019 180.71 112.876 180.024 112.876 179.241C112.876 178.459 113.019 177.77 113.304 177.173C113.592 176.573 113.993 176.106 114.507 175.771C115.024 175.433 115.627 175.264 116.316 175.264C116.714 175.264 117.107 175.33 117.495 175.463C117.882 175.596 118.235 175.811 118.554 176.109C118.872 176.404 119.125 176.795 119.314 177.283C119.503 177.77 119.598 178.37 119.598 179.082V179.58H113.711V178.565H118.404C118.404 178.134 118.318 177.75 118.146 177.412C117.977 177.074 117.735 176.807 117.42 176.612C117.109 176.416 116.741 176.318 116.316 176.318C115.849 176.318 115.445 176.434 115.103 176.666C114.765 176.895 114.505 177.193 114.323 177.561C114.141 177.929 114.049 178.323 114.049 178.744V179.42C114.049 179.997 114.149 180.486 114.348 180.887C114.55 181.285 114.83 181.588 115.188 181.797C115.546 182.002 115.962 182.105 116.436 182.105C116.744 182.105 117.022 182.062 117.271 181.976C117.523 181.886 117.74 181.754 117.922 181.578C118.105 181.399 118.245 181.177 118.345 180.912L119.478 181.23C119.359 181.615 119.158 181.953 118.877 182.244C118.595 182.533 118.247 182.758 117.833 182.92C117.418 183.08 116.953 183.159 116.436 183.159ZM128.203 183.159C127.567 183.159 127.005 182.998 126.518 182.677C126.031 182.352 125.65 181.895 125.375 181.305C125.1 180.711 124.962 180.01 124.962 179.202C124.962 178.4 125.1 177.704 125.375 177.114C125.65 176.524 126.033 176.068 126.523 175.746C127.014 175.425 127.58 175.264 128.223 175.264C128.721 175.264 129.113 175.347 129.402 175.513C129.693 175.675 129.915 175.861 130.068 176.07C130.224 176.275 130.345 176.444 130.431 176.577H130.53V172.818H131.703V183H130.57V181.827H130.431C130.345 181.966 130.222 182.142 130.063 182.354C129.904 182.562 129.677 182.75 129.382 182.915C129.087 183.078 128.694 183.159 128.203 183.159ZM128.363 182.105C128.833 182.105 129.231 181.982 129.556 181.737C129.881 181.489 130.127 181.146 130.297 180.708C130.466 180.267 130.55 179.759 130.55 179.182C130.55 178.612 130.467 178.113 130.301 177.685C130.136 177.254 129.891 176.92 129.566 176.681C129.241 176.439 128.84 176.318 128.363 176.318C127.865 176.318 127.451 176.446 127.12 176.701C126.792 176.953 126.545 177.296 126.379 177.73C126.217 178.161 126.135 178.645 126.135 179.182C126.135 179.725 126.218 180.219 126.384 180.663C126.553 181.104 126.801 181.455 127.13 181.717C127.461 181.976 127.872 182.105 128.363 182.105ZM137.217 183.159C136.481 183.159 135.846 182.997 135.313 182.672C134.783 182.344 134.373 181.886 134.085 181.3C133.8 180.71 133.657 180.024 133.657 179.241C133.657 178.459 133.8 177.77 134.085 177.173C134.373 176.573 134.774 176.106 135.288 175.771C135.805 175.433 136.408 175.264 137.098 175.264C137.495 175.264 137.888 175.33 138.276 175.463C138.664 175.596 139.017 175.811 139.335 176.109C139.653 176.404 139.907 176.795 140.096 177.283C140.284 177.77 140.379 178.37 140.379 179.082V179.58H134.493V178.565H139.186C139.186 178.134 139.1 177.75 138.927 177.412C138.758 177.074 138.516 176.807 138.201 176.612C137.89 176.416 137.522 176.318 137.098 176.318C136.63 176.318 136.226 176.434 135.885 176.666C135.547 176.895 135.286 177.193 135.104 177.561C134.922 177.929 134.831 178.323 134.831 178.744V179.42C134.831 179.997 134.93 180.486 135.129 180.887C135.331 181.285 135.611 181.588 135.969 181.797C136.327 182.002 136.743 182.105 137.217 182.105C137.525 182.105 137.804 182.062 138.052 181.976C138.304 181.886 138.521 181.754 138.703 181.578C138.886 181.399 139.027 181.177 139.126 180.912L140.26 181.23C140.14 181.615 139.94 181.953 139.658 182.244C139.376 182.533 139.028 182.758 138.614 182.92C138.2 183.08 137.734 183.159 137.217 183.159ZM143.337 172.818V183H142.164V172.818H143.337ZM145.486 183V175.364H146.659V183H145.486ZM146.083 174.091C145.854 174.091 145.657 174.013 145.491 173.857C145.329 173.701 145.247 173.514 145.247 173.295C145.247 173.077 145.329 172.889 145.491 172.734C145.657 172.578 145.854 172.5 146.083 172.5C146.311 172.5 146.507 172.578 146.669 172.734C146.835 172.889 146.918 173.077 146.918 173.295C146.918 173.514 146.835 173.701 146.669 173.857C146.507 174.013 146.311 174.091 146.083 174.091ZM155.053 175.364L152.229 183H151.036L148.212 175.364H149.484L151.592 181.449H151.672L153.78 175.364H155.053ZM159.529 183.159C158.794 183.159 158.159 182.997 157.625 182.672C157.095 182.344 156.686 181.886 156.397 181.3C156.112 180.71 155.97 180.024 155.97 179.241C155.97 178.459 156.112 177.77 156.397 177.173C156.686 176.573 157.087 176.106 157.6 175.771C158.118 175.433 158.721 175.264 159.41 175.264C159.808 175.264 160.201 175.33 160.588 175.463C160.976 175.596 161.329 175.811 161.647 176.109C161.966 176.404 162.219 176.795 162.408 177.283C162.597 177.77 162.691 178.37 162.691 179.082V179.58H156.805V178.565H161.498C161.498 178.134 161.412 177.75 161.24 177.412C161.071 177.074 160.829 176.807 160.514 176.612C160.202 176.416 159.834 176.318 159.41 176.318C158.943 176.318 158.538 176.434 158.197 176.666C157.859 176.895 157.599 177.193 157.417 177.561C157.234 177.929 157.143 178.323 157.143 178.744V179.42C157.143 179.997 157.243 180.486 157.441 180.887C157.644 181.285 157.924 181.588 158.282 181.797C158.64 182.002 159.056 182.105 159.529 182.105C159.838 182.105 160.116 182.062 160.365 181.976C160.617 181.886 160.834 181.754 161.016 181.578C161.198 181.399 161.339 181.177 161.439 180.912L162.572 181.23C162.453 181.615 162.252 181.953 161.971 182.244C161.689 182.533 161.341 182.758 160.926 182.92C160.512 183.08 160.047 183.159 159.529 183.159ZM164.476 183V175.364H165.61V176.517H165.689C165.828 176.139 166.08 175.833 166.445 175.597C166.81 175.362 167.221 175.244 167.678 175.244C167.764 175.244 167.872 175.246 168.001 175.249C168.13 175.253 168.228 175.258 168.294 175.264V176.457C168.255 176.447 168.163 176.433 168.021 176.413C167.882 176.389 167.734 176.378 167.578 176.378C167.207 176.378 166.876 176.456 166.584 176.612C166.296 176.764 166.067 176.976 165.898 177.248C165.732 177.516 165.65 177.823 165.65 178.168V183H164.476ZM172.654 183.159C171.919 183.159 171.284 182.997 170.75 182.672C170.22 182.344 169.811 181.886 169.522 181.3C169.237 180.71 169.095 180.024 169.095 179.241C169.095 178.459 169.237 177.77 169.522 177.173C169.811 176.573 170.212 176.106 170.725 175.771C171.243 175.433 171.846 175.264 172.535 175.264C172.933 175.264 173.326 175.33 173.713 175.463C174.101 175.596 174.454 175.811 174.772 176.109C175.091 176.404 175.344 176.795 175.533 177.283C175.722 177.77 175.816 178.37 175.816 179.082V179.58H169.93V178.565H174.623C174.623 178.134 174.537 177.75 174.365 177.412C174.196 177.074 173.954 176.807 173.639 176.612C173.327 176.416 172.959 176.318 172.535 176.318C172.068 176.318 171.663 176.434 171.322 176.666C170.984 176.895 170.724 177.193 170.542 177.561C170.359 177.929 170.268 178.323 170.268 178.744V179.42C170.268 179.997 170.368 180.486 170.566 180.887C170.769 181.285 171.049 181.588 171.407 181.797C171.765 182.002 172.181 182.105 172.654 182.105C172.963 182.105 173.241 182.062 173.49 181.976C173.742 181.886 173.959 181.754 174.141 181.578C174.323 181.399 174.464 181.177 174.564 180.912L175.697 181.23C175.578 181.615 175.377 181.953 175.096 182.244C174.814 182.533 174.466 182.758 174.051 182.92C173.637 183.08 173.172 183.159 172.654 183.159ZM180.485 183.159C179.848 183.159 179.287 182.998 178.799 182.677C178.312 182.352 177.931 181.895 177.656 181.305C177.381 180.711 177.243 180.01 177.243 179.202C177.243 178.4 177.381 177.704 177.656 177.114C177.931 176.524 178.314 176.068 178.804 175.746C179.295 175.425 179.862 175.264 180.505 175.264C181.002 175.264 181.395 175.347 181.683 175.513C181.975 175.675 182.197 175.861 182.349 176.07C182.505 176.275 182.626 176.444 182.712 176.577H182.811V172.818H183.985V183H182.851V181.827H182.712C182.626 181.966 182.503 182.142 182.344 182.354C182.185 182.562 181.958 182.75 181.663 182.915C181.368 183.078 180.975 183.159 180.485 183.159ZM180.644 182.105C181.114 182.105 181.512 181.982 181.837 181.737C182.162 181.489 182.409 181.146 182.578 180.708C182.747 180.267 182.831 179.759 182.831 179.182C182.831 178.612 182.748 178.113 182.583 177.685C182.417 177.254 182.172 176.92 181.847 176.681C181.522 176.439 181.121 176.318 180.644 176.318C180.147 176.318 179.732 176.446 179.401 176.701C179.073 176.953 178.826 177.296 178.66 177.73C178.498 178.161 178.417 178.645 178.417 179.182C178.417 179.725 178.499 180.219 178.665 180.663C178.834 181.104 179.083 181.455 179.411 181.717C179.742 181.976 180.153 182.105 180.644 182.105ZM190.234 183V175.364H191.407V183H190.234ZM190.831 174.091C190.602 174.091 190.405 174.013 190.239 173.857C190.077 173.701 189.995 173.514 189.995 173.295C189.995 173.077 190.077 172.889 190.239 172.734C190.405 172.578 190.602 172.5 190.831 172.5C191.059 172.5 191.255 172.578 191.417 172.734C191.583 172.889 191.666 173.077 191.666 173.295C191.666 173.514 191.583 173.701 191.417 173.857C191.255 174.013 191.059 174.091 190.831 174.091ZM194.73 178.406V183H193.556V175.364H194.69V176.557H194.789C194.968 176.169 195.24 175.857 195.605 175.622C195.969 175.384 196.44 175.264 197.017 175.264C197.534 175.264 197.986 175.37 198.374 175.582C198.762 175.791 199.063 176.109 199.279 176.537C199.494 176.961 199.602 177.498 199.602 178.148V183H198.428V178.227C198.428 177.627 198.273 177.16 197.961 176.825C197.65 176.487 197.222 176.318 196.678 176.318C196.304 176.318 195.969 176.399 195.674 176.562C195.383 176.724 195.152 176.961 194.983 177.273C194.814 177.584 194.73 177.962 194.73 178.406ZM205.663 183V182.105L209.024 178.426C209.419 177.995 209.743 177.621 209.999 177.303C210.254 176.981 210.443 176.679 210.565 176.398C210.691 176.113 210.754 175.814 210.754 175.503C210.754 175.145 210.668 174.835 210.496 174.573C210.327 174.311 210.095 174.109 209.8 173.967C209.505 173.824 209.173 173.753 208.805 173.753C208.414 173.753 208.073 173.834 207.781 173.996C207.493 174.156 207.269 174.379 207.11 174.668C206.954 174.956 206.876 175.294 206.876 175.682H205.703C205.703 175.085 205.841 174.562 206.116 174.111C206.391 173.66 206.765 173.309 207.239 173.057C207.717 172.805 208.252 172.679 208.845 172.679C209.442 172.679 209.97 172.805 210.431 173.057C210.892 173.309 211.253 173.648 211.515 174.076C211.777 174.504 211.908 174.979 211.908 175.503C211.908 175.877 211.84 176.244 211.704 176.602C211.571 176.956 211.339 177.352 211.008 177.79C210.68 178.224 210.224 178.754 209.641 179.381L207.354 181.827V181.906H212.087V183H205.663ZM217.461 183.139C216.712 183.139 216.074 182.935 215.547 182.528C215.02 182.117 214.617 181.522 214.339 180.743C214.06 179.961 213.921 179.016 213.921 177.909C213.921 176.809 214.06 175.869 214.339 175.09C214.621 174.308 215.025 173.711 215.552 173.3C216.082 172.886 216.719 172.679 217.461 172.679C218.203 172.679 218.838 172.886 219.365 173.3C219.895 173.711 220.3 174.308 220.578 175.09C220.86 175.869 221.001 176.809 221.001 177.909C221.001 179.016 220.862 179.961 220.583 180.743C220.305 181.522 219.902 182.117 219.375 182.528C218.848 182.935 218.21 183.139 217.461 183.139ZM217.461 182.045C218.203 182.045 218.78 181.687 219.191 180.972C219.602 180.256 219.808 179.235 219.808 177.909C219.808 177.027 219.713 176.277 219.524 175.657C219.339 175.037 219.07 174.565 218.719 174.24C218.371 173.915 217.951 173.753 217.461 173.753C216.725 173.753 216.15 174.116 215.736 174.842C215.321 175.564 215.114 176.587 215.114 177.909C215.114 178.791 215.207 179.54 215.393 180.156C215.578 180.773 215.845 181.242 216.193 181.563C216.545 181.885 216.967 182.045 217.461 182.045ZM222.91 183V175.364H224.043V176.557H224.143C224.302 176.149 224.559 175.833 224.913 175.607C225.268 175.379 225.694 175.264 226.191 175.264C226.695 175.264 227.114 175.379 227.449 175.607C227.787 175.833 228.05 176.149 228.239 176.557H228.319C228.514 176.162 228.808 175.849 229.199 175.617C229.59 175.382 230.059 175.264 230.606 175.264C231.289 175.264 231.847 175.478 232.281 175.906C232.715 176.33 232.933 176.991 232.933 177.889V183H231.759V177.889C231.759 177.326 231.605 176.923 231.297 176.681C230.989 176.439 230.626 176.318 230.208 176.318C229.671 176.318 229.255 176.481 228.96 176.805C228.665 177.127 228.518 177.535 228.518 178.028V183H227.325V177.77C227.325 177.336 227.184 176.986 226.902 176.721C226.62 176.452 226.257 176.318 225.813 176.318C225.508 176.318 225.223 176.399 224.958 176.562C224.696 176.724 224.484 176.95 224.322 177.238C224.163 177.523 224.083 177.853 224.083 178.227V183H222.91ZM235.078 183V175.364H236.251V183H235.078ZM235.674 174.091C235.446 174.091 235.248 174.013 235.083 173.857C234.92 173.701 234.839 173.514 234.839 173.295C234.839 173.077 234.92 172.889 235.083 172.734C235.248 172.578 235.446 172.5 235.674 172.5C235.903 172.5 236.099 172.578 236.261 172.734C236.427 172.889 236.51 173.077 236.51 173.295C236.51 173.514 236.427 173.701 236.261 173.857C236.099 174.013 235.903 174.091 235.674 174.091ZM239.573 178.406V183H238.4V175.364H239.534V176.557H239.633C239.812 176.169 240.084 175.857 240.448 175.622C240.813 175.384 241.284 175.264 241.86 175.264C242.377 175.264 242.83 175.37 243.218 175.582C243.605 175.791 243.907 176.109 244.122 176.537C244.338 176.961 244.445 177.498 244.445 178.148V183H243.272V178.227C243.272 177.627 243.116 177.16 242.805 176.825C242.493 176.487 242.066 176.318 241.522 176.318C241.148 176.318 240.813 176.399 240.518 176.562C240.226 176.724 239.996 176.961 239.827 177.273C239.658 177.584 239.573 177.962 239.573 178.406ZM251.402 179.878V175.364H252.575V183H251.402V181.707H251.322C251.143 182.095 250.865 182.425 250.487 182.697C250.109 182.965 249.632 183.099 249.055 183.099C248.578 183.099 248.154 182.995 247.783 182.786C247.411 182.574 247.12 182.256 246.908 181.832C246.696 181.404 246.589 180.866 246.589 180.216V175.364H247.763V180.136C247.763 180.693 247.919 181.137 248.23 181.469C248.545 181.8 248.946 181.966 249.433 181.966C249.725 181.966 250.022 181.891 250.323 181.742C250.628 181.593 250.883 181.364 251.089 181.056C251.298 180.748 251.402 180.355 251.402 179.878ZM258.045 175.364V176.358H254.088V175.364H258.045ZM255.241 173.534H256.415V180.812C256.415 181.144 256.463 181.393 256.559 181.558C256.658 181.721 256.784 181.83 256.937 181.886C257.092 181.939 257.256 181.966 257.429 181.966C257.558 181.966 257.664 181.959 257.747 181.946C257.83 181.929 257.896 181.916 257.946 181.906L258.184 182.96C258.105 182.99 257.994 183.02 257.851 183.05C257.709 183.083 257.528 183.099 257.309 183.099C256.978 183.099 256.653 183.028 256.335 182.886C256.02 182.743 255.758 182.526 255.55 182.234C255.344 181.943 255.241 181.575 255.241 181.131V173.534ZM262.93 183.159C262.194 183.159 261.559 182.997 261.026 182.672C260.495 182.344 260.086 181.886 259.798 181.3C259.513 180.71 259.37 180.024 259.37 179.241C259.37 178.459 259.513 177.77 259.798 177.173C260.086 176.573 260.487 176.106 261.001 175.771C261.518 175.433 262.121 175.264 262.811 175.264C263.208 175.264 263.601 175.33 263.989 175.463C264.377 175.596 264.73 175.811 265.048 176.109C265.366 176.404 265.619 176.795 265.808 177.283C265.997 177.77 266.092 178.37 266.092 179.082V179.58H260.205V178.565H264.899C264.899 178.134 264.812 177.75 264.64 177.412C264.471 177.074 264.229 176.807 263.914 176.612C263.603 176.416 263.235 176.318 262.811 176.318C262.343 176.318 261.939 176.434 261.597 176.666C261.259 176.895 260.999 177.193 260.817 177.561C260.635 177.929 260.544 178.323 260.544 178.744V179.42C260.544 179.997 260.643 180.486 260.842 180.887C261.044 181.285 261.324 181.588 261.682 181.797C262.04 182.002 262.456 182.105 262.93 182.105C263.238 182.105 263.517 182.062 263.765 181.976C264.017 181.886 264.234 181.754 264.416 181.578C264.599 181.399 264.74 181.177 264.839 180.912L265.972 181.23C265.853 181.615 265.653 181.953 265.371 182.244C265.089 182.533 264.741 182.758 264.327 182.92C263.913 183.08 263.447 183.159 262.93 183.159ZM273.286 177.074L272.232 177.372C272.165 177.196 272.068 177.026 271.938 176.86C271.812 176.691 271.64 176.552 271.421 176.442C271.203 176.333 270.923 176.278 270.581 176.278C270.114 176.278 269.724 176.386 269.413 176.602C269.105 176.814 268.95 177.084 268.95 177.412C268.95 177.704 269.057 177.934 269.269 178.103C269.481 178.272 269.812 178.413 270.263 178.526L271.396 178.804C272.079 178.97 272.588 179.223 272.923 179.565C273.258 179.903 273.425 180.339 273.425 180.872C273.425 181.31 273.299 181.701 273.047 182.045C272.798 182.39 272.45 182.662 272.003 182.861C271.556 183.06 271.035 183.159 270.442 183.159C269.663 183.159 269.018 182.99 268.508 182.652C267.998 182.314 267.674 181.82 267.539 181.17L268.652 180.892C268.758 181.303 268.959 181.611 269.254 181.817C269.552 182.022 269.941 182.125 270.422 182.125C270.969 182.125 271.403 182.009 271.725 181.777C272.049 181.542 272.212 181.26 272.212 180.932C272.212 180.667 272.119 180.445 271.933 180.266C271.748 180.083 271.463 179.947 271.078 179.858L269.806 179.56C269.106 179.394 268.593 179.137 268.264 178.789C267.94 178.438 267.777 177.999 267.777 177.472C267.777 177.041 267.898 176.66 268.14 176.328C268.385 175.997 268.718 175.737 269.139 175.548C269.564 175.359 270.044 175.264 270.581 175.264C271.337 175.264 271.93 175.43 272.361 175.761C272.795 176.093 273.103 176.53 273.286 177.074Z" fill="#898989"/>
<path d="M1.65057 243H0.357955L4.09659 232.818H5.36932L9.10795 243H7.81534L4.77273 234.429H4.69318L1.65057 243ZM2.12784 239.023H7.33807V240.116H2.12784V239.023ZM10.5348 243V235.364H11.6683V236.557H11.7678C11.9268 236.149 12.1837 235.833 12.5384 235.607C12.893 235.379 13.3189 235.264 13.8161 235.264C14.3198 235.264 14.7391 235.379 15.0739 235.607C15.4119 235.833 15.6754 236.149 15.8643 236.557H15.9439C16.1394 236.162 16.4328 235.849 16.8239 235.617C17.215 235.382 17.6839 235.264 18.2308 235.264C18.9136 235.264 19.4721 235.478 19.9062 235.906C20.3404 236.33 20.5575 236.991 20.5575 237.889V243H19.3842V237.889C19.3842 237.326 19.2301 236.923 18.9219 236.681C18.6136 236.439 18.2507 236.318 17.8331 236.318C17.2962 236.318 16.8802 236.481 16.5852 236.805C16.2902 237.127 16.1428 237.535 16.1428 238.028V243H14.9496V237.77C14.9496 237.336 14.8087 236.986 14.527 236.721C14.2453 236.452 13.8823 236.318 13.4382 236.318C13.1333 236.318 12.8482 236.399 12.5831 236.562C12.3213 236.724 12.1091 236.95 11.9467 237.238C11.7876 237.523 11.7081 237.853 11.7081 238.227V243H10.5348ZM25.805 243.159C25.1156 243.159 24.5108 242.995 23.9904 242.667C23.4734 242.339 23.069 241.88 22.7773 241.29C22.489 240.7 22.3448 240.01 22.3448 239.222C22.3448 238.426 22.489 237.732 22.7773 237.138C23.069 236.545 23.4734 236.085 23.9904 235.756C24.5108 235.428 25.1156 235.264 25.805 235.264C26.4944 235.264 27.0977 235.428 27.6147 235.756C28.1351 236.085 28.5394 236.545 28.8278 237.138C29.1194 237.732 29.2653 238.426 29.2653 239.222C29.2653 240.01 29.1194 240.7 28.8278 241.29C28.5394 241.88 28.1351 242.339 27.6147 242.667C27.0977 242.995 26.4944 243.159 25.805 243.159ZM25.805 242.105C26.3287 242.105 26.7596 241.971 27.0977 241.702C27.4357 241.434 27.686 241.081 27.8484 240.643C28.0108 240.206 28.092 239.732 28.092 239.222C28.092 238.711 28.0108 238.236 27.8484 237.795C27.686 237.354 27.4357 236.998 27.0977 236.726C26.7596 236.454 26.3287 236.318 25.805 236.318C25.2814 236.318 24.8505 236.454 24.5124 236.726C24.1744 236.998 23.9241 237.354 23.7617 237.795C23.5993 238.236 23.5181 238.711 23.5181 239.222C23.5181 239.732 23.5993 240.206 23.7617 240.643C23.9241 241.081 24.1744 241.434 24.5124 241.702C24.8505 241.971 25.2814 242.105 25.805 242.105ZM35.8688 239.878V235.364H37.0421V243H35.8688V241.707H35.7892C35.6103 242.095 35.3319 242.425 34.954 242.697C34.5762 242.965 34.0989 243.099 33.5222 243.099C33.0449 243.099 32.6207 242.995 32.2495 242.786C31.8783 242.574 31.5866 242.256 31.3745 241.832C31.1623 241.404 31.0563 240.866 31.0563 240.216V235.364H32.2296V240.136C32.2296 240.693 32.3854 241.137 32.6969 241.469C33.0118 241.8 33.4128 241.966 33.9 241.966C34.1917 241.966 34.4883 241.891 34.79 241.742C35.0949 241.593 35.3501 241.364 35.5556 241.056C35.7644 240.748 35.8688 240.355 35.8688 239.878ZM40.3643 238.406V243H39.1911V235.364H40.3246V236.557H40.424C40.603 236.169 40.8748 235.857 41.2393 235.622C41.6039 235.384 42.0746 235.264 42.6513 235.264C43.1683 235.264 43.6207 235.37 44.0085 235.582C44.3963 235.791 44.6979 236.109 44.9134 236.537C45.1288 236.961 45.2365 237.498 45.2365 238.148V243H44.0632V238.227C44.0632 237.627 43.9074 237.16 43.5959 236.825C43.2843 236.487 42.8568 236.318 42.3132 236.318C41.9387 236.318 41.6039 236.399 41.3089 236.562C41.0173 236.724 40.7869 236.961 40.6179 237.273C40.4489 237.584 40.3643 237.962 40.3643 238.406ZM50.7015 235.364V236.358H46.7441V235.364H50.7015ZM47.8975 233.534H49.0708V240.812C49.0708 241.144 49.1189 241.393 49.215 241.558C49.3145 241.721 49.4404 241.83 49.5929 241.886C49.7486 241.939 49.9127 241.966 50.085 241.966C50.2143 241.966 50.3204 241.959 50.4032 241.946C50.4861 241.929 50.5524 241.916 50.6021 241.906L50.8407 242.96C50.7612 242.99 50.6502 243.02 50.5076 243.05C50.3651 243.083 50.1845 243.099 49.9657 243.099C49.6343 243.099 49.3095 243.028 48.9913 242.886C48.6764 242.743 48.4146 242.526 48.2058 242.234C48.0003 241.943 47.8975 241.575 47.8975 241.131V233.534ZM56.563 243V232.818H60.0034C60.8021 232.818 61.4551 232.962 61.9622 233.251C62.4726 233.536 62.8504 233.922 63.0957 234.409C63.341 234.896 63.4636 235.44 63.4636 236.04C63.4636 236.64 63.341 237.185 63.0957 237.675C62.8538 238.166 62.4792 238.557 61.9721 238.849C61.465 239.137 60.8154 239.281 60.0233 239.281H57.5574V238.188H59.9835C60.5304 238.188 60.9695 238.093 61.301 237.904C61.6324 237.715 61.8727 237.46 62.0218 237.138C62.1743 236.814 62.2505 236.447 62.2505 236.04C62.2505 235.632 62.1743 235.268 62.0218 234.946C61.8727 234.625 61.6307 234.373 61.296 234.19C60.9612 234.005 60.5171 233.912 59.9636 233.912H57.796V243H56.563ZM67.5378 243.179C67.0539 243.179 66.6148 243.088 66.2203 242.906C65.8259 242.72 65.5127 242.453 65.2807 242.105C65.0487 241.754 64.9327 241.33 64.9327 240.832C64.9327 240.395 65.0189 240.04 65.1912 239.768C65.3636 239.493 65.5939 239.278 65.8823 239.122C66.1706 238.966 66.4888 238.85 66.8368 238.774C67.1882 238.695 67.5411 238.632 67.8958 238.585C68.3598 238.526 68.736 238.481 69.0243 238.451C69.316 238.418 69.5281 238.363 69.6607 238.287C69.7966 238.211 69.8645 238.078 69.8645 237.889V237.849C69.8645 237.359 69.7303 236.978 69.4618 236.706C69.1967 236.434 68.794 236.298 68.2537 236.298C67.6936 236.298 67.2544 236.421 66.9363 236.666C66.6181 236.911 66.3944 237.173 66.2651 237.452L65.1515 237.054C65.3503 236.59 65.6155 236.229 65.9469 235.97C66.2817 235.708 66.6462 235.526 67.0407 235.423C67.4384 235.317 67.8295 235.264 68.214 235.264C68.4592 235.264 68.7409 235.294 69.0591 235.354C69.3806 235.41 69.6905 235.528 69.9888 235.707C70.2904 235.886 70.5407 236.156 70.7395 236.517C70.9384 236.878 71.0378 237.362 71.0378 237.969V243H69.8645V241.966H69.8049C69.7253 242.132 69.5927 242.309 69.4071 242.498C69.2215 242.687 68.9746 242.848 68.6664 242.98C68.3581 243.113 67.9819 243.179 67.5378 243.179ZM67.7168 242.125C68.1808 242.125 68.5719 242.034 68.8901 241.852C69.2116 241.669 69.4535 241.434 69.6159 241.146C69.7817 240.857 69.8645 240.554 69.8645 240.236V239.162C69.8148 239.222 69.7054 239.276 69.5364 239.326C69.3707 239.372 69.1784 239.414 68.9597 239.45C68.7443 239.483 68.5338 239.513 68.3283 239.54C68.1261 239.563 67.9621 239.583 67.8361 239.599C67.5312 239.639 67.2462 239.704 66.981 239.793C66.7192 239.879 66.507 240.01 66.3446 240.186C66.1855 240.358 66.106 240.594 66.106 240.892C66.106 241.3 66.2568 241.608 66.5584 241.817C66.8633 242.022 67.2495 242.125 67.7168 242.125ZM73.1793 243V235.364H74.3526V243H73.1793ZM73.7759 234.091C73.5472 234.091 73.35 234.013 73.1843 233.857C73.0219 233.701 72.9407 233.514 72.9407 233.295C72.9407 233.077 73.0219 232.889 73.1843 232.734C73.35 232.578 73.5472 232.5 73.7759 232.5C74.0046 232.5 74.2002 232.578 74.3626 232.734C74.5283 232.889 74.6112 233.077 74.6112 233.295C74.6112 233.514 74.5283 233.701 74.3626 233.857C74.2002 234.013 74.0046 234.091 73.7759 234.091ZM79.3851 243.159C78.7488 243.159 78.187 242.998 77.6998 242.677C77.2125 242.352 76.8314 241.895 76.5563 241.305C76.2812 240.711 76.1436 240.01 76.1436 239.202C76.1436 238.4 76.2812 237.704 76.5563 237.114C76.8314 236.524 77.2142 236.068 77.7047 235.746C78.1953 235.425 78.762 235.264 79.405 235.264C79.9022 235.264 80.2949 235.347 80.5833 235.513C80.8749 235.675 81.097 235.861 81.2495 236.07C81.4052 236.275 81.5262 236.444 81.6124 236.577H81.7118V232.818H82.8851V243H81.7516V241.827H81.6124C81.5262 241.966 81.4036 242.142 81.2445 242.354C81.0854 242.562 80.8584 242.75 80.5634 242.915C80.2684 243.078 79.8757 243.159 79.3851 243.159ZM79.5442 242.105C80.0149 242.105 80.4126 241.982 80.7374 241.737C81.0622 241.489 81.3091 241.146 81.4782 240.708C81.6472 240.267 81.7317 239.759 81.7317 239.182C81.7317 238.612 81.6489 238.113 81.4831 237.685C81.3174 237.254 81.0721 236.92 80.7473 236.681C80.4225 236.439 80.0215 236.318 79.5442 236.318C79.0471 236.318 78.6328 236.446 78.3013 236.701C77.9732 236.953 77.7263 237.296 77.5605 237.73C77.3981 238.161 77.3169 238.645 77.3169 239.182C77.3169 239.725 77.3998 240.219 77.5655 240.663C77.7346 241.104 77.9831 241.455 78.3113 241.717C78.6427 241.976 79.0537 242.105 79.5442 242.105Z" fill="#898989"/>
<path d="M1.65057 284H0.357955L4.09659 273.818H5.36932L9.10795 284H7.81534L4.77273 275.429H4.69318L1.65057 284ZM2.12784 280.023H7.33807V281.116H2.12784V280.023ZM13.4183 284.159C12.782 284.159 12.2202 283.998 11.733 283.677C11.2457 283.352 10.8646 282.895 10.5895 282.305C10.3144 281.711 10.1768 281.01 10.1768 280.202C10.1768 279.4 10.3144 278.704 10.5895 278.114C10.8646 277.524 11.2474 277.068 11.7379 276.746C12.2285 276.425 12.7952 276.264 13.4382 276.264C13.9354 276.264 14.3281 276.347 14.6165 276.513C14.9081 276.675 15.1302 276.861 15.2827 277.07C15.4384 277.275 15.5594 277.444 15.6456 277.577H15.745V273.818H16.9183V284H15.7848V282.827H15.6456C15.5594 282.966 15.4368 283.142 15.2777 283.354C15.1186 283.562 14.8916 283.75 14.5966 283.915C14.3016 284.078 13.9089 284.159 13.4183 284.159ZM13.5774 283.105C14.0481 283.105 14.4458 282.982 14.7706 282.737C15.0954 282.489 15.3423 282.146 15.5114 281.708C15.6804 281.267 15.7649 280.759 15.7649 280.182C15.7649 279.612 15.6821 279.113 15.5163 278.685C15.3506 278.254 15.1054 277.92 14.7805 277.681C14.4557 277.439 14.0547 277.318 13.5774 277.318C13.0803 277.318 12.666 277.446 12.3345 277.701C12.0064 277.953 11.7595 278.296 11.5938 278.73C11.4313 279.161 11.3501 279.645 11.3501 280.182C11.3501 280.725 11.433 281.219 11.5987 281.663C11.7678 282.104 12.0163 282.455 12.3445 282.717C12.6759 282.976 13.0869 283.105 13.5774 283.105ZM22.1136 284.159C21.4773 284.159 20.9155 283.998 20.4283 283.677C19.9411 283.352 19.5599 282.895 19.2848 282.305C19.0097 281.711 18.8722 281.01 18.8722 280.202C18.8722 279.4 19.0097 278.704 19.2848 278.114C19.5599 277.524 19.9427 277.068 20.4332 276.746C20.9238 276.425 21.4905 276.264 22.1335 276.264C22.6307 276.264 23.0234 276.347 23.3118 276.513C23.6035 276.675 23.8255 276.861 23.978 277.07C24.1338 277.275 24.2547 277.444 24.3409 277.577H24.4403V273.818H25.6136V284H24.4801V282.827H24.3409C24.2547 282.966 24.1321 283.142 23.973 283.354C23.8139 283.562 23.5869 283.75 23.2919 283.915C22.9969 284.078 22.6042 284.159 22.1136 284.159ZM22.2727 283.105C22.7434 283.105 23.1411 282.982 23.4659 282.737C23.7907 282.489 24.0376 282.146 24.2067 281.708C24.3757 281.267 24.4602 280.759 24.4602 280.182C24.4602 279.612 24.3774 279.113 24.2116 278.685C24.0459 278.254 23.8007 277.92 23.4759 277.681C23.151 277.439 22.75 277.318 22.2727 277.318C21.7756 277.318 21.3613 277.446 21.0298 277.701C20.7017 277.953 20.4548 278.296 20.2891 278.73C20.1267 279.161 20.0455 279.645 20.0455 280.182C20.0455 280.725 20.1283 281.219 20.294 281.663C20.4631 282.104 20.7116 282.455 21.0398 282.717C21.3712 282.976 21.7822 283.105 22.2727 283.105ZM27.9254 284V276.364H29.0589V277.517H29.1385C29.2777 277.139 29.5296 276.833 29.8942 276.597C30.2588 276.362 30.6697 276.244 31.1271 276.244C31.2133 276.244 31.321 276.246 31.4503 276.249C31.5795 276.253 31.6773 276.258 31.7436 276.264V277.457C31.7038 277.447 31.6127 277.433 31.4702 277.413C31.331 277.389 31.1835 277.378 31.0277 277.378C30.6565 277.378 30.325 277.456 30.0334 277.612C29.745 277.764 29.5163 277.976 29.3473 278.248C29.1816 278.516 29.0987 278.823 29.0987 279.168V284H27.9254ZM36.1037 284.159C35.3679 284.159 34.7332 283.997 34.1996 283.672C33.6693 283.344 33.2599 282.886 32.9716 282.3C32.6866 281.71 32.544 281.024 32.544 280.241C32.544 279.459 32.6866 278.77 32.9716 278.173C33.2599 277.573 33.661 277.106 34.1747 276.771C34.6918 276.433 35.295 276.264 35.9844 276.264C36.3821 276.264 36.7749 276.33 37.1626 276.463C37.5504 276.596 37.9034 276.811 38.2216 277.109C38.5398 277.404 38.7933 277.795 38.9822 278.283C39.1712 278.77 39.2656 279.37 39.2656 280.082V280.58H33.3793V279.565H38.0724C38.0724 279.134 37.9863 278.75 37.8139 278.412C37.6449 278.074 37.4029 277.807 37.0881 277.612C36.7765 277.416 36.4086 277.318 35.9844 277.318C35.517 277.318 35.1127 277.434 34.7713 277.666C34.4332 277.895 34.1731 278.193 33.9908 278.561C33.8085 278.929 33.7173 279.323 33.7173 279.744V280.42C33.7173 280.997 33.8168 281.486 34.0156 281.887C34.2178 282.285 34.4979 282.588 34.8558 282.797C35.2138 283.002 35.6297 283.105 36.1037 283.105C36.4119 283.105 36.6903 283.062 36.9389 282.976C37.1908 282.886 37.4079 282.754 37.5902 282.578C37.7725 282.399 37.9134 282.177 38.0128 281.912L39.1463 282.23C39.027 282.615 38.8265 282.953 38.5447 283.244C38.263 283.533 37.915 283.758 37.5007 283.92C37.0864 284.08 36.6207 284.159 36.1037 284.159ZM46.4595 278.074L45.4055 278.372C45.3393 278.196 45.2415 278.026 45.1122 277.86C44.9863 277.691 44.8139 277.552 44.5952 277.442C44.3764 277.333 44.0964 277.278 43.755 277.278C43.2876 277.278 42.8982 277.386 42.5866 277.602C42.2784 277.814 42.1243 278.084 42.1243 278.412C42.1243 278.704 42.2304 278.934 42.4425 279.103C42.6546 279.272 42.986 279.413 43.4368 279.526L44.5703 279.804C45.2531 279.97 45.7618 280.223 46.0966 280.565C46.4313 280.903 46.5987 281.339 46.5987 281.872C46.5987 282.31 46.4728 282.701 46.2209 283.045C45.9723 283.39 45.6243 283.662 45.1768 283.861C44.7294 284.06 44.209 284.159 43.6158 284.159C42.8369 284.159 42.1922 283.99 41.6818 283.652C41.1714 283.314 40.8482 282.82 40.7124 282.17L41.826 281.892C41.9321 282.303 42.1326 282.611 42.4276 282.817C42.7259 283.022 43.1153 283.125 43.5959 283.125C44.1428 283.125 44.5769 283.009 44.8984 282.777C45.2232 282.542 45.3857 282.26 45.3857 281.932C45.3857 281.667 45.2929 281.445 45.1072 281.266C44.9216 281.083 44.6366 280.947 44.2521 280.858L42.9794 280.56C42.2801 280.394 41.7663 280.137 41.4382 279.789C41.1134 279.438 40.951 278.999 40.951 278.472C40.951 278.041 41.072 277.66 41.3139 277.328C41.5592 276.997 41.8923 276.737 42.3132 276.548C42.7375 276.359 43.218 276.264 43.755 276.264C44.5107 276.264 45.1039 276.43 45.5348 276.761C45.969 277.093 46.2772 277.53 46.4595 278.074ZM53.774 278.074L52.72 278.372C52.6537 278.196 52.5559 278.026 52.4267 277.86C52.3007 277.691 52.1284 277.552 51.9096 277.442C51.6909 277.333 51.4108 277.278 51.0694 277.278C50.6021 277.278 50.2127 277.386 49.9011 277.602C49.5929 277.814 49.4387 278.084 49.4387 278.412C49.4387 278.704 49.5448 278.934 49.7569 279.103C49.969 279.272 50.3005 279.413 50.7512 279.526L51.8848 279.804C52.5675 279.97 53.0763 280.223 53.411 280.565C53.7458 280.903 53.9132 281.339 53.9132 281.872C53.9132 282.31 53.7872 282.701 53.5353 283.045C53.2868 283.39 52.9387 283.662 52.4913 283.861C52.0439 284.06 51.5235 284.159 50.9302 284.159C50.1513 284.159 49.5067 283.99 48.9963 283.652C48.4859 283.314 48.1627 282.82 48.0268 282.17L49.1404 281.892C49.2465 282.303 49.447 282.611 49.742 282.817C50.0403 283.022 50.4297 283.125 50.9103 283.125C51.4572 283.125 51.8914 283.009 52.2129 282.777C52.5377 282.542 52.7001 282.26 52.7001 281.932C52.7001 281.667 52.6073 281.445 52.4217 281.266C52.2361 281.083 51.9511 280.947 51.5666 280.858L50.2939 280.56C49.5945 280.394 49.0808 280.137 48.7527 279.789C48.4279 279.438 48.2654 278.999 48.2654 278.472C48.2654 278.041 48.3864 277.66 48.6284 277.328C48.8736 276.997 49.2067 276.737 49.6277 276.548C50.0519 276.359 50.5325 276.264 51.0694 276.264C51.8251 276.264 52.4184 276.43 52.8493 276.761C53.2834 277.093 53.5917 277.53 53.774 278.074Z" fill="#898989"/>
<path d="M4.375 325H1.23295V314.818H4.5142C5.50189 314.818 6.34706 315.022 7.04972 315.43C7.75237 315.834 8.29096 316.416 8.66548 317.175C9.04001 317.93 9.22727 318.835 9.22727 319.889C9.22727 320.95 9.03835 321.863 8.66051 322.629C8.28267 323.391 7.73248 323.978 7.00994 324.388C6.28741 324.796 5.40909 325 4.375 325ZM2.46591 323.906H4.29545C5.13731 323.906 5.83499 323.744 6.38849 323.419C6.942 323.094 7.35464 322.632 7.62642 322.032C7.8982 321.432 8.03409 320.718 8.03409 319.889C8.03409 319.067 7.89986 318.36 7.63139 317.766C7.36293 317.17 6.96188 316.712 6.42827 316.394C5.89465 316.073 5.23011 315.912 4.43466 315.912H2.46591V323.906ZM13.3835 325.179C12.8996 325.179 12.4605 325.088 12.0661 324.906C11.6716 324.72 11.3584 324.453 11.1264 324.105C10.8944 323.754 10.7784 323.33 10.7784 322.832C10.7784 322.395 10.8646 322.04 11.0369 321.768C11.2093 321.493 11.4396 321.278 11.728 321.122C12.0163 320.966 12.3345 320.85 12.6825 320.774C13.0339 320.695 13.3868 320.632 13.7415 320.585C14.2055 320.526 14.5817 320.481 14.87 320.451C15.1617 320.418 15.3738 320.363 15.5064 320.287C15.6423 320.211 15.7102 320.078 15.7102 319.889V319.849C15.7102 319.359 15.576 318.978 15.3075 318.706C15.0424 318.434 14.6397 318.298 14.0994 318.298C13.5393 318.298 13.1001 318.421 12.782 318.666C12.4638 318.911 12.2401 319.173 12.1108 319.452L10.9972 319.054C11.196 318.59 11.4612 318.229 11.7926 317.97C12.1274 317.708 12.492 317.526 12.8864 317.423C13.2841 317.317 13.6752 317.264 14.0597 317.264C14.3049 317.264 14.5866 317.294 14.9048 317.354C15.2263 317.41 15.5362 317.528 15.8345 317.707C16.1361 317.886 16.3864 318.156 16.5852 318.517C16.7841 318.878 16.8835 319.362 16.8835 319.969V325H15.7102V323.966H15.6506C15.571 324.132 15.4384 324.309 15.2528 324.498C15.0672 324.687 14.8203 324.848 14.5121 324.98C14.2038 325.113 13.8277 325.179 13.3835 325.179ZM13.5625 324.125C14.0265 324.125 14.4176 324.034 14.7358 323.852C15.0573 323.669 15.2992 323.434 15.4616 323.146C15.6274 322.857 15.7102 322.554 15.7102 322.236V321.162C15.6605 321.222 15.5511 321.276 15.3821 321.326C15.2164 321.372 15.0241 321.414 14.8054 321.45C14.59 321.483 14.3795 321.513 14.174 321.54C13.9718 321.563 13.8078 321.583 13.6818 321.599C13.3769 321.639 13.0919 321.704 12.8267 321.793C12.5649 321.879 12.3527 322.01 12.1903 322.186C12.0313 322.358 11.9517 322.594 11.9517 322.892C11.9517 323.3 12.1025 323.608 12.4041 323.817C12.709 324.022 13.0952 324.125 13.5625 324.125ZM22.3461 317.364V318.358H18.3887V317.364H22.3461ZM19.5421 315.534H20.7154V322.812C20.7154 323.144 20.7634 323.393 20.8596 323.558C20.959 323.721 21.0849 323.83 21.2374 323.886C21.3932 323.939 21.5572 323.966 21.7296 323.966C21.8588 323.966 21.9649 323.959 22.0478 323.946C22.1306 323.929 22.1969 323.916 22.2466 323.906L22.4853 324.96C22.4057 324.99 22.2947 325.02 22.1522 325.05C22.0096 325.083 21.829 325.099 21.6103 325.099C21.2788 325.099 20.954 325.028 20.6358 324.886C20.321 324.743 20.0591 324.526 19.8503 324.234C19.6448 323.943 19.5421 323.575 19.5421 323.131V315.534ZM27.2306 325.159C26.4949 325.159 25.8601 324.997 25.3265 324.672C24.7962 324.344 24.3869 323.886 24.0985 323.3C23.8135 322.71 23.671 322.024 23.671 321.241C23.671 320.459 23.8135 319.77 24.0985 319.173C24.3869 318.573 24.7879 318.106 25.3017 317.771C25.8187 317.433 26.4219 317.264 27.1113 317.264C27.5091 317.264 27.9018 317.33 28.2896 317.463C28.6774 317.596 29.0304 317.811 29.3485 318.109C29.6667 318.404 29.9203 318.795 30.1092 319.283C30.2981 319.77 30.3926 320.37 30.3926 321.082V321.58H24.5062V320.565H29.1994C29.1994 320.134 29.1132 319.75 28.9409 319.412C28.7718 319.074 28.5299 318.807 28.215 318.612C27.9035 318.416 27.5356 318.318 27.1113 318.318C26.644 318.318 26.2396 318.434 25.8983 318.666C25.5602 318.895 25.3 319.193 25.1177 319.561C24.9354 319.929 24.8443 320.323 24.8443 320.744V321.42C24.8443 321.997 24.9437 322.486 25.1426 322.887C25.3448 323.285 25.6248 323.588 25.9828 323.797C26.3407 324.002 26.7567 324.105 27.2306 324.105C27.5389 324.105 27.8173 324.062 28.0659 323.976C28.3178 323.886 28.5349 323.754 28.7172 323.578C28.8994 323.399 29.0403 323.177 29.1397 322.912L30.2733 323.23C30.1539 323.615 29.9534 323.953 29.6717 324.244C29.39 324.533 29.042 324.758 28.6277 324.92C28.2134 325.08 27.7477 325.159 27.2306 325.159Z" fill="#898989"/>
<path d="M176.121 243.273V230.545H176.937V243.273H176.121ZM178.672 234.493C178.619 234.022 178.4 233.658 178.016 233.399C177.631 233.137 177.147 233.006 176.564 233.006C176.146 233.006 175.785 233.073 175.48 233.205C175.175 233.335 174.938 233.513 174.769 233.742C174.603 233.968 174.521 234.224 174.521 234.513C174.521 234.755 174.577 234.964 174.69 235.139C174.806 235.315 174.956 235.462 175.142 235.582C175.331 235.698 175.533 235.795 175.749 235.875C175.964 235.951 176.171 236.014 176.37 236.064L177.364 236.322C177.689 236.402 178.022 236.51 178.364 236.646C178.705 236.781 179.022 236.96 179.313 237.183C179.605 237.405 179.84 237.68 180.019 238.008C180.201 238.336 180.293 238.729 180.293 239.186C180.293 239.763 180.143 240.275 179.845 240.722C179.55 241.17 179.121 241.523 178.558 241.781C177.997 242.04 177.32 242.169 176.524 242.169C175.762 242.169 175.102 242.048 174.545 241.806C173.989 241.564 173.553 241.221 173.238 240.777C172.923 240.33 172.749 239.799 172.716 239.186H174.257C174.287 239.554 174.406 239.861 174.615 240.106C174.827 240.348 175.097 240.528 175.425 240.648C175.757 240.764 176.12 240.822 176.514 240.822C176.948 240.822 177.335 240.754 177.673 240.618C178.014 240.479 178.282 240.286 178.478 240.041C178.674 239.793 178.771 239.503 178.771 239.171C178.771 238.87 178.685 238.623 178.513 238.43C178.344 238.238 178.113 238.079 177.822 237.953C177.533 237.827 177.207 237.716 176.842 237.62L175.639 237.292C174.824 237.07 174.178 236.743 173.7 236.312C173.226 235.882 172.989 235.312 172.989 234.602C172.989 234.016 173.148 233.504 173.467 233.066C173.785 232.629 174.216 232.289 174.759 232.047C175.303 231.802 175.916 231.679 176.599 231.679C177.288 231.679 177.896 231.8 178.423 232.042C178.954 232.284 179.371 232.617 179.676 233.041C179.981 233.462 180.14 233.946 180.153 234.493H178.672ZM185.544 242.139C185.09 242.133 184.642 242.05 184.202 241.891C183.764 241.732 183.366 241.466 183.008 241.095C182.65 240.724 182.364 240.225 182.148 239.599C181.936 238.972 181.83 238.19 181.83 237.252C181.83 236.364 181.918 235.575 182.094 234.886C182.273 234.196 182.529 233.615 182.864 233.141C183.199 232.663 183.603 232.3 184.077 232.052C184.551 231.803 185.083 231.679 185.673 231.679C186.28 231.679 186.818 231.798 187.289 232.037C187.76 232.276 188.141 232.605 188.432 233.026C188.727 233.447 188.915 233.926 188.994 234.463H187.478C187.375 234.039 187.171 233.692 186.866 233.424C186.561 233.156 186.164 233.021 185.673 233.021C184.927 233.021 184.346 233.346 183.928 233.996C183.514 234.645 183.305 235.549 183.302 236.705H183.376C183.552 236.417 183.767 236.172 184.023 235.969C184.281 235.764 184.569 235.607 184.888 235.497C185.209 235.384 185.547 235.328 185.902 235.328C186.492 235.328 187.025 235.472 187.503 235.761C187.983 236.046 188.366 236.44 188.651 236.944C188.936 237.448 189.079 238.024 189.079 238.674C189.079 239.324 188.931 239.912 188.636 240.439C188.345 240.966 187.934 241.384 187.403 241.692C186.873 241.997 186.253 242.146 185.544 242.139ZM185.539 240.847C185.93 240.847 186.28 240.75 186.588 240.558C186.896 240.366 187.14 240.107 187.319 239.783C187.498 239.458 187.587 239.095 187.587 238.694C187.587 238.303 187.499 237.946 187.324 237.625C187.151 237.304 186.913 237.048 186.608 236.859C186.306 236.67 185.961 236.576 185.574 236.576C185.279 236.576 185.005 236.632 184.753 236.745C184.505 236.858 184.286 237.013 184.097 237.212C183.908 237.411 183.759 237.64 183.65 237.898C183.544 238.154 183.491 238.424 183.491 238.709C183.491 239.09 183.578 239.443 183.754 239.768C183.933 240.093 184.177 240.354 184.485 240.553C184.796 240.749 185.148 240.847 185.539 240.847ZM194.434 242.169C193.649 242.166 192.978 241.959 192.421 241.548C191.864 241.137 191.438 240.538 191.143 239.753C190.848 238.967 190.701 238.021 190.701 236.914C190.701 235.81 190.848 234.867 191.143 234.085C191.441 233.303 191.869 232.706 192.426 232.295C192.986 231.884 193.655 231.679 194.434 231.679C195.213 231.679 195.881 231.886 196.438 232.3C196.995 232.711 197.421 233.308 197.716 234.09C198.014 234.869 198.163 235.81 198.163 236.914C198.163 238.024 198.016 238.972 197.721 239.758C197.426 240.54 197 241.138 196.443 241.553C195.886 241.964 195.217 242.169 194.434 242.169ZM194.434 240.842C195.124 240.842 195.662 240.505 196.05 239.832C196.441 239.16 196.637 238.187 196.637 236.914C196.637 236.069 196.547 235.355 196.368 234.771C196.193 234.185 195.939 233.741 195.608 233.439C195.279 233.134 194.888 232.982 194.434 232.982C193.748 232.982 193.21 233.32 192.819 233.996C192.427 234.672 192.23 235.645 192.227 236.914C192.227 237.763 192.315 238.48 192.49 239.067C192.669 239.65 192.923 240.093 193.251 240.394C193.579 240.692 193.974 240.842 194.434 240.842ZM203.471 242.169C202.686 242.166 202.015 241.959 201.458 241.548C200.901 241.137 200.475 240.538 200.18 239.753C199.885 238.967 199.738 238.021 199.738 236.914C199.738 235.81 199.885 234.867 200.18 234.085C200.479 233.303 200.906 232.706 201.463 232.295C202.023 231.884 202.693 231.679 203.471 231.679C204.25 231.679 204.918 231.886 205.475 232.3C206.032 232.711 206.458 233.308 206.753 234.09C207.051 234.869 207.2 235.81 207.2 236.914C207.2 238.024 207.053 238.972 206.758 239.758C206.463 240.54 206.037 241.138 205.48 241.553C204.923 241.964 204.254 242.169 203.471 242.169ZM203.471 240.842C204.161 240.842 204.699 240.505 205.087 239.832C205.478 239.16 205.674 238.187 205.674 236.914C205.674 236.069 205.584 235.355 205.405 234.771C205.23 234.185 204.976 233.741 204.645 233.439C204.317 233.134 203.925 232.982 203.471 232.982C202.785 232.982 202.247 233.32 201.856 233.996C201.465 234.672 201.267 235.645 201.264 236.914C201.264 237.763 201.352 238.48 201.528 239.067C201.706 239.65 201.96 240.093 202.288 240.394C202.616 240.692 203.011 240.842 203.471 240.842Z" fill="black"/>
<path d="M172.815 280.912V279.898L177.29 272.818H178.026V274.389H177.528L174.148 279.739V279.818H180.173V280.912H172.815ZM177.608 283V280.604V280.131V272.818H178.781V283H177.608ZM186.153 283V272.818H187.386V281.906H192.119V283H186.153ZM198.681 279.878V275.364H199.855V283H198.681V281.707H198.602C198.423 282.095 198.144 282.425 197.767 282.697C197.389 282.965 196.911 283.099 196.335 283.099C195.857 283.099 195.433 282.995 195.062 282.786C194.691 282.574 194.399 282.256 194.187 281.832C193.975 281.404 193.869 280.866 193.869 280.216V275.364H195.042V280.136C195.042 280.693 195.198 281.137 195.509 281.469C195.824 281.8 196.225 281.966 196.713 281.966C197.004 281.966 197.301 281.891 197.602 281.742C197.907 281.593 198.163 281.364 198.368 281.056C198.577 280.748 198.681 280.355 198.681 279.878ZM205.325 275.364V276.358H201.367V275.364H205.325ZM202.521 273.534H203.694V280.812C203.694 281.144 203.742 281.393 203.838 281.558C203.938 281.721 204.063 281.83 204.216 281.886C204.372 281.939 204.536 281.966 204.708 281.966C204.837 281.966 204.943 281.959 205.026 281.946C205.109 281.929 205.175 281.916 205.225 281.906L205.464 282.96C205.384 282.99 205.273 283.02 205.131 283.05C204.988 283.083 204.808 283.099 204.589 283.099C204.257 283.099 203.933 283.028 203.614 282.886C203.299 282.743 203.038 282.526 202.829 282.234C202.623 281.943 202.521 281.575 202.521 281.131V273.534ZM210.11 283.159C209.42 283.159 208.815 282.995 208.295 282.667C207.778 282.339 207.374 281.88 207.082 281.29C206.794 280.7 206.65 280.01 206.65 279.222C206.65 278.426 206.794 277.732 207.082 277.138C207.374 276.545 207.778 276.085 208.295 275.756C208.815 275.428 209.42 275.264 210.11 275.264C210.799 275.264 211.402 275.428 211.919 275.756C212.44 276.085 212.844 276.545 213.132 277.138C213.424 277.732 213.57 278.426 213.57 279.222C213.57 280.01 213.424 280.7 213.132 281.29C212.844 281.88 212.44 282.339 211.919 282.667C211.402 282.995 210.799 283.159 210.11 283.159ZM210.11 282.105C210.633 282.105 211.064 281.971 211.402 281.702C211.74 281.434 211.991 281.081 212.153 280.643C212.315 280.206 212.397 279.732 212.397 279.222C212.397 278.711 212.315 278.236 212.153 277.795C211.991 277.354 211.74 276.998 211.402 276.726C211.064 276.454 210.633 276.318 210.11 276.318C209.586 276.318 209.155 276.454 208.817 276.726C208.479 276.998 208.229 277.354 208.066 277.795C207.904 278.236 207.823 278.711 207.823 279.222C207.823 279.732 207.904 280.206 208.066 280.643C208.229 281.081 208.479 281.434 208.817 281.702C209.155 281.971 209.586 282.105 210.11 282.105ZM216.534 278.406V283H215.361V275.364H216.494V276.557H216.594C216.773 276.169 217.045 275.857 217.409 275.622C217.774 275.384 218.244 275.264 218.821 275.264C219.338 275.264 219.791 275.37 220.178 275.582C220.566 275.791 220.868 276.109 221.083 276.537C221.299 276.961 221.406 277.498 221.406 278.148V283H220.233V278.227C220.233 277.627 220.077 277.16 219.766 276.825C219.454 276.487 219.027 276.318 218.483 276.318C218.109 276.318 217.774 276.399 217.479 276.562C217.187 276.724 216.957 276.961 216.788 277.273C216.619 277.584 216.534 277.962 216.534 278.406ZM232.897 277.074L231.843 277.372C231.777 277.196 231.679 277.026 231.55 276.86C231.424 276.691 231.251 276.552 231.033 276.442C230.814 276.333 230.534 276.278 230.192 276.278C229.725 276.278 229.336 276.386 229.024 276.602C228.716 276.814 228.562 277.084 228.562 277.412C228.562 277.704 228.668 277.934 228.88 278.103C229.092 278.272 229.424 278.413 229.874 278.526L231.008 278.804C231.691 278.97 232.199 279.223 232.534 279.565C232.869 279.903 233.036 280.339 233.036 280.872C233.036 281.31 232.91 281.701 232.658 282.045C232.41 282.39 232.062 282.662 231.614 282.861C231.167 283.06 230.647 283.159 230.053 283.159C229.274 283.159 228.63 282.99 228.119 282.652C227.609 282.314 227.286 281.82 227.15 281.17L228.263 280.892C228.37 281.303 228.57 281.611 228.865 281.817C229.163 282.022 229.553 282.125 230.033 282.125C230.58 282.125 231.014 282.009 231.336 281.777C231.661 281.542 231.823 281.26 231.823 280.932C231.823 280.667 231.73 280.445 231.545 280.266C231.359 280.083 231.074 279.947 230.69 279.858L229.417 279.56C228.718 279.394 228.204 279.137 227.876 278.789C227.551 278.438 227.388 277.999 227.388 277.472C227.388 277.041 227.509 276.66 227.751 276.328C227.997 275.997 228.33 275.737 228.751 275.548C229.175 275.359 229.656 275.264 230.192 275.264C230.948 275.264 231.541 275.43 231.972 275.761C232.406 276.093 232.715 276.53 232.897 277.074ZM238.123 275.364V276.358H234.166V275.364H238.123ZM235.319 273.534H236.493V280.812C236.493 281.144 236.541 281.393 236.637 281.558C236.736 281.721 236.862 281.83 237.015 281.886C237.171 281.939 237.335 281.966 237.507 281.966C237.636 281.966 237.742 281.959 237.825 281.946C237.908 281.929 237.974 281.916 238.024 281.906L238.263 282.96C238.183 282.99 238.072 283.02 237.93 283.05C237.787 283.083 237.606 283.099 237.388 283.099C237.056 283.099 236.731 283.028 236.413 282.886C236.098 282.743 235.836 282.526 235.628 282.234C235.422 281.943 235.319 281.575 235.319 281.131V273.534ZM239.888 283V275.364H241.022V276.517H241.101C241.241 276.139 241.492 275.833 241.857 275.597C242.222 275.362 242.633 275.244 243.09 275.244C243.176 275.244 243.284 275.246 243.413 275.249C243.542 275.253 243.64 275.258 243.706 275.264V276.457C243.667 276.447 243.576 276.433 243.433 276.413C243.294 276.389 243.146 276.378 242.991 276.378C242.619 276.378 242.288 276.456 241.996 276.612C241.708 276.764 241.479 276.976 241.31 277.248C241.144 277.516 241.062 277.823 241.062 278.168V283H239.888ZM248.067 283.159C247.331 283.159 246.696 282.997 246.162 282.672C245.632 282.344 245.223 281.886 244.934 281.3C244.649 280.71 244.507 280.024 244.507 279.241C244.507 278.459 244.649 277.77 244.934 277.173C245.223 276.573 245.624 276.106 246.138 275.771C246.655 275.433 247.258 275.264 247.947 275.264C248.345 275.264 248.738 275.33 249.126 275.463C249.513 275.596 249.866 275.811 250.184 276.109C250.503 276.404 250.756 276.795 250.945 277.283C251.134 277.77 251.229 278.37 251.229 279.082V279.58H245.342V278.565H250.035C250.035 278.134 249.949 277.75 249.777 277.412C249.608 277.074 249.366 276.807 249.051 276.612C248.739 276.416 248.372 276.318 247.947 276.318C247.48 276.318 247.076 276.434 246.734 276.666C246.396 276.895 246.136 277.193 245.954 277.561C245.771 277.929 245.68 278.323 245.68 278.744V279.42C245.68 279.997 245.78 280.486 245.979 280.887C246.181 281.285 246.461 281.588 246.819 281.797C247.177 282.002 247.593 282.105 248.067 282.105C248.375 282.105 248.653 282.062 248.902 281.976C249.154 281.886 249.371 281.754 249.553 281.578C249.735 281.399 249.876 281.177 249.976 280.912L251.109 281.23C250.99 281.615 250.789 281.953 250.508 282.244C250.226 282.533 249.878 282.758 249.464 282.92C249.049 283.08 248.584 283.159 248.067 283.159ZM256.215 283.159C255.479 283.159 254.845 282.997 254.311 282.672C253.781 282.344 253.371 281.886 253.083 281.3C252.798 280.71 252.655 280.024 252.655 279.241C252.655 278.459 252.798 277.77 253.083 277.173C253.371 276.573 253.772 276.106 254.286 275.771C254.803 275.433 255.406 275.264 256.096 275.264C256.493 275.264 256.886 275.33 257.274 275.463C257.662 275.596 258.015 275.811 258.333 276.109C258.651 276.404 258.905 276.795 259.094 277.283C259.282 277.77 259.377 278.37 259.377 279.082V279.58H253.491V278.565H258.184C258.184 278.134 258.098 277.75 257.925 277.412C257.756 277.074 257.514 276.807 257.199 276.612C256.888 276.416 256.52 276.318 256.096 276.318C255.628 276.318 255.224 276.434 254.883 276.666C254.545 276.895 254.284 277.193 254.102 277.561C253.92 277.929 253.829 278.323 253.829 278.744V279.42C253.829 279.997 253.928 280.486 254.127 280.887C254.329 281.285 254.609 281.588 254.967 281.797C255.325 282.002 255.741 282.105 256.215 282.105C256.523 282.105 256.802 282.062 257.05 281.976C257.302 281.886 257.519 281.754 257.702 281.578C257.884 281.399 258.025 281.177 258.124 280.912L259.258 281.23C259.138 281.615 258.938 281.953 258.656 282.244C258.374 282.533 258.026 282.758 257.612 282.92C257.198 283.08 256.732 283.159 256.215 283.159ZM264.483 275.364V276.358H260.525V275.364H264.483ZM261.679 273.534H262.852V280.812C262.852 281.144 262.9 281.393 262.996 281.558C263.096 281.721 263.222 281.83 263.374 281.886C263.53 281.939 263.694 281.966 263.866 281.966C263.996 281.966 264.102 281.959 264.184 281.946C264.267 281.929 264.334 281.916 264.383 281.906L264.622 282.96C264.542 282.99 264.431 283.02 264.289 283.05C264.146 283.083 263.966 283.099 263.747 283.099C263.416 283.099 263.091 283.028 262.773 282.886C262.458 282.743 262.196 282.526 261.987 282.234C261.782 281.943 261.679 281.575 261.679 281.131V273.534Z" fill="black"/>
<path d="M173.054 324V323.105L176.415 319.426C176.809 318.995 177.134 318.621 177.389 318.303C177.644 317.981 177.833 317.679 177.956 317.398C178.082 317.113 178.145 316.814 178.145 316.503C178.145 316.145 178.059 315.835 177.886 315.573C177.717 315.311 177.485 315.109 177.19 314.967C176.895 314.824 176.564 314.753 176.196 314.753C175.805 314.753 175.464 314.834 175.172 314.996C174.884 315.156 174.66 315.379 174.501 315.668C174.345 315.956 174.267 316.294 174.267 316.682H173.094C173.094 316.085 173.231 315.562 173.506 315.111C173.781 314.66 174.156 314.309 174.63 314.057C175.107 313.805 175.643 313.679 176.236 313.679C176.832 313.679 177.361 313.805 177.822 314.057C178.282 314.309 178.644 314.648 178.906 315.076C179.167 315.504 179.298 315.979 179.298 316.503C179.298 316.877 179.23 317.244 179.094 317.602C178.962 317.956 178.73 318.352 178.398 318.79C178.07 319.224 177.615 319.754 177.031 320.381L174.744 322.827V322.906H179.477V324H173.054ZM185.11 313.818V324H183.877V315.111H183.817L181.332 316.761V315.509L183.877 313.818H185.11ZM196.053 313.818H197.286V321.097C197.286 321.746 197.166 322.298 196.928 322.752C196.689 323.206 196.353 323.551 195.918 323.786C195.484 324.022 194.972 324.139 194.382 324.139C193.825 324.139 193.33 324.038 192.896 323.836C192.461 323.63 192.12 323.339 191.871 322.961C191.623 322.583 191.499 322.134 191.499 321.614H192.712C192.712 321.902 192.783 322.154 192.925 322.369C193.071 322.581 193.27 322.747 193.522 322.866C193.774 322.986 194.061 323.045 194.382 323.045C194.737 323.045 195.038 322.971 195.287 322.822C195.536 322.673 195.724 322.454 195.854 322.165C195.986 321.874 196.053 321.518 196.053 321.097V313.818ZM201.844 324.179C201.361 324.179 200.921 324.088 200.527 323.906C200.133 323.72 199.819 323.453 199.587 323.105C199.355 322.754 199.239 322.33 199.239 321.832C199.239 321.395 199.326 321.04 199.498 320.768C199.67 320.493 199.901 320.278 200.189 320.122C200.477 319.966 200.795 319.85 201.143 319.774C201.495 319.695 201.848 319.632 202.202 319.585C202.666 319.526 203.043 319.481 203.331 319.451C203.623 319.418 203.835 319.363 203.967 319.287C204.103 319.211 204.171 319.078 204.171 318.889V318.849C204.171 318.359 204.037 317.978 203.768 317.706C203.503 317.434 203.101 317.298 202.56 317.298C202 317.298 201.561 317.421 201.243 317.666C200.925 317.911 200.701 318.173 200.572 318.452L199.458 318.054C199.657 317.59 199.922 317.229 200.254 316.97C200.588 316.708 200.953 316.526 201.347 316.423C201.745 316.317 202.136 316.264 202.521 316.264C202.766 316.264 203.048 316.294 203.366 316.354C203.687 316.41 203.997 316.528 204.295 316.707C204.597 316.886 204.847 317.156 205.046 317.517C205.245 317.878 205.344 318.362 205.344 318.969V324H204.171V322.966H204.112C204.032 323.132 203.899 323.309 203.714 323.498C203.528 323.687 203.281 323.848 202.973 323.98C202.665 324.113 202.289 324.179 201.844 324.179ZM202.023 323.125C202.487 323.125 202.879 323.034 203.197 322.852C203.518 322.669 203.76 322.434 203.923 322.146C204.088 321.857 204.171 321.554 204.171 321.236V320.162C204.121 320.222 204.012 320.276 203.843 320.326C203.677 320.372 203.485 320.414 203.266 320.45C203.051 320.483 202.84 320.513 202.635 320.54C202.433 320.563 202.269 320.583 202.143 320.599C201.838 320.639 201.553 320.704 201.288 320.793C201.026 320.879 200.814 321.01 200.651 321.186C200.492 321.358 200.413 321.594 200.413 321.892C200.413 322.3 200.563 322.608 200.865 322.817C201.17 323.022 201.556 323.125 202.023 323.125ZM208.659 319.406V324H207.486V316.364H208.619V317.557H208.719C208.898 317.169 209.17 316.857 209.534 316.622C209.899 316.384 210.369 316.264 210.946 316.264C211.463 316.264 211.916 316.37 212.303 316.582C212.691 316.791 212.993 317.109 213.208 317.537C213.424 317.961 213.531 318.498 213.531 319.148V324H212.358V319.227C212.358 318.627 212.202 318.16 211.891 317.825C211.579 317.487 211.152 317.318 210.608 317.318C210.234 317.318 209.899 317.399 209.604 317.562C209.312 317.724 209.082 317.961 208.913 318.273C208.744 318.584 208.659 318.962 208.659 319.406ZM217.425 322.608L217.346 323.145C217.29 323.523 217.203 323.927 217.087 324.358C216.975 324.789 216.857 325.195 216.734 325.576C216.612 325.957 216.511 326.26 216.431 326.486H215.536C215.579 326.274 215.636 325.994 215.705 325.646C215.775 325.298 215.844 324.908 215.914 324.477C215.987 324.05 216.047 323.612 216.093 323.165L216.153 322.608H217.425ZM223.517 324V323.105L226.878 319.426C227.272 318.995 227.597 318.621 227.852 318.303C228.107 317.981 228.296 317.679 228.419 317.398C228.545 317.113 228.608 316.814 228.608 316.503C228.608 316.145 228.522 315.835 228.349 315.573C228.18 315.311 227.948 315.109 227.653 314.967C227.358 314.824 227.027 314.753 226.659 314.753C226.268 314.753 225.926 314.834 225.635 314.996C225.346 315.156 225.123 315.379 224.964 315.668C224.808 315.956 224.73 316.294 224.73 316.682H223.557C223.557 316.085 223.694 315.562 223.969 315.111C224.244 314.66 224.619 314.309 225.093 314.057C225.57 313.805 226.105 313.679 226.699 313.679C227.295 313.679 227.824 313.805 228.285 314.057C228.745 314.309 229.107 314.648 229.368 315.076C229.63 315.504 229.761 315.979 229.761 316.503C229.761 316.877 229.693 317.244 229.557 317.602C229.425 317.956 229.193 318.352 228.861 318.79C228.533 319.224 228.077 319.754 227.494 320.381L225.207 322.827V322.906H229.94V324H223.517ZM235.314 324.139C234.565 324.139 233.927 323.935 233.4 323.528C232.873 323.117 232.471 322.522 232.192 321.743C231.914 320.961 231.775 320.016 231.775 318.909C231.775 317.809 231.914 316.869 232.192 316.09C232.474 315.308 232.878 314.711 233.405 314.3C233.936 313.886 234.572 313.679 235.314 313.679C236.057 313.679 236.692 313.886 237.219 314.3C237.749 314.711 238.153 315.308 238.432 316.09C238.713 316.869 238.854 317.809 238.854 318.909C238.854 320.016 238.715 320.961 238.437 321.743C238.158 322.522 237.756 323.117 237.229 323.528C236.702 323.935 236.064 324.139 235.314 324.139ZM235.314 323.045C236.057 323.045 236.634 322.687 237.045 321.972C237.456 321.256 237.661 320.235 237.661 318.909C237.661 318.027 237.567 317.277 237.378 316.657C237.192 316.037 236.924 315.565 236.572 315.24C236.224 314.915 235.805 314.753 235.314 314.753C234.579 314.753 234.004 315.116 233.589 315.842C233.175 316.564 232.968 317.587 232.968 318.909C232.968 319.791 233.061 320.54 233.246 321.156C233.432 321.773 233.699 322.242 234.047 322.563C234.398 322.885 234.821 323.045 235.314 323.045ZM240.743 324V323.105L244.104 319.426C244.499 318.995 244.823 318.621 245.079 318.303C245.334 317.981 245.523 317.679 245.645 317.398C245.771 317.113 245.834 316.814 245.834 316.503C245.834 316.145 245.748 315.835 245.576 315.573C245.407 315.311 245.175 315.109 244.88 314.967C244.585 314.824 244.253 314.753 243.885 314.753C243.494 314.753 243.153 314.834 242.861 314.996C242.573 315.156 242.349 315.379 242.19 315.668C242.034 315.956 241.956 316.294 241.956 316.682H240.783C240.783 316.085 240.921 315.562 241.196 315.111C241.471 314.66 241.845 314.309 242.319 314.057C242.797 313.805 243.332 313.679 243.925 313.679C244.522 313.679 245.05 313.805 245.511 314.057C245.972 314.309 246.333 314.648 246.595 315.076C246.857 315.504 246.988 315.979 246.988 316.503C246.988 316.877 246.92 317.244 246.784 317.602C246.651 317.956 246.419 318.352 246.088 318.79C245.76 319.224 245.304 319.754 244.721 320.381L242.434 322.827V322.906H247.167V324H240.743ZM248.763 321.912V320.898L253.237 313.818H253.973V315.389H253.476L250.095 320.739V320.818H256.121V321.912H248.763ZM253.555 324V321.604V321.131V313.818H254.729V324H253.555Z" fill="#F05A28"/>
</svg>
