<svg width="14" height="15" viewBox="0 0 14 15" fill="none" xmlns="http://www.w3.org/2000/svg">
<path d="M6.12466 1.66602C7.05564 1.66595 7.96783 1.92799 8.75684 2.42215C9.54584 2.91631 10.1798 3.62261 10.5861 4.46024C10.9925 5.29786 11.1548 6.23296 11.0545 7.15852C10.9542 8.08408 10.5953 8.96271 10.019 9.69385L12.1493 11.8242C12.2556 11.9342 12.3144 12.0816 12.3131 12.2345C12.3117 12.3874 12.2504 12.5338 12.1422 12.6419C12.0341 12.7501 11.8878 12.8114 11.7348 12.8127C11.5819 12.8141 11.4345 12.7553 11.3245 12.649L9.19416 10.5187C8.57317 11.0081 7.84415 11.3419 7.06792 11.4922C6.29169 11.6426 5.49076 11.6051 4.73196 11.3829C3.97315 11.1608 3.27848 10.7604 2.70588 10.2152C2.13329 9.66996 1.69938 8.99571 1.44036 8.24869C1.18135 7.50167 1.10473 6.70353 1.21691 5.92087C1.32908 5.13822 1.6268 4.39373 2.08521 3.74954C2.54363 3.10534 3.14945 2.58011 3.85214 2.21767C4.55483 1.85523 5.334 1.66608 6.12466 1.66602ZM6.12466 2.83268C5.11905 2.83268 4.15462 3.23216 3.44355 3.94324C2.73247 4.65431 2.33299 5.61874 2.33299 6.62435C2.33299 7.62996 2.73247 8.59439 3.44355 9.30546C4.15462 10.0165 5.11905 10.416 6.12466 10.416C7.13027 10.416 8.0947 10.0165 8.80577 9.30546C9.51685 8.59439 9.91633 7.62996 9.91633 6.62435C9.91633 5.61874 9.51685 4.65431 8.80577 3.94324C8.0947 3.23216 7.13027 2.83268 6.12466 2.83268ZM6.12466 3.41602C6.97556 3.41602 7.79161 3.75404 8.39329 4.35572C8.99497 4.95739 9.33299 5.77345 9.33299 6.62435C9.33299 7.47525 8.99497 8.2913 8.39329 8.89298C7.79161 9.49466 6.97556 9.83268 6.12466 9.83268C5.27376 9.83268 4.4577 9.49466 3.85603 8.89298C3.25435 8.2913 2.91633 7.47525 2.91633 6.62435C2.91633 5.77345 3.25435 4.95739 3.85603 4.35572C4.4577 3.75404 5.27376 3.41602 6.12466 3.41602Z" fill="#F05A28"/>
</svg>
