<svg width="124" height="12" viewBox="0 0 124 12" fill="none" xmlns="http://www.w3.org/2000/svg">
<mask id="mask0_175_1020" style="mask-type:luminance" maskUnits="userSpaceOnUse" x="0" y="2" width="8" height="8">
<path d="M0.418457 2.39844H7.907V9.88698H0.418457V2.39844Z" fill="white"/>
</mask>
<g mask="url(#mask0_175_1020)">
<path d="M6.31568 2.75H7.46411L4.95544 5.62453L7.907 9.53676H5.59625L3.78509 7.1645L1.71504 9.53676H0.565553L3.24859 6.46111L0.418457 2.75053H2.78805L4.42269 4.91847L6.31568 2.75ZM5.91184 8.84781H6.54836L2.44036 3.40311H1.75784L5.91184 8.84781Z" fill="#898989"/>
</g>
<path d="M41.0096 0.794922H45.5027C47.2144 0.794922 48.6051 2.18565 48.6051 3.89732V8.39044C48.6051 9.21325 48.2783 10.0024 47.6965 10.5842C47.1147 11.166 46.3256 11.4928 45.5027 11.4928H41.0096C39.298 11.4928 37.9072 10.1021 37.9072 8.39044V3.89732C37.9072 3.07451 38.2341 2.2854 38.8159 1.70359C39.3977 1.12178 40.1868 0.794922 41.0096 0.794922ZM40.9026 1.86471C40.3919 1.86471 39.9021 2.06759 39.541 2.42872C39.1799 2.78984 38.977 3.27963 38.977 3.79034V8.49742C38.977 9.56186 39.8382 10.423 40.9026 10.423H45.6097C46.1204 10.423 46.6102 10.2202 46.9713 9.85904C47.3325 9.49792 47.5354 9.00813 47.5354 8.49742V3.79034C47.5354 2.7259 46.6742 1.86471 45.6097 1.86471H40.9026ZM46.0644 2.66706C46.2417 2.66706 46.4118 2.7375 46.5372 2.86289C46.6626 2.98828 46.733 3.15835 46.733 3.33568C46.733 3.51301 46.6626 3.68307 46.5372 3.80846C46.4118 3.93385 46.2417 4.0043 46.0644 4.0043C45.8871 4.0043 45.717 3.93385 45.5916 3.80846C45.4662 3.68307 45.3958 3.51301 45.3958 3.33568C45.3958 3.15835 45.4662 2.98828 45.5916 2.86289C45.717 2.7375 45.8871 2.66706 46.0644 2.66706ZM43.2562 3.4694C43.9655 3.4694 44.6458 3.75118 45.1473 4.25274C45.6489 4.7543 45.9307 5.43456 45.9307 6.14388C45.9307 6.8532 45.6489 7.53346 45.1473 8.03502C44.6458 8.53658 43.9655 8.81836 43.2562 8.81836C42.5469 8.81836 41.8666 8.53658 41.365 8.03502C40.8635 7.53346 40.5817 6.8532 40.5817 6.14388C40.5817 5.43456 40.8635 4.7543 41.365 4.25274C41.8666 3.75118 42.5469 3.4694 43.2562 3.4694ZM43.2562 4.53919C42.8306 4.53919 42.4224 4.70826 42.1215 5.00919C41.8206 5.31013 41.6515 5.71829 41.6515 6.14388C41.6515 6.56947 41.8206 6.97763 42.1215 7.27856C42.4224 7.5795 42.8306 7.74857 43.2562 7.74857C43.6818 7.74857 44.0899 7.5795 44.3909 7.27856C44.6918 6.97763 44.8609 6.56947 44.8609 6.14388C44.8609 5.71829 44.6918 5.31013 44.3909 5.00919C44.0899 4.70826 43.6818 4.53919 43.2562 4.53919Z" fill="#898989"/>
<path d="M81.8144 5.07435H84.2214L83.9539 6.14414H81.8144V10.9582H80.7446V6.14414H78.605V5.07435H80.7446V4.07302C80.7446 3.1193 80.8441 2.77323 81.0302 2.42447C81.2127 2.08 81.4945 1.79825 81.839 1.61571C82.1877 1.42957 82.5338 1.33008 83.4875 1.33008C83.7671 1.33008 84.0117 1.35682 84.2214 1.41031V2.39987H83.4875C82.7793 2.39987 82.5637 2.44159 82.3434 2.55927C82.1852 2.64191 82.0562 2.77111 81.9738 2.92942C81.8561 3.14926 81.8144 3.36482 81.8144 4.07302V5.07435Z" fill="#898989"/>
<path d="M118.768 4.69901C119.258 4.19781 119.897 3.86992 120.64 3.86992C121.42 3.86992 122.168 4.17987 122.72 4.73159C123.272 5.28331 123.582 6.0316 123.582 6.81185V10.8236H122.512V6.81185C122.512 6.31533 122.315 5.83914 121.964 5.48805C121.613 5.13696 121.136 4.93971 120.64 4.93971C120.143 4.93971 119.667 5.13696 119.316 5.48805C118.965 5.83914 118.768 6.31533 118.768 6.81185V10.8236H117.698V4.13737H118.768V4.69901ZM115.024 3.06758C114.811 3.06758 114.607 2.98305 114.456 2.83258C114.306 2.68211 114.221 2.47803 114.221 2.26523C114.221 2.05244 114.306 1.84836 114.456 1.69789C114.607 1.54742 114.811 1.46289 115.024 1.46289C115.236 1.46289 115.44 1.54742 115.591 1.69789C115.741 1.84836 115.826 2.05244 115.826 2.26523C115.826 2.47803 115.741 2.68211 115.591 2.83258C115.44 2.98305 115.236 3.06758 115.024 3.06758ZM114.489 4.13737H115.558V10.8236H114.489V4.13737Z" fill="#898989"/>
</svg>
